<svg width="790" height="1500" viewBox="0 0 790 1500" fill="none" xmlns="http://www.w3.org/2000/svg">
<path d="M285.351 327.145L280.385 351.971C279.829 354.751 280.216 357.638 281.484 360.174C283.644 364.494 288.059 367.223 292.889 367.223H482.71C496.919 367.223 510.98 370.109 524.04 375.706C536.309 380.964 547.462 388.515 556.9 397.953L569.491 410.544C577.125 418.178 583.868 426.654 589.589 435.809L590.619 437.457C602.285 456.122 609.204 477.358 610.772 499.312L611.686 512.108C613.102 531.943 608.258 551.723 597.836 568.659C580.548 596.752 549.923 613.865 516.937 613.865H501.722C492.473 613.865 483.253 612.815 474.24 610.735L444.294 603.824C425.858 599.57 406.999 597.422 388.079 597.422H280.583C276.265 597.422 271.987 598.246 267.978 599.85C255.092 605.004 246.642 617.485 246.642 631.363V672.197C246.642 679.71 252.018 686.193 259.385 687.666C267.545 689.298 275.634 684.25 277.652 676.177C278.834 671.45 282.157 667.547 286.635 665.628L306.665 657.044C314.074 653.869 322.05 652.232 330.111 652.232H463.675C489.958 652.232 515.48 661.059 536.148 677.297L556.272 693.109C571.871 705.365 580.979 724.105 580.979 743.944V751.352C580.979 758.221 579.112 764.962 575.577 770.853C568.727 782.269 556.39 789.255 543.076 789.255H286.064C281.746 789.255 277.468 790.079 273.459 791.683L265.107 795.023C257.265 798.16 252.123 805.755 252.123 814.201C252.123 826.965 263.584 836.673 276.173 834.575L405.778 812.974C412.948 811.779 420.204 811.179 427.472 811.179H454.917L537.131 822.141L616.106 836.948C621.563 837.972 627.174 836.236 631.1 832.31C634.113 829.297 635.87 825.253 636.017 820.995L651.057 384.821C651.832 362.358 648.073 339.968 640.004 318.989L637.024 311.241C629.018 290.426 615.961 271.929 599.029 257.416L594.468 253.507C589.149 248.948 583.292 245.058 577.026 241.925L561.089 233.957C549.336 228.081 535.632 227.511 523.433 232.39C517.999 234.564 512.201 235.68 506.349 235.68H498.765C487.903 235.68 477.141 233.608 467.055 229.574L454.917 224.719C440.937 217.729 424.678 216.875 410.043 222.363L389.146 230.2L344.209 254.711C334.026 260.265 324.691 267.25 316.489 275.452L309.017 282.924C296.936 295.005 288.701 310.392 285.351 327.145Z" fill="white"/>
<path d="M295.97 749.322H548.094M295.97 683.551V707.041M295.97 772.812V707.041M334.337 674.155V772.812M394.627 674.155V772.812M471.36 674.155V772.812M537.132 696.079V707.041M537.132 772.812V707.041M295.97 707.041H537.132" stroke="white" stroke-width="10" stroke-linecap="round" stroke-linejoin="round"/>
<path d="M463.09 212.313L461.715 210.252C458.105 204.837 460.058 197.484 465.879 194.573L468.125 193.45C473.857 190.584 480.177 189.092 486.585 189.092C491.022 189.092 495.429 189.808 499.638 191.211L509.726 194.573L521.926 198.64C524.643 199.545 526.889 201.493 528.169 204.055L529.146 206.008C530.641 208.999 530.055 212.611 527.691 214.976C526.695 215.971 525.448 216.677 524.082 217.019L510.991 220.292C506.511 221.412 501.91 221.978 497.292 221.978H493.261C489.636 221.978 486.024 221.533 482.508 220.654L470.757 217.717C467.618 216.932 464.884 215.005 463.09 212.313Z" fill="white"/>
<path d="M526.169 80.8964V158.207C526.169 170.241 515.622 179.552 503.68 178.06C492.145 176.618 484.263 165.682 486.543 154.283L501.705 78.4739C503.088 71.5583 509.971 67.2026 516.813 68.9131C522.312 70.2878 526.169 75.2284 526.169 80.8964Z" fill="white"/>
<path d="M531.733 47.4465L526.466 50.9577C522.699 53.4692 518.272 54.8094 513.745 54.8094C507.662 54.8094 501.829 52.3932 497.529 48.0924L495.32 45.8843C493.966 44.5297 492.748 43.0447 491.686 41.4508L489.12 37.6021C484.916 31.2963 484.413 23.2214 487.803 16.4428C491.312 9.42404 497.466 4.08684 504.91 1.60533L505.098 1.54284C508.164 0.520963 511.374 0 514.605 0H519.029C523.685 0 528.236 1.37816 532.11 3.9608C538.671 8.33468 542.612 15.6981 542.612 23.5832V27.1181C542.612 30.911 541.729 34.6518 540.033 38.0443C538.131 41.8472 535.27 45.088 531.733 47.4465Z" fill="white"/>
<path d="M464.974 382.841L196.279 378.508C176.024 378.181 156.369 385.386 141.123 398.726C128.025 410.187 118.926 425.529 115.15 442.519L112.017 456.617C110.676 462.651 110 468.814 110 474.995C110 493.834 116.279 512.136 127.846 527.007L134.057 534.993C143.5 547.133 155.297 557.241 168.742 564.711L170.101 565.466C188.199 575.52 208.56 580.796 229.263 580.796H247.024H393.232C416.191 580.796 439.001 584.498 460.782 591.758L497.092 599.827C505.712 601.743 514.59 602.222 523.366 601.247C546.297 598.699 567.023 586.406 580.254 567.504L580.937 566.529C591.85 550.939 597.067 532.069 595.711 513.087L594.254 492.683C592.988 474.961 587.403 457.819 577.986 442.752C569.385 428.99 557.815 417.326 544.124 408.613L538.091 404.774C516.212 390.851 490.904 383.26 464.974 382.841Z" stroke="white" stroke-width="10"/>
<path fill-rule="evenodd" clip-rule="evenodd" d="M192.727 413.48C196.771 411.458 201.23 410.405 205.751 410.405H481.865C488.851 410.405 495.741 412.032 501.989 415.156L506.099 417.21C510.425 419.374 514.374 422.22 517.794 425.64L528.499 436.345C534.581 442.427 537.997 450.674 537.997 459.274V492.793C537.997 508.309 530.004 522.73 516.847 530.953L508.659 536.07C501.507 540.54 493.243 542.91 484.809 542.91H207.353C198.469 542.91 189.784 540.281 182.392 535.353L172.899 529.024C166.548 524.79 161.411 518.972 157.998 512.144C154.952 506.053 153.367 499.337 153.367 492.527V466.769C153.367 453.632 159.107 441.151 169.081 432.602L186.798 417.416C188.606 415.866 190.597 414.544 192.727 413.48ZM205.751 400.405C199.677 400.405 193.687 401.819 188.255 404.535C185.394 405.966 182.719 407.742 180.29 409.823L162.573 425.009C150.383 435.459 143.367 450.713 143.367 466.769V492.527C143.367 500.89 145.314 509.137 149.053 516.616C153.245 525 159.553 532.145 167.352 537.345L176.845 543.673C185.879 549.696 196.495 552.91 207.353 552.91H484.809C495.117 552.91 505.218 550.014 513.959 544.55L522.147 539.433C538.228 529.382 547.997 511.757 547.997 492.793V459.274C547.997 448.022 543.527 437.231 535.571 429.274L524.865 418.569C520.685 414.389 515.858 410.91 510.571 408.266L506.462 406.212C498.824 402.393 490.403 400.405 481.865 400.405H205.751ZM224.412 475.016L233.409 467.819C235.127 466.445 237.261 465.696 239.461 465.696C243.906 465.696 247.781 468.721 248.859 473.034L252.505 487.62L255.375 496.229C256.935 500.907 261.313 504.063 266.244 504.063C268.022 504.063 269.777 503.649 271.367 502.853L271.978 502.548C276.84 500.117 279.91 495.149 279.91 489.713V488.114C279.91 478.76 287.493 471.177 296.848 471.177H305.663C310.331 471.177 314.91 472.445 318.913 474.847L337.155 485.793C339.178 487.006 341.045 488.463 342.713 490.131C348.123 495.542 351.163 502.881 351.163 510.533V513.365C351.163 521.25 347.222 528.614 340.661 532.988C336.787 535.571 332.236 536.949 327.58 536.949H232.241C224.356 536.949 216.992 533.008 212.618 526.447C210.036 522.573 208.658 518.021 208.658 513.365V507.796C208.658 495.043 214.454 482.982 224.412 475.016ZM375.827 479.398L376.693 478.533C381.403 473.823 387.791 471.177 394.451 471.177H396.696C405.609 471.177 413.624 476.604 416.935 484.879L419.492 491.272C421.258 495.687 425.534 498.582 430.289 498.582C432.313 498.582 434.302 498.054 436.059 497.049L437.6 496.168C441.768 493.787 444.34 489.354 444.34 484.554C444.34 477.166 450.329 471.177 457.717 471.177H483.096C493.375 471.177 503.233 475.26 510.501 482.528L515.592 487.62L521.172 493.2C524.618 496.646 526.554 501.32 526.554 506.193C526.554 511.775 524.017 517.055 519.658 520.542L510.712 527.699C503.227 533.686 493.927 536.949 484.342 536.949H381.955C376.52 536.949 371.552 533.878 369.121 529.017C368.125 527.024 367.606 524.827 367.606 522.599V499.247C367.606 491.802 370.563 484.663 375.827 479.398Z" fill="white"/>
<path d="M200.757 893.227L138.212 960.24C134.492 964.225 134.599 970.442 138.454 974.297C140.967 976.81 144.614 977.82 148.062 976.958L186.352 967.385L224.719 956.423L279.528 939.981L350.78 929.019L413.344 924.848C426.424 923.976 439.552 924.134 452.608 925.321L493.285 929.019L561.033 940.974C577.94 943.958 594.494 948.675 610.434 955.051L625.221 960.966C635.893 965.235 646.968 968.421 658.277 970.477L696.244 977.381C699.732 978.015 703.323 977.76 706.686 976.639C720.343 972.086 725.526 955.493 716.889 943.976L703.163 925.674C702.096 924.252 700.929 922.907 699.672 921.649L679.985 901.963C654.493 876.471 623.659 856.958 589.708 844.832C572.977 838.857 555.643 834.731 538.015 832.528L476.842 824.881L451.131 822.544C428.188 820.458 405.067 821.553 382.425 825.799L328.857 835.843L308.185 839.288C278.495 844.236 250.287 855.763 225.629 873.024L217.304 878.852C211.302 883.053 205.756 887.871 200.757 893.227Z" fill="white"/>
<path d="M643.11 1500H152.744C146.98 1500 142.2 1495.53 141.808 1489.78L126.776 1269.32C126.377 1263.46 130.665 1258.33 136.502 1257.68L175.39 1253.36C178.483 1253.36 181.054 1255.74 181.291 1258.82L196.318 1454.17C196.839 1460.94 203.322 1465.61 209.906 1463.97L241.161 1456.15L295.971 1445.19L383.666 1439.71L465.88 1445.19L548.116 1459.7C554.134 1460.76 559.858 1456.7 560.84 1450.67L596.357 1232.5C597.012 1228.47 599.844 1225.15 603.71 1223.86L644.896 1210.13C646.123 1209.72 647.267 1209.1 648.277 1208.29L669.542 1191.28C672.422 1188.97 676.266 1188.27 679.774 1189.41L698.792 1195.58C704.024 1197.28 707.187 1202.59 706.188 1208L653.889 1491.03C652.928 1496.23 648.395 1500 643.11 1500Z" fill="white"/>
<path d="M639.019 979.311L713.113 990.763C716.176 991.236 715.829 995.754 712.729 995.754C712.591 995.754 712.453 995.765 712.317 995.788L694.928 998.686C684.982 1000.34 675.804 1005.07 668.674 1012.2L649.961 1030.91C647.905 1032.97 646.75 1035.75 646.75 1038.66V1072.94C646.75 1076.11 645.261 1079.08 642.73 1080.98C635.793 1086.19 625.965 1080.75 626.685 1072.11L630.308 1028.64V1025.58C630.308 1020.86 627.288 1016.67 622.812 1015.18L564.536 995.754C531.906 981.252 496.975 972.615 461.347 970.239L432.994 968.349L358.196 971.341C316.845 972.995 275.606 979.384 235.68 990.273L175.39 1012.2L163.057 1015.28C157.608 1016.64 154.07 1021.9 154.864 1027.46L157.433 1045.44C158.275 1051.34 154.257 1056.83 148.383 1057.8L137.94 1059.55C131.568 1060.61 125.664 1055.96 125.204 1049.51L121.419 996.535C120.966 990.189 125.992 984.792 132.353 984.792H150.365C159.702 984.792 169.001 983.599 178.035 981.242L290.49 951.906L339.818 940.944L355.807 939.491C385.293 936.81 414.947 936.523 444.479 938.633L476.841 940.944L525.255 946.324C525.864 946.391 526.466 946.51 527.055 946.678L564.536 957.387L639.019 979.311Z" fill="white"/>
<path d="M39.8442 1067.19L91.4776 1022.44C98.5762 1016.29 109.619 1021.33 109.619 1030.72V1070.04C109.619 1071.63 109.093 1073.17 108.124 1074.43L84.1287 1105.62C68.9306 1125.38 75.5248 1154.1 97.8199 1165.24C98.3703 1165.52 98.9772 1165.66 99.5926 1165.66H141.155C142.051 1165.66 142.944 1165.55 143.814 1165.34L180.331 1156.21C184.066 1155.27 188.018 1156.37 190.74 1159.09L201.204 1169.55C202.253 1170.6 203.505 1171.43 204.884 1171.98L255.515 1192.23C256.893 1192.78 258.145 1193.61 259.195 1194.66L265.656 1201.12C271.72 1207.18 268.787 1217.55 260.444 1219.53L176.948 1239.42C168.63 1241.4 160.109 1242.4 151.558 1242.4H77.2268C69.6304 1242.4 62.0748 1241.29 54.7988 1239.1L51.7303 1238.18C26.5557 1230.63 7.43015 1210.06 1.72855 1184.4C0.579633 1179.23 0 1173.95 0 1168.66V1153.25C0 1132.71 5.77356 1112.58 16.6622 1095.16L18.6803 1091.93C24.4641 1082.67 31.5974 1074.33 39.8442 1067.19Z" fill="white"/>
<path d="M448.803 1054.43L348.704 1087.79C346.524 1088.52 344.722 1090.08 343.694 1092.14C341.553 1096.42 343.288 1101.63 347.569 1103.77L372.704 1116.33L397.505 1131.22C399.208 1132.24 401.158 1132.78 403.145 1132.78H426.654C427.224 1132.78 427.793 1132.71 428.347 1132.57C442.082 1129.14 456.536 1129.96 469.792 1134.93L492.349 1143.39C492.971 1143.62 493.571 1143.91 494.14 1144.25L517.575 1158.31C519.645 1159.56 521.844 1160.57 524.134 1161.33L529.616 1163.16C534.428 1164.76 539.681 1164.39 544.218 1162.12L545.627 1161.42C553.332 1157.56 557.032 1148.63 554.308 1140.46C553.821 1139 553.142 1137.61 552.289 1136.33L549.9 1132.75C545.124 1125.58 538.563 1119.79 530.863 1115.94L525.317 1113.17C522.236 1111.63 519.048 1110.31 515.78 1109.22L506.46 1106.11C504.987 1105.62 503.473 1105.26 501.936 1105.04L487.583 1102.99C485.667 1102.72 485.868 1099.89 487.803 1099.89H496.162C508.687 1099.89 521.041 1102.81 532.244 1108.41L542.937 1113.76C546.334 1115.45 549.323 1117.87 551.695 1120.84L560.333 1131.63C565.499 1138.09 575.132 1138.62 580.979 1132.78C584.006 1129.75 584.006 1124.84 580.979 1121.82L558.861 1099.7C551.757 1092.59 543.283 1087.01 533.955 1083.27L531.98 1082.48C524.521 1079.5 516.562 1077.97 508.529 1077.97H500.238C497.672 1077.97 496.387 1074.87 498.201 1073.05C498.57 1072.68 499.033 1072.42 499.539 1072.29L500.292 1072.11C513.454 1068.81 527.359 1070.34 539.494 1076.41L542.613 1077.97L565.601 1091.76C568.534 1093.52 571.24 1095.63 573.659 1098.05L585.45 1109.84C589.428 1113.82 595.312 1115.21 600.649 1113.43C605.467 1111.83 609.13 1107.87 610.361 1102.94L610.784 1101.25C612.632 1093.86 609.634 1086.11 603.295 1081.88L597.422 1077.97L581.637 1066.69C566.816 1056.11 549.592 1049.38 531.519 1047.12L527.443 1046.61C519.312 1045.6 511.093 1045.49 502.939 1046.31L472.56 1049.35C464.478 1050.16 456.51 1051.86 448.803 1054.43Z" fill="white"/>
<path d="M657.712 1049.62V1060.58C657.712 1068.33 666.083 1073.18 672.811 1069.34L688.024 1060.65C693.303 1057.63 699.276 1056.04 705.356 1056.04C713.527 1056.04 721.441 1058.91 727.718 1064.14L742.75 1076.67C748.038 1081.07 751.788 1087.05 753.458 1093.73C755.336 1101.24 754.465 1109.18 751 1116.11L747.327 1123.46C742.501 1133.11 734.927 1141.11 725.558 1146.47L703.791 1158.91C702.319 1159.75 701.035 1160.88 700.018 1162.24L691.694 1173.34C688.984 1176.95 691.562 1182.11 696.079 1182.11H710.282C725.997 1182.11 741.32 1177.2 754.108 1168.06C766.3 1159.35 775.622 1147.21 780.883 1133.18L783.122 1127.21C787.177 1116.39 789.255 1104.94 789.255 1093.39V1076.3C789.255 1059.67 783.424 1043.57 772.776 1030.79L771.444 1029.19C765.138 1021.62 757.13 1015.65 748.076 1011.77C732.372 1005.04 714.595 1005.04 698.891 1011.77L697.012 1012.58C689.154 1015.95 682.011 1020.78 675.966 1026.83L660.923 1041.87C658.867 1043.93 657.712 1046.72 657.712 1049.62Z" fill="white"/>
<path d="M685.117 1072.49L646.75 1094.41L604.405 1126.17C603.411 1126.92 602.551 1127.82 601.861 1128.86L593.157 1141.91C592.354 1143.12 591.321 1144.15 590.117 1144.96L545.374 1174.78C543.574 1175.98 541.458 1176.62 539.294 1176.62H523.097C521.51 1176.62 519.943 1176.28 518.503 1175.62L452.208 1145.02C450.395 1144.18 448.388 1143.86 446.404 1144.08L404.077 1148.78C401.514 1149.06 398.932 1148.44 396.786 1147.01L383.666 1138.26L323.375 1105.37L249.052 1077.5C240.175 1074.17 230.904 1072.01 221.47 1071.07L193.14 1068.23C184.986 1067.42 176.767 1067.52 168.636 1068.54L160.371 1069.57C145.105 1071.48 130.664 1077.57 118.65 1087.19L114.325 1090.65C111.202 1093.14 108.44 1096.06 106.116 1099.31L101.884 1105.24C90.8515 1120.68 93.8181 1142.06 108.64 1153.92C109.273 1154.42 110.061 1154.7 110.872 1154.7H141.419C142.141 1154.7 142.861 1154.63 143.569 1154.49L169.909 1149.22L187.715 1144.77C190.364 1144.11 193.166 1144.46 195.57 1145.75L263.085 1182.11L356.261 1225.95L388.732 1240.71C406.931 1248.98 427.046 1252.12 446.9 1249.79L508.609 1242.53C509.352 1242.44 510.085 1242.28 510.795 1242.04L654.832 1194.03C656.717 1193.4 658.395 1192.27 659.688 1190.76L681.926 1164.82C687.686 1158.1 694.239 1152.1 701.441 1146.96L722.901 1131.63C726.91 1128.76 730.365 1125.2 733.098 1121.1L735.422 1117.61C738.359 1113.2 739.926 1108.03 739.926 1102.73C739.926 1094.07 735.743 1085.94 728.695 1080.91L717.641 1073.01C707.961 1066.1 695.015 1065.89 685.117 1072.49Z" fill="white"/>
</svg>
