<svg width="790" height="1500" viewBox="0 0 790 1500" fill="none" xmlns="http://www.w3.org/2000/svg">
<path d="M285.351 327.145L280.385 351.971C279.829 354.751 280.216 357.638 281.484 360.174C283.644 364.494 288.059 367.223 292.889 367.223H482.71C496.919 367.223 510.98 370.109 524.04 375.706C536.309 380.964 547.462 388.515 556.9 397.953L569.491 410.544C577.125 418.178 583.868 426.654 589.589 435.809L590.619 437.457C602.285 456.122 609.204 477.358 610.772 499.312L611.686 512.108C613.102 531.943 608.258 551.723 597.836 568.659C580.548 596.752 549.923 613.865 516.937 613.865H501.722C492.473 613.865 483.253 612.815 474.24 610.735L444.294 603.824C425.858 599.57 406.999 597.422 388.079 597.422H280.583C276.265 597.422 271.987 598.246 267.978 599.85C255.092 605.004 246.642 617.485 246.642 631.363V672.197C246.642 679.71 252.018 686.193 259.385 687.666C267.545 689.298 275.634 684.25 277.652 676.177C278.834 671.45 282.157 667.547 286.635 665.628L306.665 657.044C314.074 653.869 322.05 652.232 330.111 652.232H463.675C489.958 652.232 515.48 661.059 536.148 677.297L556.272 693.109C571.871 705.365 580.979 724.105 580.979 743.944V751.352C580.979 758.221 579.112 764.962 575.577 770.853C568.727 782.269 556.39 789.255 543.076 789.255H286.064C281.746 789.255 277.468 790.079 273.459 791.683L265.107 795.023C257.265 798.16 252.123 805.755 252.123 814.201C252.123 826.965 263.584 836.673 276.173 834.575L405.778 812.974C412.948 811.779 420.204 811.179 427.472 811.179H454.917L537.131 822.141L616.106 836.948C621.563 837.972 627.174 836.236 631.1 832.31C634.113 829.297 635.87 825.253 636.017 820.995L651.057 384.821C651.832 362.358 648.073 339.968 640.004 318.989L637.024 311.241C629.018 290.426 615.961 271.929 599.029 257.416L594.468 253.507C589.149 248.948 583.292 245.058 577.026 241.925L561.089 233.957C549.336 228.081 535.632 227.511 523.433 232.39C517.999 234.564 512.201 235.68 506.349 235.68H498.765C487.903 235.68 477.141 233.608 467.055 229.574L454.917 224.719C440.937 217.729 424.678 216.875 410.043 222.363L389.146 230.2L344.209 254.711C334.026 260.265 324.691 267.25 316.489 275.452L309.017 282.924C296.936 295.005 288.701 310.392 285.351 327.145Z" fill="#272727"/>
<path d="M295.97 749.322H548.094M295.97 683.551V707.041M295.97 772.812V707.041M334.337 674.155V772.812M394.627 674.155V772.812M471.36 674.155V772.812M537.132 696.079V707.041M537.132 772.812V707.041M295.97 707.041H537.132" stroke="#272727" stroke-width="10" stroke-linecap="round" stroke-linejoin="round"/>
<path d="M463.09 212.313L461.715 210.252C458.105 204.837 460.058 197.484 465.879 194.573L468.125 193.45C473.857 190.584 480.177 189.092 486.585 189.092C491.022 189.092 495.429 189.808 499.638 191.211L509.726 194.573L521.926 198.64C524.643 199.545 526.889 201.493 528.169 204.055L529.146 206.008C530.641 208.999 530.055 212.611 527.691 214.976C526.695 215.971 525.448 216.677 524.082 217.019L510.991 220.292C506.511 221.412 501.91 221.978 497.292 221.978H493.261C489.636 221.978 486.024 221.533 482.508 220.654L470.757 217.717C467.618 216.932 464.884 215.005 463.09 212.313Z" fill="#272727"/>
<path d="M526.169 80.8964V158.207C526.169 170.241 515.622 179.552 503.68 178.06C492.145 176.618 484.263 165.682 486.543 154.283L501.705 78.4739C503.088 71.5583 509.971 67.2026 516.813 68.9131C522.312 70.2878 526.169 75.2284 526.169 80.8964Z" fill="#272727"/>
<path d="M531.733 47.4465L526.466 50.9577C522.699 53.4692 518.272 54.8094 513.745 54.8094C507.662 54.8094 501.829 52.3932 497.529 48.0924L495.32 45.8843C493.966 44.5297 492.748 43.0447 491.686 41.4508L489.12 37.6021C484.916 31.2963 484.413 23.2214 487.803 16.4428C491.312 9.42404 497.466 4.08684 504.91 1.60533L505.098 1.54284C508.164 0.520963 511.374 0 514.605 0H519.029C523.685 0 528.236 1.37816 532.11 3.9608C538.671 8.33468 542.612 15.6981 542.612 23.5832V27.1181C542.612 30.911 541.729 34.6518 540.033 38.0443C538.131 41.8472 535.27 45.088 531.733 47.4465Z" fill="#272727"/>
<path d="M476.003 383.21L195.898 378.692C175.643 378.366 155.988 385.57 140.742 398.91C127.644 410.371 118.545 425.713 114.77 442.703L111.636 456.802C110.296 462.836 109.619 468.998 109.619 475.179C109.619 494.018 115.899 512.32 127.465 527.19L135.456 537.465C143.724 548.095 154.054 556.946 165.827 563.486L174.662 568.395C189.518 576.648 206.232 580.979 223.227 580.979H246.643H411.286C422.034 580.979 432.712 582.712 442.908 586.111L460.399 591.941L496.709 600.01C505.329 601.926 514.206 602.406 522.982 601.43C545.914 598.883 566.639 586.589 579.87 567.688L580.553 566.712C591.466 551.122 596.682 532.252 595.327 513.271L593.713 490.675C592.55 474.393 587.418 458.643 578.767 444.8L576.541 441.239C568.638 428.595 558.008 417.878 545.429 409.873L528.078 398.831C512.495 388.915 494.471 383.508 476.003 383.21Z" stroke="#272727" stroke-width="10"/>
<path fill-rule="evenodd" clip-rule="evenodd" d="M147.986 483.797C147.986 458.51 159.036 434.485 178.236 418.028L183.163 413.804C185.281 411.989 187.614 410.44 190.11 409.192V409.192C194.848 406.823 200.072 405.59 205.369 405.59H478.759C488.312 405.59 497.733 407.814 506.277 412.086V412.086C512.193 415.044 517.593 418.936 522.269 423.612L531.651 432.994V432.994C538.67 440.013 542.613 449.533 542.613 459.459V486.614C542.613 507.812 531.693 527.514 513.718 538.749V538.749C503.947 544.856 492.656 548.094 481.134 548.094H212.889C199.16 548.094 185.737 544.03 174.314 536.414L169.745 533.368C162.669 528.651 156.947 522.17 153.144 514.564V514.564C149.752 507.779 147.986 500.297 147.986 492.711V483.797ZM208.276 507.98C208.276 495.227 214.073 483.166 224.031 475.2L233.028 468.003C234.745 466.629 236.879 465.88 239.079 465.88V465.88C243.524 465.88 247.399 468.905 248.477 473.218L252.124 487.804L255.403 497.643C256.718 501.587 260.409 504.247 264.566 504.247V504.247C267.128 504.247 269.584 503.229 271.396 501.418L274.988 497.825C277.895 494.918 279.529 490.975 279.529 486.863V486.863C279.529 478.302 286.469 471.361 295.031 471.361H305.281C309.949 471.361 314.528 472.63 318.531 475.031L336.773 485.976C338.796 487.19 340.662 488.647 342.33 490.315V490.315C347.741 495.726 350.781 503.065 350.781 510.716V513.549C350.781 521.434 346.84 528.798 340.279 533.171V533.171C336.405 535.754 331.853 537.132 327.197 537.132H231.86C223.974 537.132 216.611 533.192 212.237 526.631V526.631C209.655 522.757 208.276 518.205 208.276 513.549V507.98ZM367.224 499.431C367.224 491.986 370.181 484.847 375.445 479.582L376.311 478.717C381.02 474.007 387.408 471.361 394.069 471.361H396.313C405.226 471.361 413.242 476.788 416.552 485.063L419.507 492.451C421.033 496.265 424.726 498.766 428.834 498.766V498.766C431.498 498.766 434.053 497.707 435.937 495.824L440.551 491.209C442.732 489.029 443.957 486.072 443.957 482.988V482.988C443.957 476.567 449.162 471.361 455.583 471.361H482.713C492.991 471.361 502.849 475.444 510.117 482.712L515.209 487.804L520.789 493.384C524.235 496.83 526.171 501.504 526.171 506.377V506.377C526.171 511.959 523.633 517.238 519.274 520.726L510.328 527.882C502.844 533.87 493.544 537.132 483.959 537.132H381.573C376.138 537.132 371.169 534.062 368.738 529.2V529.2C367.742 527.208 367.224 525.011 367.224 522.783V499.431Z" fill="#272727"/>
<path d="M200.757 893.227L138.212 960.24C134.492 964.225 134.599 970.442 138.454 974.297C140.967 976.81 144.614 977.82 148.062 976.958L186.352 967.385L224.719 956.423L279.528 939.981L350.78 929.019L413.344 924.848C426.424 923.976 439.552 924.134 452.608 925.321L493.285 929.019L561.033 940.974C577.94 943.958 594.494 948.675 610.434 955.051L625.221 960.966C635.893 965.235 646.968 968.421 658.277 970.477L696.244 977.381C699.732 978.015 703.323 977.76 706.686 976.639C720.343 972.086 725.526 955.493 716.889 943.976L703.163 925.674C702.096 924.252 700.929 922.907 699.672 921.649L679.985 901.963C654.493 876.471 623.659 856.958 589.708 844.832C572.977 838.857 555.643 834.731 538.015 832.528L476.842 824.881L451.131 822.544C428.188 820.458 405.067 821.553 382.425 825.799L328.857 835.843L308.185 839.288C278.495 844.236 250.287 855.763 225.629 873.024L217.304 878.852C211.302 883.053 205.756 887.871 200.757 893.227Z" fill="#272727"/>
<path d="M643.11 1500H152.744C146.98 1500 142.2 1495.53 141.808 1489.78L126.776 1269.32C126.377 1263.46 130.665 1258.33 136.502 1257.68L175.39 1253.36C178.483 1253.36 181.054 1255.74 181.291 1258.82L196.318 1454.17C196.839 1460.94 203.322 1465.61 209.906 1463.97L241.161 1456.15L295.971 1445.19L383.666 1439.71L465.88 1445.19L548.116 1459.7C554.134 1460.76 559.858 1456.7 560.84 1450.67L596.357 1232.5C597.012 1228.47 599.844 1225.15 603.71 1223.86L644.896 1210.13C646.123 1209.72 647.267 1209.1 648.277 1208.29L669.542 1191.28C672.422 1188.97 676.266 1188.27 679.774 1189.41L698.792 1195.58C704.024 1197.28 707.187 1202.59 706.188 1208L653.889 1491.03C652.928 1496.23 648.395 1500 643.11 1500Z" fill="#272727"/>
<path d="M639.019 979.311L713.113 990.763C716.176 991.236 715.829 995.754 712.729 995.754C712.591 995.754 712.453 995.765 712.317 995.788L694.928 998.686C684.982 1000.34 675.804 1005.07 668.674 1012.2L649.961 1030.91C647.905 1032.97 646.75 1035.75 646.75 1038.66V1072.94C646.75 1076.11 645.261 1079.08 642.73 1080.98C635.793 1086.19 625.965 1080.75 626.685 1072.11L630.308 1028.64V1025.58C630.308 1020.86 627.288 1016.67 622.812 1015.18L564.536 995.754C531.906 981.252 496.975 972.615 461.347 970.239L432.994 968.349L358.196 971.341C316.845 972.995 275.606 979.384 235.68 990.273L175.39 1012.2L163.057 1015.28C157.608 1016.64 154.07 1021.9 154.864 1027.46L157.433 1045.44C158.275 1051.34 154.257 1056.83 148.383 1057.8L137.94 1059.55C131.568 1060.61 125.664 1055.96 125.204 1049.51L121.419 996.535C120.966 990.189 125.992 984.792 132.353 984.792H150.365C159.702 984.792 169.001 983.599 178.035 981.242L290.49 951.906L339.818 940.944L355.807 939.491C385.293 936.81 414.947 936.523 444.479 938.633L476.841 940.944L525.255 946.324C525.864 946.391 526.466 946.51 527.055 946.678L564.536 957.387L639.019 979.311Z" fill="#272727"/>
<path d="M39.8442 1067.19L91.4776 1022.44C98.5762 1016.29 109.619 1021.33 109.619 1030.72V1070.04C109.619 1071.63 109.093 1073.17 108.124 1074.43L84.1287 1105.62C68.9306 1125.38 75.5248 1154.1 97.8199 1165.24C98.3703 1165.52 98.9772 1165.66 99.5926 1165.66H141.155C142.051 1165.66 142.944 1165.55 143.814 1165.34L180.331 1156.21C184.066 1155.27 188.018 1156.37 190.74 1159.09L201.204 1169.55C202.253 1170.6 203.505 1171.43 204.884 1171.98L255.515 1192.23C256.893 1192.78 258.145 1193.61 259.195 1194.66L265.656 1201.12C271.72 1207.18 268.787 1217.55 260.444 1219.53L176.948 1239.42C168.63 1241.4 160.109 1242.4 151.558 1242.4H77.2268C69.6304 1242.4 62.0748 1241.29 54.7988 1239.1L51.7303 1238.18C26.5557 1230.63 7.43015 1210.06 1.72855 1184.4C0.579633 1179.23 0 1173.95 0 1168.66V1153.25C0 1132.71 5.77356 1112.58 16.6622 1095.16L18.6803 1091.93C24.4641 1082.67 31.5974 1074.33 39.8442 1067.19Z" fill="#272727"/>
<path d="M448.803 1054.43L348.704 1087.79C346.524 1088.52 344.722 1090.08 343.694 1092.14C341.553 1096.42 343.288 1101.63 347.569 1103.77L372.704 1116.33L397.505 1131.22C399.208 1132.24 401.158 1132.78 403.145 1132.78H426.654C427.224 1132.78 427.793 1132.71 428.347 1132.57C442.082 1129.14 456.536 1129.96 469.792 1134.93L492.349 1143.39C492.971 1143.62 493.571 1143.91 494.14 1144.25L517.575 1158.31C519.645 1159.56 521.844 1160.57 524.134 1161.33L529.616 1163.16C534.428 1164.76 539.681 1164.39 544.218 1162.12L545.627 1161.42C553.332 1157.56 557.032 1148.63 554.308 1140.46C553.821 1139 553.142 1137.61 552.289 1136.33L549.9 1132.75C545.124 1125.58 538.563 1119.79 530.863 1115.94L525.317 1113.17C522.236 1111.63 519.048 1110.31 515.78 1109.22L506.46 1106.11C504.987 1105.62 503.473 1105.26 501.936 1105.04L487.583 1102.99C485.667 1102.72 485.868 1099.89 487.803 1099.89H496.162C508.687 1099.89 521.041 1102.81 532.244 1108.41L542.937 1113.76C546.334 1115.45 549.323 1117.87 551.695 1120.84L560.333 1131.63C565.499 1138.09 575.132 1138.62 580.979 1132.78C584.006 1129.75 584.006 1124.84 580.979 1121.82L558.861 1099.7C551.757 1092.59 543.283 1087.01 533.955 1083.27L531.98 1082.48C524.521 1079.5 516.562 1077.97 508.529 1077.97H500.238C497.672 1077.97 496.387 1074.87 498.201 1073.05C498.57 1072.68 499.033 1072.42 499.539 1072.29L500.292 1072.11C513.454 1068.81 527.359 1070.34 539.494 1076.41L542.613 1077.97L565.601 1091.76C568.534 1093.52 571.24 1095.63 573.659 1098.05L585.45 1109.84C589.428 1113.82 595.312 1115.21 600.649 1113.43C605.467 1111.83 609.13 1107.87 610.361 1102.94L610.784 1101.25C612.632 1093.86 609.634 1086.11 603.295 1081.88L597.422 1077.97L581.637 1066.69C566.816 1056.11 549.592 1049.38 531.519 1047.12L527.443 1046.61C519.312 1045.6 511.093 1045.49 502.939 1046.31L472.56 1049.35C464.478 1050.16 456.51 1051.86 448.803 1054.43Z" fill="#272727"/>
<path d="M657.712 1049.62V1060.58C657.712 1068.33 666.083 1073.18 672.811 1069.34L688.024 1060.65C693.303 1057.63 699.276 1056.04 705.356 1056.04C713.527 1056.04 721.441 1058.91 727.718 1064.14L742.75 1076.67C748.038 1081.07 751.788 1087.05 753.458 1093.73C755.336 1101.24 754.465 1109.18 751 1116.11L747.327 1123.46C742.501 1133.11 734.927 1141.11 725.558 1146.47L703.791 1158.91C702.319 1159.75 701.035 1160.88 700.018 1162.24L691.694 1173.34C688.984 1176.95 691.562 1182.11 696.079 1182.11H710.282C725.997 1182.11 741.32 1177.2 754.108 1168.06C766.3 1159.35 775.622 1147.21 780.883 1133.18L783.122 1127.21C787.177 1116.39 789.255 1104.94 789.255 1093.39V1076.3C789.255 1059.67 783.424 1043.57 772.776 1030.79L771.444 1029.19C765.138 1021.62 757.13 1015.65 748.076 1011.77C732.372 1005.04 714.595 1005.04 698.891 1011.77L697.012 1012.58C689.154 1015.95 682.011 1020.78 675.966 1026.83L660.923 1041.87C658.867 1043.93 657.712 1046.72 657.712 1049.62Z" fill="#272727"/>
<path d="M685.117 1072.49L646.75 1094.41L604.405 1126.17C603.411 1126.92 602.551 1127.82 601.861 1128.86L593.157 1141.91C592.354 1143.12 591.321 1144.15 590.117 1144.96L545.374 1174.78C543.574 1175.98 541.458 1176.62 539.294 1176.62H523.097C521.51 1176.62 519.943 1176.28 518.503 1175.62L452.208 1145.02C450.395 1144.18 448.388 1143.86 446.404 1144.08L404.077 1148.78C401.514 1149.06 398.932 1148.44 396.786 1147.01L383.666 1138.26L323.375 1105.37L249.052 1077.5C240.175 1074.17 230.904 1072.01 221.47 1071.07L193.14 1068.23C184.986 1067.42 176.767 1067.52 168.636 1068.54L160.371 1069.57C145.105 1071.48 130.664 1077.57 118.65 1087.19L114.325 1090.65C111.202 1093.14 108.44 1096.06 106.116 1099.31L101.884 1105.24C90.8515 1120.68 93.8181 1142.06 108.64 1153.92C109.273 1154.42 110.061 1154.7 110.872 1154.7H141.419C142.141 1154.7 142.861 1154.63 143.569 1154.49L169.909 1149.22L187.715 1144.77C190.364 1144.11 193.166 1144.46 195.57 1145.75L263.085 1182.11L356.261 1225.95L388.732 1240.71C406.931 1248.98 427.046 1252.12 446.9 1249.79L508.609 1242.53C509.352 1242.44 510.085 1242.28 510.795 1242.04L654.832 1194.03C656.717 1193.4 658.395 1192.27 659.688 1190.76L681.926 1164.82C687.686 1158.1 694.239 1152.1 701.441 1146.96L722.901 1131.63C726.91 1128.76 730.365 1125.2 733.098 1121.1L735.422 1117.61C738.359 1113.2 739.926 1108.03 739.926 1102.73C739.926 1094.07 735.743 1085.94 728.695 1080.91L717.641 1073.01C707.961 1066.1 695.015 1065.89 685.117 1072.49Z" fill="#272727"/>
</svg>
