<svg width="500" height="500" viewBox="0 0 500 500" fill="none" xmlns="http://www.w3.org/2000/svg">
<mask id="mask0_1_46" style="mask-type:alpha" maskUnits="userSpaceOnUse" x="0" y="0" width="500" height="500">
<circle cx="250" cy="250" r="250" fill="#D9D9D9"/>
</mask>
<g mask="url(#mask0_1_46)">
<circle cx="250" cy="250" r="250" fill="white"/>
<path d="M218.05 433H196.55V431.25L206.4 420.25C209.95 416.25 211.85 414 211.85 411.05C211.85 407.2 209.55 405.5 205.85 405.5C203.4 405.5 200.25 406.45 197.6 408.05V403.3C200.6 401.5 203.65 400.85 206.7 400.85C212.05 400.85 216.9 403.9 216.9 410.2C216.9 414.55 214.95 417.15 210.5 422.05L204.95 428.15H218.05V433ZM236.321 429.2C242.571 429.2 245.171 423.8 245.171 417.4C245.171 411 242.571 405.55 236.321 405.55C230.071 405.55 227.471 410.95 227.471 417.35C227.471 423.75 230.071 429.2 236.321 429.2ZM236.321 433.85C227.271 433.85 222.121 426.45 222.121 417.35C222.121 408.25 227.271 400.85 236.321 400.85C245.371 400.85 250.521 408.3 250.521 417.4C250.521 426.5 245.371 433.85 236.321 433.85ZM266.707 401.4V428.6H272.957V433H255.507V428.6H261.757V406.25H255.107L256.257 401.4H266.707ZM288.608 405.35C284.758 405.35 281.858 408.1 281.858 411.7C281.858 415.5 284.608 417.9 288.658 417.9C291.958 417.9 295.358 415.6 296.258 412.9C295.708 408.55 292.908 405.35 288.608 405.35ZM288.308 400.85C296.608 400.85 301.458 406.5 301.458 415.8C301.458 425.8 296.008 433.85 286.358 433.85C283.458 433.85 281.058 433.2 278.908 431.85V427.15C281.058 428.55 283.408 429.25 285.808 429.25C292.258 429.25 295.708 424.45 296.108 418.7C294.108 420.7 290.858 422.05 287.258 422.05C281.108 422.05 276.508 418.05 276.508 411.9C276.508 405.4 281.608 400.85 288.308 400.85Z" fill="#1933E8"/>
<path fill-rule="evenodd" clip-rule="evenodd" d="M250 75C253.695 75 257.362 75.1145 261 75.3401V78.3461C257.363 78.1165 253.695 78 250 78C167.709 78 98.9156 135.79 81.9896 213H78.9189C95.8974 134.12 166.045 75 250 75ZM79.1373 288C92.1158 346.617 134.489 394.184 190 414.444V411.245C136.151 391.2 95.0551 344.951 82.2119 288H79.1373ZM417.788 288C404.866 345.303 363.34 391.771 309 411.614V414.805C365.002 394.754 407.807 346.969 420.863 288H417.788ZM421.081 213C406.886 147.05 355.524 94.9132 290 79.5924V82.6755C353.864 97.886 403.917 148.711 418.011 213H421.081Z" fill="#1933E8"/>
<path fill-rule="evenodd" clip-rule="evenodd" d="M166.754 288L216.5 234.5V213H-22V288H166.754ZM343.085 288H505V213H305V234.5L343.085 288Z" fill="#D9D9D9" fill-opacity="0.5"/>
<path fill-rule="evenodd" clip-rule="evenodd" d="M166.754 288L216.5 234.5V213H-22V288H166.754ZM343.085 288H505V213H305V234.5L343.085 288Z" fill="#1933E8"/>
<path d="M374.35 261.275V252.8C375.625 252.875 376.825 252.875 377.65 252.875C383.5 252.875 387.925 250.55 387.925 244.175C387.925 239.9 386.05 236.45 378.775 236.45H370.825V275H360.7V227.6H379.375C393.325 227.6 398.5 235.25 398.5 244.4C398.5 256.85 388.9 261.425 379.075 261.425C377.65 261.425 376 261.425 374.35 261.275ZM415.796 227.6V275H405.671V227.6H415.796ZM435.596 275L417.821 250.475L434.621 227.6H446.471L430.271 249.425L448.796 275H435.596Z" fill="white"/>
<path d="M58.35 262.775V271.625C45.825 270.275 38.25 261.65 38.25 250.775C38.25 239.9 45.9 231.65 58.35 230.375V239.3C52.35 240.5 48.6 244.925 48.6 251C48.6 257.15 52.35 261.575 58.35 262.775ZM72 225.95V276.875H61.875V225.95H72ZM75.525 271.625V262.775C81.525 261.575 85.275 257.15 85.275 251C85.275 244.925 81.525 240.5 75.525 239.3V230.375C87.975 231.65 95.625 239.9 95.625 250.775C95.625 261.65 88.05 270.275 75.525 271.625ZM113.715 227.6V275H103.59V227.6H113.715ZM133.515 275L115.74 250.475L132.54 227.6H144.39L128.19 249.425L146.715 275H133.515Z" fill="white"/>
<path d="M228.07 133.429L227.077 138.394C226.966 138.95 227.043 139.528 227.297 140.035C227.729 140.899 228.612 141.445 229.578 141.445H267.542C270.384 141.445 273.196 142.022 275.808 143.141C278.262 144.193 280.492 145.703 282.38 147.591L284.898 150.109C286.425 151.636 287.774 153.331 288.918 155.162L289.124 155.491C291.457 159.224 292.841 163.472 293.154 167.862L293.337 170.421C293.62 174.389 292.652 178.345 290.567 181.732C287.11 187.35 280.985 190.773 274.387 190.773H271.344C269.495 190.773 267.651 190.563 265.848 190.147L259.859 188.765C256.172 187.914 252.4 187.484 248.616 187.484H227.117C226.253 187.484 225.397 187.649 224.596 187.97C222.018 189.001 220.328 191.497 220.328 194.273V202.439C220.328 203.942 221.404 205.238 222.877 205.533C224.509 205.86 226.127 204.85 226.53 203.235C226.767 202.29 227.431 201.509 228.327 201.126L232.333 199.409C233.815 198.774 235.41 198.446 237.022 198.446H263.735C268.992 198.446 274.096 200.212 278.23 203.459L282.254 206.622C285.374 209.073 287.196 212.821 287.196 216.789V218.27C287.196 219.644 286.822 220.992 286.115 222.171C284.745 224.454 282.278 225.851 279.615 225.851H228.213C227.349 225.851 226.494 226.016 225.692 226.336L224.021 227.005C222.453 227.632 221.425 229.151 221.425 230.84C221.425 233.393 223.717 235.335 226.235 234.915L252.156 230.595C253.59 230.356 255.041 230.236 256.494 230.236H261.983L278.426 232.428L294.221 235.39C295.313 235.594 296.435 235.247 297.22 234.462C297.823 233.859 298.174 233.051 298.203 232.199L301.211 144.964C301.366 140.471 300.615 135.994 299.001 131.798L298.405 130.248C296.804 126.085 294.192 122.386 290.806 119.483L289.894 118.701C288.83 117.789 287.658 117.012 286.405 116.385L283.218 114.791C280.867 113.616 278.126 113.502 275.687 114.478C274.6 114.913 273.44 115.136 272.27 115.136H270.753C268.581 115.136 266.428 114.722 264.411 113.915L261.983 112.944C259.187 111.546 255.936 111.375 253.009 112.473L248.829 114.04L239.842 118.942C237.805 120.053 235.938 121.45 234.298 123.09L232.803 124.585C230.387 127.001 228.74 130.078 228.07 133.429Z" fill="#1933E8"/>
<path d="M230.194 217.864H280.619M230.194 204.71V209.408M230.194 222.562V209.408M237.867 202.831V222.562M249.925 202.831V222.562M265.272 202.831V222.562M278.426 207.216V209.408M278.426 222.562V209.408M230.194 209.408H278.426" stroke="#1933E8" stroke-width="2" stroke-linecap="round" stroke-linejoin="round"/>
<path d="M263.618 110.463L263.343 110.05C262.621 108.967 263.012 107.497 264.176 106.915L264.625 106.69C265.771 106.117 267.036 105.818 268.317 105.818C269.204 105.818 270.086 105.962 270.928 106.242L272.945 106.915L275.385 107.728C275.929 107.909 276.378 108.299 276.634 108.811L276.829 109.202C277.128 109.8 277.011 110.522 276.538 110.995C276.339 111.194 276.09 111.335 275.816 111.404L273.198 112.058C272.302 112.282 271.382 112.396 270.459 112.396H269.652C268.927 112.396 268.205 112.307 267.502 112.131L265.152 111.543C264.524 111.386 263.977 111.001 263.618 110.463Z" fill="#1933E8"/>
<path d="M276.234 84.1793V99.6414C276.234 102.048 274.124 103.91 271.736 103.612C269.429 103.324 267.853 101.136 268.309 98.8566L271.341 83.6948C271.618 82.3117 272.994 81.4405 274.363 81.7826C275.462 82.0576 276.234 83.0457 276.234 84.1793Z" fill="#1933E8"/>
<path d="M277.347 77.4893L276.293 78.1916C275.54 78.6938 274.655 78.9619 273.749 78.9619C272.533 78.9619 271.366 78.4786 270.506 77.6185L270.064 77.1769C269.793 76.9059 269.55 76.6089 269.337 76.2902L268.824 75.5204C267.983 74.2593 267.883 72.6443 268.561 71.2886C269.263 69.8848 270.493 68.8174 271.982 68.3211L272.02 68.3086C272.633 68.1042 273.275 68 273.921 68H274.806C275.737 68 276.647 68.2756 277.422 68.7922C278.734 69.6669 279.523 71.1396 279.523 72.7166V73.4236C279.523 74.1822 279.346 74.9304 279.007 75.6089C278.626 76.3694 278.054 77.0176 277.347 77.4893Z" fill="#1933E8"/>
<path d="M266.201 144.642L210.18 143.738C206.129 143.673 202.198 145.114 199.148 147.782C196.529 150.074 194.709 153.143 193.954 156.541L193.327 159.36C193.059 160.567 192.924 161.8 192.924 163.036C192.924 166.804 194.18 170.464 196.493 173.438L198.091 175.493C199.745 177.619 201.811 179.389 204.165 180.697L205.932 181.679C208.904 183.33 212.246 184.196 215.645 184.196H220.329H253.257C255.407 184.196 257.542 184.542 259.582 185.222L263.08 186.388L270.342 188.002C272.066 188.385 273.841 188.481 275.596 188.286C280.183 187.776 284.328 185.318 286.974 181.538L287.111 181.342C289.293 178.224 290.336 174.45 290.065 170.654L289.743 166.135C289.51 162.878 288.484 159.728 286.753 156.96L286.308 156.248C284.728 153.719 282.602 151.575 280.086 149.974L276.616 147.766C273.499 145.783 269.894 144.702 266.201 144.642Z" stroke="#1933E8" stroke-width="2"/>
<path fill-rule="evenodd" clip-rule="evenodd" d="M200.597 164.759C200.597 159.702 202.807 154.897 206.647 151.606L207.633 150.761C208.056 150.398 208.523 150.088 209.022 149.838V149.838C209.97 149.365 211.014 149.118 212.074 149.118H266.752C268.662 149.118 270.547 149.563 272.255 150.417V150.417C273.439 151.009 274.519 151.787 275.454 152.722L277.33 154.599V154.599C278.734 156.003 279.523 157.906 279.523 159.892V165.323C279.523 169.562 277.339 173.503 273.744 175.75V175.75C271.789 176.971 269.531 177.619 267.227 177.619H213.578C210.832 177.619 208.147 176.806 205.863 175.283L204.949 174.674C203.534 173.73 202.389 172.434 201.629 170.913V170.913C200.95 169.556 200.597 168.059 200.597 166.542V164.759ZM212.655 169.596C212.655 167.045 213.815 164.633 215.806 163.04L217.605 161.6C217.949 161.326 218.376 161.176 218.816 161.176V161.176C219.705 161.176 220.48 161.781 220.695 162.643L221.425 165.561L222.081 167.528C222.344 168.317 223.082 168.849 223.913 168.849V168.849C224.425 168.849 224.917 168.646 225.279 168.283L225.998 167.565C226.579 166.984 226.906 166.195 226.906 165.373V165.373C226.906 163.66 228.294 162.272 230.006 162.272H232.056C232.99 162.272 233.906 162.526 234.706 163.006L238.355 165.195C238.759 165.438 239.132 165.729 239.466 166.063V166.063C240.548 167.145 241.156 168.613 241.156 170.143V170.71C241.156 172.287 240.368 173.759 239.056 174.634V174.634C238.281 175.151 237.371 175.426 236.439 175.426H217.372C215.795 175.426 214.322 174.638 213.447 173.326V173.326C212.931 172.551 212.655 171.641 212.655 170.71V169.596ZM244.445 167.886C244.445 166.397 245.036 164.969 246.089 163.916L246.262 163.743C247.204 162.801 248.482 162.272 249.814 162.272H250.263C252.045 162.272 253.648 163.357 254.31 165.013L254.901 166.49C255.206 167.253 255.945 167.753 256.767 167.753V167.753C257.3 167.753 257.811 167.541 258.187 167.165L259.11 166.242C259.546 165.806 259.791 165.214 259.791 164.597V164.597C259.791 163.313 260.832 162.272 262.117 162.272H267.542C269.598 162.272 271.57 163.089 273.023 164.542L274.042 165.561L275.158 166.677C275.847 167.366 276.234 168.301 276.234 169.275V169.275C276.234 170.392 275.727 171.448 274.855 172.145L273.066 173.576C271.569 174.774 269.709 175.426 267.792 175.426H247.314C246.227 175.426 245.234 174.812 244.748 173.84V173.84C244.548 173.441 244.445 173.002 244.445 172.556V167.886Z" fill="#1933E8"/>
<path d="M211.151 246.645L198.642 260.048C197.898 260.845 197.92 262.088 198.691 262.859C199.193 263.362 199.923 263.564 200.612 263.392L208.27 261.477L215.944 259.285L226.906 255.996L241.156 253.804L253.669 252.97C256.285 252.795 258.91 252.827 261.521 253.064L269.657 253.804L283.206 256.195C286.588 256.792 289.899 257.735 293.087 259.01L296.044 260.193C298.179 261.047 300.393 261.684 302.655 262.095L310.249 263.476C310.946 263.603 311.665 263.552 312.337 263.328C315.068 262.417 316.105 259.099 314.378 256.795L311.632 253.135C311.419 252.85 311.186 252.581 310.934 252.33L306.997 248.393C301.899 243.294 295.732 239.392 288.941 236.966C285.595 235.771 282.129 234.946 278.603 234.506L266.368 232.976L261.226 232.509C256.638 232.092 252.013 232.311 247.485 233.16L236.771 235.169L232.637 235.858C226.699 236.847 221.057 239.153 216.126 242.605L214.461 243.77C213.26 244.611 212.151 245.574 211.151 246.645Z" fill="#1933E8"/>
<path d="M299.622 368H201.549C200.396 368 199.44 367.107 199.362 365.957L196.355 321.864C196.275 320.692 197.133 319.665 198.3 319.536L206.078 318.672C206.697 318.672 207.211 319.148 207.258 319.765L210.264 358.834C210.368 360.188 211.664 361.122 212.981 360.793L219.232 359.231L230.194 357.038L247.733 355.942L264.176 357.038L280.623 359.941C281.827 360.153 282.972 359.34 283.168 358.134L290.271 314.499C290.402 313.695 290.969 313.029 291.742 312.771L299.979 310.026C300.225 309.944 300.453 309.819 300.655 309.658L304.908 306.255C305.484 305.795 306.253 305.654 306.955 305.882L310.758 307.116C311.805 307.456 312.437 308.518 312.238 309.6L301.778 366.206C301.586 367.246 300.679 368 299.622 368Z" fill="#1933E8"/>
<path d="M298.804 263.862L313.623 266.153C314.235 266.247 314.166 267.151 313.546 267.151C313.518 267.151 313.491 267.153 313.463 267.158L309.986 267.737C307.996 268.069 306.161 269.013 304.735 270.439L300.992 274.182C300.581 274.593 300.35 275.151 300.35 275.732V282.589C300.35 283.221 300.052 283.817 299.546 284.197C298.159 285.237 296.193 284.15 296.337 282.422L297.062 273.728V273.116C297.062 272.172 296.458 271.334 295.562 271.036L283.907 267.151C277.381 264.25 270.395 262.523 263.269 262.048L257.599 261.67L242.639 262.268C234.369 262.599 226.121 263.877 218.136 266.055L206.078 270.439L203.611 271.056C202.522 271.328 201.814 272.381 201.973 273.493L202.487 277.088C202.655 278.267 201.851 279.365 200.677 279.561L198.588 279.909C197.314 280.121 196.133 279.191 196.041 277.903L195.284 267.307C195.193 266.038 196.198 264.958 197.471 264.958H201.073C202.94 264.958 204.8 264.72 206.607 264.248L229.098 258.381L238.964 256.189L242.161 255.898C248.059 255.362 253.989 255.305 259.896 255.727L266.368 256.189L276.051 257.265C276.173 257.278 276.293 257.302 276.411 257.336L283.907 259.477L298.804 263.862Z" fill="#1933E8"/>
<path d="M178.969 281.437L189.296 272.488C190.715 271.257 192.924 272.266 192.924 274.144V282.007C192.924 282.325 192.819 282.634 192.625 282.886L187.826 289.125C184.786 293.076 186.105 298.819 190.564 301.049C190.674 301.104 190.795 301.133 190.919 301.133H199.231C199.41 301.133 199.589 301.111 199.763 301.067L207.066 299.241C207.813 299.054 208.604 299.273 209.148 299.818L211.241 301.911C211.451 302.121 211.701 302.286 211.977 302.396L222.103 306.446C222.379 306.557 222.629 306.722 222.839 306.932L224.131 308.224C225.344 309.437 224.757 311.51 223.089 311.907L206.39 315.883C204.726 316.279 203.022 316.479 201.312 316.479H186.445C184.926 316.479 183.415 316.257 181.96 315.821L181.346 315.637C176.311 314.126 172.486 310.012 171.346 304.881C171.116 303.847 171 302.791 171 301.731V298.651C171 294.542 172.155 290.516 174.332 287.031L174.736 286.385C175.893 284.535 177.319 282.867 178.969 281.437Z" fill="#1933E8"/>
<path d="M260.761 278.886L240.741 285.559C240.305 285.704 239.944 286.017 239.739 286.428C239.311 287.284 239.658 288.325 240.514 288.753L245.541 291.267L250.501 294.243C250.842 294.447 251.232 294.555 251.629 294.555H256.331C256.445 294.555 256.559 294.541 256.669 294.514C259.416 293.827 262.307 293.992 264.958 294.986L269.47 296.678C269.594 296.724 269.714 296.782 269.828 296.851L274.515 299.663C274.929 299.911 275.369 300.113 275.827 300.266L276.923 300.632C277.886 300.952 278.936 300.878 279.844 300.424L280.125 300.283C281.666 299.513 282.406 297.726 281.862 296.092C281.764 295.8 281.628 295.522 281.458 295.266L280.98 294.549C280.025 293.117 278.713 291.958 277.173 291.188L276.063 290.634C275.447 290.325 274.81 290.061 274.156 289.843L272.292 289.222C271.997 289.124 271.695 289.052 271.387 289.009L268.517 288.598C268.133 288.544 268.174 287.978 268.561 287.978H270.232C272.737 287.978 275.208 288.562 277.449 289.682L279.587 290.751C280.267 291.091 280.865 291.574 281.339 292.167L283.067 294.327C284.1 295.618 286.026 295.725 287.196 294.555C287.801 293.95 287.801 292.968 287.196 292.363L282.772 287.94C281.351 286.519 279.657 285.401 277.791 284.655L277.396 284.497C275.904 283.9 274.312 283.594 272.706 283.594H271.048C270.534 283.594 270.277 282.973 270.64 282.61C270.714 282.536 270.807 282.484 270.908 282.459L271.058 282.421C273.691 281.763 276.472 282.068 278.899 283.282L279.523 283.594L284.12 286.352C284.707 286.704 285.248 287.127 285.732 287.61L288.09 289.969C288.886 290.764 290.062 291.042 291.13 290.686C292.093 290.365 292.826 289.574 293.072 288.589L293.157 288.251C293.526 286.773 292.927 285.222 291.659 284.377L290.484 283.594L287.327 281.339C284.363 279.221 280.918 277.876 277.304 277.424L276.489 277.322C274.862 277.119 273.219 277.099 271.588 277.262L265.512 277.869C263.896 278.031 262.302 278.372 260.761 278.886Z" fill="#1933E8"/>
<path d="M302.542 277.925V280.116C302.542 281.665 304.217 282.637 305.562 281.868L308.605 280.129C309.661 279.526 310.855 279.209 312.071 279.209C313.705 279.209 315.288 279.782 316.544 280.828L319.55 283.333C320.608 284.215 321.358 285.41 321.692 286.745C322.067 288.248 321.893 289.836 321.2 291.222L320.465 292.691C319.5 294.622 317.985 296.223 316.112 297.294L311.758 299.781C311.464 299.95 311.207 300.176 311.004 300.448L309.339 302.667C308.797 303.39 309.312 304.421 310.216 304.421H313.056C316.199 304.421 319.264 303.439 321.822 301.612C324.26 299.87 326.124 297.442 327.177 294.636L327.624 293.442C328.435 291.279 328.851 288.987 328.851 286.677V283.261C328.851 279.934 327.685 276.713 325.555 274.158L325.289 273.838C324.028 272.325 322.426 271.131 320.615 270.355C317.474 269.009 313.919 269.009 310.778 270.355L310.402 270.516C308.831 271.189 307.402 272.157 306.193 273.366L303.185 276.374C302.773 276.785 302.542 277.343 302.542 277.925Z" fill="#1933E8"/>
<path d="M308.023 282.497L300.35 286.882L291.881 293.234C291.682 293.383 291.51 293.565 291.372 293.772L289.631 296.383C289.471 296.624 289.264 296.83 289.023 296.991L280.075 302.957C279.715 303.197 279.292 303.325 278.859 303.325H275.619C275.302 303.325 274.989 303.256 274.701 303.123L261.442 297.004C261.079 296.836 260.678 296.771 260.281 296.815L251.815 297.756C251.303 297.813 250.786 297.687 250.357 297.401L247.733 295.652L235.675 289.075L220.81 283.5C219.035 282.835 217.181 282.402 215.294 282.213L209.628 281.647C207.997 281.484 206.353 281.504 204.727 281.707L203.074 281.914C200.021 282.295 197.133 283.515 194.73 285.437L193.865 286.129C193.24 286.629 192.688 287.212 192.223 287.863L191.377 289.048C189.17 292.137 189.764 296.412 192.728 298.784C192.855 298.885 193.012 298.94 193.174 298.94H199.284C199.428 298.94 199.572 298.926 199.714 298.898L204.982 297.844L208.543 296.954C209.073 296.821 209.633 296.891 210.114 297.15L223.617 304.421L242.252 313.191L248.746 316.143C252.386 317.797 256.409 318.425 260.38 317.957L272.722 316.505C272.87 316.488 273.017 316.455 273.159 316.408L301.966 306.806C302.343 306.68 302.679 306.454 302.938 306.152L307.385 300.964C308.537 299.62 309.848 298.42 311.288 297.391L315.58 294.326C316.382 293.753 317.073 293.039 317.62 292.219L318.084 291.522C318.672 290.641 318.985 289.606 318.985 288.547C318.985 286.814 318.149 285.188 316.739 284.181L314.528 282.602C312.592 281.219 310.003 281.178 308.023 282.497Z" fill="#1933E8"/>
</g>
</svg>
