<svg width="500" height="500" viewBox="0 0 500 500" fill="none" xmlns="http://www.w3.org/2000/svg">
<mask id="mask0_1_88" style="mask-type:alpha" maskUnits="userSpaceOnUse" x="0" y="0" width="500" height="500">
<circle cx="250" cy="250" r="250" fill="#D9D9D9"/>
</mask>
<g mask="url(#mask0_1_88)">
<path fill-rule="evenodd" clip-rule="evenodd" d="M497.131 288H420.863C407.807 346.969 365.002 394.754 309 414.805V411.614C363.34 391.771 404.866 345.303 417.788 288H343.085L305 234.5V213H418.011C403.917 148.711 353.864 97.886 290 82.6755V79.5924C355.524 94.9132 406.886 147.05 421.081 213H497.281C479.401 92.4741 375.5 0 250 0C124.5 0 20.5994 92.4741 2.71906 213H78.9189C95.8974 134.12 166.045 75 250 75C253.695 75 257.362 75.1145 261 75.3401V78.3461C257.363 78.1165 253.695 78 250 78C167.709 78 98.9156 135.79 81.9895 213H216.5V234.5L166.754 288H82.2119C95.055 344.951 136.151 391.2 190 411.245V414.444C134.489 394.184 92.1158 346.617 79.1373 288H2.86948C21.1746 408.037 124.848 500 250 500C375.152 500 478.825 408.037 497.131 288ZM196.55 433H218.05V428.15H204.95L210.5 422.05C214.95 417.15 216.9 414.55 216.9 410.2C216.9 403.9 212.05 400.85 206.7 400.85C203.65 400.85 200.6 401.5 197.6 403.3V408.05C200.25 406.45 203.4 405.5 205.85 405.5C209.55 405.5 211.85 407.2 211.85 411.05C211.85 414 209.95 416.25 206.4 420.25L196.55 431.25V433ZM245.171 417.4C245.171 423.8 242.571 429.2 236.321 429.2C230.071 429.2 227.471 423.75 227.471 417.35C227.471 410.95 230.071 405.55 236.321 405.55C242.571 405.55 245.171 411 245.171 417.4ZM222.121 417.35C222.121 426.45 227.271 433.85 236.321 433.85C245.371 433.85 250.521 426.5 250.521 417.4C250.521 408.3 245.371 400.85 236.321 400.85C227.271 400.85 222.121 408.25 222.121 417.35ZM266.707 428.6V401.4H256.257L255.107 406.25H261.757V428.6H255.507V433H272.957V428.6H266.707ZM281.858 411.7C281.858 408.1 284.758 405.35 288.608 405.35C292.908 405.35 295.708 408.55 296.258 412.9C295.358 415.6 291.958 417.9 288.658 417.9C284.608 417.9 281.858 415.5 281.858 411.7ZM301.458 415.8C301.458 406.5 296.608 400.85 288.308 400.85C281.608 400.85 276.508 405.4 276.508 411.9C276.508 418.05 281.108 422.05 287.258 422.05C290.858 422.05 294.108 420.7 296.108 418.7C295.708 424.45 292.258 429.25 285.808 429.25C283.408 429.25 281.058 428.55 278.908 427.15V431.85C281.058 433.2 283.458 433.85 286.358 433.85C296.008 433.85 301.458 425.8 301.458 415.8ZM374.35 252.8V261.275C376 261.425 377.65 261.425 379.075 261.425C388.9 261.425 398.5 256.85 398.5 244.4C398.5 235.25 393.325 227.6 379.375 227.6H360.7V275H370.825V236.45H378.775C386.05 236.45 387.925 239.9 387.925 244.175C387.925 250.55 383.5 252.875 377.65 252.875C376.825 252.875 375.625 252.875 374.35 252.8ZM415.796 275V227.6H405.671V275H415.796ZM417.821 250.475L435.596 275H448.796L430.271 249.425L446.471 227.6H434.621L417.821 250.475ZM58.35 262.775V271.625C45.825 270.275 38.25 261.65 38.25 250.775C38.25 239.9 45.9 231.65 58.35 230.375V239.3C52.35 240.5 48.6 244.925 48.6 251C48.6 257.15 52.35 261.575 58.35 262.775ZM72 225.95V276.875H61.875V225.95H72ZM75.525 271.625V262.775C81.525 261.575 85.275 257.15 85.275 251C85.275 244.925 81.525 240.5 75.525 239.3V230.375C87.975 231.65 95.625 239.9 95.625 250.775C95.625 261.65 88.05 270.275 75.525 271.625ZM113.715 227.6V275H103.59V227.6H113.715ZM133.515 275L115.74 250.475L132.54 227.6H144.39L128.19 249.425L146.715 275H133.515ZM228.071 133.429L227.078 138.394C226.966 138.95 227.044 139.528 227.297 140.035C227.729 140.899 228.612 141.445 229.578 141.445H267.543C270.384 141.445 273.197 142.022 275.809 143.141C278.262 144.193 280.493 145.703 282.381 147.591L284.899 150.109C286.426 151.636 287.774 153.331 288.918 155.162L289.124 155.491C291.457 159.224 292.841 163.472 293.155 167.862L293.338 170.421C293.621 174.389 292.652 178.345 290.568 181.732C287.11 187.35 280.985 190.773 274.388 190.773H271.345C269.495 190.773 267.651 190.563 265.849 190.147L259.859 188.765C256.172 187.914 252.4 187.484 248.616 187.484H227.117C226.254 187.484 225.398 187.649 224.596 187.97C222.019 189.001 220.329 191.497 220.329 194.273V202.439C220.329 203.942 221.404 205.238 222.878 205.533C224.51 205.86 226.127 204.85 226.531 203.235C226.767 202.29 227.432 201.509 228.328 201.126L232.333 199.409C233.815 198.774 235.411 198.446 237.023 198.446H263.735C268.992 198.446 274.097 200.212 278.23 203.459L282.255 206.622C285.375 209.073 287.196 212.821 287.196 216.789V218.27C287.196 219.644 286.823 220.992 286.116 222.171C284.746 224.454 282.278 225.851 279.616 225.851H228.213C227.35 225.851 226.494 226.016 225.692 226.336L224.022 227.005C222.454 227.632 221.425 229.151 221.425 230.84C221.425 233.393 223.717 235.335 226.235 234.915L252.156 230.595C253.59 230.356 255.041 230.236 256.495 230.236H261.984L278.427 232.428L294.222 235.39C295.313 235.594 296.435 235.247 297.221 234.462C297.823 233.859 298.175 233.051 298.204 232.199L301.212 144.964C301.367 140.471 300.615 135.994 299.001 131.798L298.405 130.248C296.804 126.085 294.193 122.386 290.806 119.483L289.894 118.701C288.83 117.789 287.659 117.012 286.406 116.385L283.218 114.791C280.868 113.616 278.127 113.502 275.687 114.478C274.6 114.913 273.441 115.136 272.27 115.136H270.754C268.581 115.136 266.429 114.722 264.412 113.915L261.984 112.944C259.188 111.546 255.936 111.375 253.009 112.473L248.83 114.04L239.842 118.942C237.806 120.053 235.939 121.45 234.298 123.09L232.804 124.585C230.388 127.001 228.741 130.078 228.071 133.429ZM238.868 202.831C238.868 202.279 238.42 201.831 237.868 201.831C237.316 201.831 236.868 202.279 236.868 202.831V208.408H231.195V204.71C231.195 204.158 230.747 203.71 230.195 203.71C229.642 203.71 229.195 204.158 229.195 204.71V209.408V217.864V222.562C229.195 223.115 229.642 223.562 230.195 223.562C230.747 223.562 231.195 223.115 231.195 222.562V218.864H236.868V222.562C236.868 223.115 237.316 223.562 237.868 223.562C238.42 223.562 238.868 223.115 238.868 222.562V218.864H248.926V222.562C248.926 223.115 249.374 223.562 249.926 223.562C250.478 223.562 250.926 223.115 250.926 222.562V218.864H264.273V222.562C264.273 223.115 264.72 223.562 265.273 223.562C265.825 223.562 266.273 223.115 266.273 222.562V218.864H277.427V222.562C277.427 223.115 277.875 223.562 278.427 223.562C278.979 223.562 279.427 223.115 279.427 222.562V218.864H280.619C281.171 218.864 281.619 218.417 281.619 217.864C281.619 217.312 281.171 216.864 280.619 216.864H279.427V209.408V207.216C279.427 206.663 278.979 206.216 278.427 206.216C277.875 206.216 277.427 206.663 277.427 207.216V208.408H266.273V202.831C266.273 202.279 265.825 201.831 265.273 201.831C264.72 201.831 264.273 202.279 264.273 202.831V208.408H250.926V202.831C250.926 202.279 250.478 201.831 249.926 201.831C249.374 201.831 248.926 202.279 248.926 202.831V208.408H238.868V202.831ZM231.195 210.408H236.868V216.864H231.195V210.408ZM248.926 216.864H238.868V210.408H248.926V216.864ZM250.926 216.864V210.408H264.273V216.864H250.926ZM266.273 216.864V210.408H277.427V216.864H266.273ZM263.619 110.463L263.344 110.05C262.622 108.967 263.012 107.497 264.176 106.915L264.626 106.69C265.772 106.117 267.036 105.818 268.318 105.818C269.205 105.818 270.086 105.962 270.928 106.242L272.946 106.915L275.386 107.728C275.929 107.909 276.378 108.299 276.634 108.811L276.83 109.202C277.129 109.8 277.012 110.522 276.539 110.995C276.34 111.194 276.09 111.335 275.817 111.404L273.199 112.058C272.303 112.282 271.383 112.396 270.459 112.396H269.653C268.928 112.396 268.205 112.307 267.502 112.131L265.152 111.543C264.524 111.386 263.977 111.001 263.619 110.463ZM276.294 78.1916L277.347 77.4893C278.055 77.0176 278.627 76.3694 279.007 75.6089C279.346 74.9304 279.523 74.1822 279.523 73.4236V72.7166C279.523 71.1396 278.735 69.6669 277.423 68.7922C276.648 68.2756 275.738 68 274.806 68H273.922C273.275 68 272.633 68.1042 272.02 68.3086L271.983 68.3211C270.494 68.8174 269.263 69.8848 268.561 71.2886C267.883 72.6443 267.984 74.2593 268.825 75.5204L269.338 76.2902C269.55 76.6089 269.794 76.9059 270.065 77.1769L270.506 77.6185C271.366 78.4786 272.533 78.9619 273.75 78.9619C274.655 78.9619 275.54 78.6938 276.294 78.1916ZM276.234 99.6414V84.1793C276.234 83.0457 275.463 82.0576 274.363 81.7826C272.995 81.4405 271.618 82.3117 271.342 83.6948L268.309 98.8566C267.853 101.136 269.43 103.324 271.737 103.612C274.125 103.91 276.234 102.048 276.234 99.6414ZM198.49 147.029C201.726 144.198 205.897 142.669 210.196 142.739L266.217 143.642C270.095 143.705 273.88 144.84 277.153 146.923L280.623 149.131C283.265 150.812 285.497 153.062 287.157 155.718L287.602 156.43C289.419 159.337 290.496 162.644 290.74 166.064L291.063 170.583C291.351 174.608 290.244 178.61 287.93 181.916L287.794 182.111C284.983 186.127 280.579 188.739 275.707 189.28C273.843 189.487 271.957 189.385 270.125 188.978L262.863 187.364L262.813 187.353L262.764 187.337L259.266 186.171C257.329 185.525 255.3 185.196 253.258 185.196H220.329H215.646C212.077 185.196 208.567 184.286 205.447 182.553L203.68 181.571C201.208 180.198 199.038 178.339 197.302 176.107L195.704 174.052C193.254 170.902 191.924 167.026 191.924 163.036C191.924 161.727 192.068 160.421 192.352 159.143L192.978 156.324C193.779 152.718 195.711 149.462 198.49 147.029ZM210.164 144.738C206.361 144.677 202.67 146.03 199.807 148.535C197.348 150.687 195.639 153.567 194.931 156.757L194.304 159.577C194.052 160.713 193.924 161.873 193.924 163.036C193.924 166.581 195.106 170.026 197.283 172.824L198.881 174.879C200.452 176.899 202.415 178.58 204.651 179.823L206.419 180.805C209.241 182.373 212.417 183.196 215.646 183.196H220.329H253.258C255.515 183.196 257.757 183.56 259.898 184.273L263.348 185.423L270.559 187.026C272.176 187.385 273.841 187.475 275.486 187.292C279.787 186.814 283.674 184.509 286.155 180.964L286.292 180.769C288.343 177.839 289.323 174.293 289.068 170.725L288.745 166.206C288.525 163.113 287.55 160.12 285.906 157.49L285.461 156.778C283.959 154.375 281.939 152.339 279.549 150.818L276.079 148.61C273.118 146.726 269.694 145.698 266.185 145.642L210.164 144.738ZM212.074 149.618C211.092 149.618 210.124 149.846 209.246 150.286C208.783 150.517 208.351 150.804 207.958 151.14L206.973 151.985C203.244 155.182 201.098 159.848 201.098 164.759V166.542C201.098 167.982 201.433 169.402 202.077 170.689C202.798 172.132 203.884 173.362 205.227 174.258L206.141 174.867C208.343 176.335 210.931 177.119 213.578 177.119H267.227C269.438 177.119 271.604 176.497 273.479 175.326C276.928 173.17 279.023 169.39 279.023 165.323V159.892C279.023 158.039 278.287 156.262 276.977 154.952L275.101 153.076C274.203 152.179 273.167 151.432 272.032 150.864C270.393 150.045 268.585 149.618 266.752 149.618H212.074ZM208.799 149.391C209.816 148.883 210.937 148.618 212.074 148.618H266.752C268.74 148.618 270.701 149.081 272.479 149.97C273.711 150.585 274.835 151.396 275.808 152.369L277.684 154.245C279.182 155.743 280.023 157.774 280.023 159.892V165.323C280.023 169.735 277.75 173.835 274.009 176.174C271.975 177.445 269.625 178.119 267.227 178.119H213.578C210.734 178.119 207.953 177.277 205.586 175.699L204.672 175.09C203.185 174.098 201.982 172.735 201.182 171.136C200.469 169.71 200.098 168.137 200.098 166.542V164.759C200.098 159.556 202.371 154.612 206.322 151.226L207.308 150.381C207.762 149.991 208.263 149.659 208.799 149.391ZM215.807 163.04C213.815 164.633 212.656 167.045 212.656 169.596V170.71C212.656 171.641 212.931 172.551 213.448 173.326C214.323 174.638 215.795 175.426 217.372 175.426H236.44C237.371 175.426 238.281 175.151 239.056 174.634C240.368 173.759 241.156 172.287 241.156 170.71V170.143C241.156 168.613 240.549 167.145 239.466 166.063C239.133 165.729 238.76 165.438 238.355 165.195L234.706 163.006C233.906 162.526 232.99 162.272 232.057 162.272H230.293C228.423 162.272 226.906 163.789 226.906 165.66V165.979C226.906 167.066 226.292 168.06 225.32 168.546L225.197 168.607C224.879 168.766 224.529 168.849 224.173 168.849C223.187 168.849 222.311 168.218 221.999 167.283L221.425 165.561L220.696 162.643C220.48 161.781 219.705 161.176 218.816 161.176C218.376 161.176 217.949 161.326 217.606 161.6L215.807 163.04ZM246.089 163.916C245.037 164.969 244.445 166.397 244.445 167.886V172.557C244.445 173.002 244.549 173.441 244.748 173.84C245.234 174.812 246.228 175.426 247.315 175.426H267.792C269.709 175.426 271.569 174.774 273.066 173.576L274.855 172.145C275.727 171.448 276.234 170.392 276.234 169.275C276.234 168.301 275.847 167.366 275.158 166.677L274.042 165.561L273.024 164.542C271.57 163.089 269.599 162.272 267.543 162.272H262.467C260.99 162.272 259.792 163.47 259.792 164.948C259.792 165.908 259.277 166.794 258.444 167.27L258.136 167.447C257.784 167.647 257.386 167.753 256.982 167.753C256.031 167.753 255.175 167.174 254.822 166.291L254.311 165.013C253.649 163.357 252.046 162.272 250.263 162.272H249.814C248.482 162.272 247.204 162.801 246.263 163.743L246.089 163.916ZM211.152 246.645L198.643 260.048C197.899 260.845 197.92 262.088 198.691 262.859C199.194 263.362 199.923 263.564 200.613 263.392L208.271 261.477L215.944 259.285L226.906 255.996L241.156 253.804L253.669 252.97C256.285 252.795 258.911 252.827 261.522 253.064L269.657 253.804L283.207 256.195C286.588 256.792 289.899 257.735 293.087 259.01L296.044 260.193C298.179 261.047 300.394 261.684 302.656 262.095L310.249 263.476C310.947 263.603 311.665 263.552 312.338 263.328C315.069 262.417 316.106 259.099 314.378 256.795L311.633 253.135C311.42 252.85 311.186 252.581 310.935 252.33L306.997 248.393C301.899 243.294 295.732 239.392 288.942 236.966C285.596 235.771 282.129 234.946 278.603 234.506L266.369 232.976L261.227 232.509C256.638 232.092 252.014 232.311 247.485 233.16L236.772 235.169L232.637 235.858C226.699 236.847 221.058 239.153 216.126 242.605L214.461 243.77C213.261 244.611 212.152 245.574 211.152 246.645ZM313.623 266.153L298.804 263.862L283.908 259.477L276.412 257.336C276.294 257.302 276.173 257.278 276.051 257.265L266.369 256.189L259.896 255.727C253.99 255.305 248.059 255.362 242.162 255.898L238.964 256.189L229.098 258.381L206.608 264.248C204.801 264.72 202.941 264.958 201.074 264.958H197.471C196.199 264.958 195.194 266.038 195.284 267.307L196.041 277.903C196.133 279.191 197.314 280.121 198.588 279.909L200.677 279.561C201.852 279.365 202.655 278.267 202.487 277.088L201.973 273.493C201.814 272.381 202.522 271.328 203.612 271.056L206.078 270.439L218.137 266.055C226.122 263.877 234.37 262.599 242.64 262.268L257.599 261.67L263.27 262.048C270.396 262.523 277.382 264.25 283.908 267.151L295.563 271.036C296.458 271.334 297.062 272.172 297.062 273.116V273.728L296.338 282.422C296.194 284.15 298.159 285.237 299.547 284.197C300.053 283.817 300.351 283.221 300.351 282.589V275.732C300.351 275.151 300.582 274.593 300.993 274.182L304.735 270.439C306.161 269.013 307.997 268.069 309.986 267.737L313.464 267.158C313.491 267.153 313.519 267.151 313.546 267.151C314.166 267.151 314.236 266.247 313.623 266.153ZM201.549 368H299.622C300.68 368 301.586 367.246 301.778 366.206L312.238 309.6C312.438 308.518 311.805 307.456 310.759 307.116L306.955 305.882C306.254 305.654 305.485 305.795 304.909 306.255L300.656 309.658C300.454 309.819 300.225 309.944 299.98 310.026L291.742 312.771C290.969 313.029 290.403 313.695 290.272 314.499L283.169 358.134C282.972 359.34 281.827 360.153 280.624 359.941L264.176 357.038L247.734 355.942L230.195 357.038L219.233 359.23L212.982 360.793C211.665 361.122 210.368 360.188 210.264 358.835L207.259 319.765C207.211 319.148 206.697 318.672 206.078 318.672L198.301 319.536C197.134 319.665 196.276 320.692 196.356 321.864L199.362 365.957C199.44 367.107 200.396 368 201.549 368ZM178.969 281.437L189.296 272.488C190.716 271.257 192.924 272.266 192.924 274.144V282.007C192.924 282.325 192.819 282.634 192.625 282.886L187.826 289.125C184.787 293.076 186.105 298.819 190.564 301.049C190.675 301.104 190.796 301.133 190.919 301.133H199.231C199.411 301.133 199.589 301.111 199.763 301.067L207.067 299.241C207.814 299.054 208.604 299.273 209.149 299.818L211.241 301.911C211.451 302.121 211.702 302.286 211.977 302.396L222.103 306.446C222.379 306.557 222.63 306.722 222.839 306.932L224.132 308.224C225.345 309.437 224.758 311.51 223.089 311.907L206.39 315.883C204.726 316.279 203.022 316.479 201.312 316.479H186.446C184.927 316.479 183.415 316.257 181.96 315.821L181.347 315.637C176.312 314.126 172.487 310.012 171.346 304.881C171.116 303.847 171 302.791 171 301.731V298.651C171 294.542 172.155 290.516 174.333 287.031L174.737 286.385C175.893 284.535 177.32 282.867 178.969 281.437ZM240.741 285.559L260.761 278.886C262.302 278.372 263.896 278.031 265.513 277.869L271.588 277.262C273.219 277.099 274.863 277.119 276.489 277.322L277.304 277.424C280.919 277.876 284.364 279.221 287.328 281.339L290.485 283.594L291.66 284.377C292.927 285.222 293.527 286.773 293.157 288.251L293.073 288.589C292.826 289.574 292.094 290.365 291.13 290.686C290.063 291.042 288.886 290.764 288.091 289.969L285.732 287.61C285.249 287.127 284.707 286.704 284.121 286.352L279.523 283.594L278.899 283.282C276.472 282.068 273.691 281.763 271.059 282.421L270.908 282.459C270.807 282.484 270.715 282.536 270.641 282.61C270.278 282.973 270.535 283.594 271.048 283.594H272.706C274.313 283.594 275.905 283.9 277.396 284.497L277.791 284.655C279.657 285.401 281.352 286.519 282.773 287.94L287.196 292.363C287.802 292.968 287.802 293.95 287.196 294.555C286.027 295.725 284.1 295.618 283.067 294.327L281.34 292.167C280.865 291.574 280.267 291.091 279.588 290.751L277.449 289.682C275.209 288.562 272.738 287.978 270.233 287.978H268.561C268.174 287.978 268.134 288.544 268.517 288.598L271.388 289.009C271.695 289.052 271.998 289.124 272.293 289.222L274.156 289.843C274.81 290.061 275.448 290.325 276.064 290.634L277.173 291.188C278.713 291.958 280.025 293.117 280.98 294.549L281.458 295.266C281.629 295.522 281.765 295.8 281.862 296.091C282.407 297.726 281.667 299.513 280.126 300.283L279.844 300.424C278.937 300.878 277.886 300.952 276.924 300.632L275.827 300.266C275.369 300.113 274.929 299.911 274.516 299.663L269.829 296.851C269.715 296.782 269.595 296.724 269.47 296.678L264.959 294.986C262.308 293.992 259.417 293.827 256.67 294.514C256.559 294.541 256.445 294.555 256.331 294.555H251.629C251.232 294.555 250.842 294.447 250.501 294.243L245.541 291.267L240.514 288.753C239.658 288.325 239.311 287.284 239.739 286.428C239.945 286.017 240.305 285.704 240.741 285.559ZM302.543 277.925V280.116C302.543 281.665 304.217 282.637 305.563 281.868L308.605 280.129C309.661 279.526 310.856 279.209 312.072 279.209C313.706 279.209 315.289 279.782 316.544 280.828L319.55 283.333C320.608 284.215 321.358 285.41 321.692 286.745C322.068 288.248 321.893 289.836 321.201 291.222L320.466 292.691C319.501 294.622 317.986 296.223 316.112 297.294L311.759 299.781C311.464 299.95 311.207 300.176 311.004 300.448L309.339 302.667C308.797 303.39 309.313 304.421 310.216 304.421H313.057C316.2 304.421 319.264 303.439 321.822 301.612C324.261 299.87 326.125 297.442 327.177 294.636L327.625 293.442C328.436 291.279 328.851 288.987 328.851 286.677V283.261C328.851 279.934 327.685 276.713 325.556 274.158L325.289 273.838C324.028 272.325 322.427 271.131 320.616 270.355C317.475 269.009 313.92 269.009 310.779 270.355L310.403 270.516C308.831 271.189 307.403 272.157 306.194 273.366L303.185 276.374C302.774 276.785 302.543 277.343 302.543 277.925ZM300.351 286.882L308.024 282.497C310.003 281.178 312.593 281.219 314.529 282.602L316.739 284.181C318.149 285.188 318.986 286.814 318.986 288.547C318.986 289.606 318.672 290.641 318.085 291.522L317.62 292.219C317.073 293.039 316.382 293.753 315.581 294.326L311.289 297.391C309.848 298.42 308.538 299.62 307.386 300.964L302.938 306.152C302.68 306.454 302.344 306.68 301.967 306.806L273.159 316.408C273.017 316.455 272.871 316.488 272.722 316.505L260.381 317.957C256.41 318.425 252.387 317.797 248.747 316.143L242.253 313.191L223.617 304.421L210.115 297.15C209.634 296.891 209.073 296.821 208.543 296.954L204.982 297.844L199.714 298.898C199.573 298.926 199.429 298.94 199.284 298.94H193.175C193.013 298.94 192.855 298.885 192.728 298.784C189.764 296.412 189.171 292.137 191.377 289.048L192.224 287.863C192.688 287.212 193.241 286.629 193.865 286.129L194.73 285.437C197.133 283.515 200.021 282.295 203.075 281.914L204.728 281.707C206.354 281.504 207.998 281.484 209.628 281.647L215.294 282.213C217.181 282.402 219.035 282.835 220.811 283.5L235.676 289.075L247.734 295.652L250.358 297.401C250.787 297.687 251.303 297.813 251.816 297.756L260.281 296.815C260.678 296.771 261.079 296.836 261.442 297.004L274.701 303.123C274.989 303.256 275.303 303.325 275.62 303.325H278.859C279.292 303.325 279.715 303.197 280.075 302.957L289.024 296.991C289.265 296.831 289.471 296.624 289.632 296.383L291.373 293.772C291.511 293.565 291.683 293.383 291.882 293.234L300.351 286.882Z" fill="#272727"/>
<circle cx="250" cy="250" r="247.5" stroke="#272727" stroke-width="5"/>
</g>
</svg>
