<svg width="2052" height="2557" viewBox="0 0 2052 2557" fill="none" xmlns="http://www.w3.org/2000/svg">
<rect y="4" width="2048" height="2549" fill="#4B62FF"/>
<path d="M274.14 952V891.328H326.172V952H313.212V903.04H287.1V952H274.14ZM369.596 953.728C350.492 953.728 337.532 940.672 337.34 921.952C337.532 903.136 350.492 890.272 369.596 890.272C388.892 890.272 401.564 903.136 401.756 921.952C401.564 940.672 388.892 953.728 369.596 953.728ZM369.596 941.632C380.252 941.632 388.22 934.144 388.22 921.952C388.22 909.76 380.252 902.176 369.596 902.176C358.94 902.176 351.068 909.76 351.068 921.952C351.068 934.144 358.94 941.632 369.596 941.632ZM412.89 952V891.328H464.922V952H451.962V903.04H425.85V952H412.89ZM492.506 902.656V923.104C494.81 923.584 498.938 923.68 501.242 923.68C508.73 923.68 514.394 920.704 514.394 912.544C514.394 907.072 511.994 902.656 502.682 902.656H492.506ZM492.506 933.76V952H479.546V891.328H503.45C521.306 891.328 527.93 901.12 527.93 912.832C527.93 928.768 515.642 934.624 503.066 934.624C499.898 934.624 495.482 934.432 492.506 933.76ZM537.23 952H523.79L553.742 891.328H557.294L588.014 952H573.902L568.91 941.344H542.126L537.23 952ZM564.206 931.168L555.47 912.448L546.83 931.168H564.206ZM594.39 951.808V891.328C601.206 891.04 608.694 890.848 615.894 890.848C632.79 890.848 640.374 896.8 640.374 905.92C640.374 912.352 637.206 917.152 631.446 919.744C638.454 921.664 642.678 926.272 642.678 934.048C642.678 946.144 631.734 952.288 615.222 952.288C606.198 952.288 599.19 952.096 594.39 951.808ZM616.278 926.08H607.35V941.536C610.23 941.728 613.014 941.92 615.702 941.92C624.63 941.92 629.142 939.328 629.142 933.568C629.142 928.384 624.438 926.08 616.278 926.08ZM615.222 901.216C612.246 901.216 609.654 901.312 607.35 901.408V916.192H615.894C622.23 916.192 626.742 913.6 626.742 908.32C626.742 903.616 622.422 901.216 615.222 901.216ZM653.827 952V891.328H666.787V916.576H669.763L690.883 891.328H706.051L680.995 920.608L709.027 952H692.131L669.955 926.464H666.787V952H653.827ZM738.596 953.728C719.492 953.728 706.532 940.672 706.34 921.952C706.532 903.136 719.492 890.272 738.596 890.272C757.892 890.272 770.564 903.136 770.756 921.952C770.564 940.672 757.892 953.728 738.596 953.728ZM738.596 941.632C749.252 941.632 757.22 934.144 757.22 921.952C757.22 909.76 749.252 902.176 738.596 902.176C727.94 902.176 720.068 909.76 720.068 921.952C720.068 934.144 727.94 941.632 738.596 941.632ZM274.14 1053V992.328H287.1V1017.58H290.076L311.196 992.328H326.364L301.308 1021.61L329.34 1053H312.444L290.268 1027.46H287.1V1053H274.14ZM347.1 1003.66V1024.1C349.404 1024.58 353.532 1024.68 355.836 1024.68C363.324 1024.68 368.988 1021.7 368.988 1013.54C368.988 1008.07 366.588 1003.66 357.276 1003.66H347.1ZM347.1 1034.76V1053H334.14V992.328H358.044C375.9 992.328 382.524 1002.12 382.524 1013.83C382.524 1029.77 370.236 1035.62 357.66 1035.62C354.492 1035.62 350.076 1035.43 347.1 1034.76ZM391.824 1053H378.384L408.336 992.328H411.888L442.608 1053H428.496L423.504 1042.34H396.72L391.824 1053ZM418.8 1032.17L410.064 1013.45L401.424 1032.17H418.8ZM448.984 1052.81V992.328C455.799 992.04 463.288 991.848 470.488 991.848C487.384 991.848 494.968 997.8 494.968 1006.92C494.968 1013.35 491.8 1018.15 486.04 1020.74C493.048 1022.66 497.272 1027.27 497.272 1035.05C497.272 1047.14 486.328 1053.29 469.816 1053.29C460.792 1053.29 453.784 1053.1 448.984 1052.81ZM470.872 1027.08H461.944V1042.54C464.824 1042.73 467.608 1042.92 470.296 1042.92C479.224 1042.92 483.736 1040.33 483.736 1034.57C483.736 1029.38 479.032 1027.08 470.872 1027.08ZM469.816 1002.22C466.84 1002.22 464.248 1002.31 461.944 1002.41V1017.19H470.488C476.824 1017.19 481.336 1014.6 481.336 1009.32C481.336 1004.62 477.016 1002.22 469.816 1002.22ZM546.821 1041.48V992.328H559.781V1041.48H568.901V1064.33H556.421V1053H508.421V992.328H521.381V1041.48H546.821ZM607.44 1054.73C588.336 1054.73 575.376 1041.67 575.184 1022.95C575.376 1004.14 588.336 991.272 607.44 991.272C626.736 991.272 639.408 1004.14 639.6 1022.95C639.408 1041.67 626.736 1054.73 607.44 1054.73ZM607.44 1042.63C618.096 1042.63 626.064 1035.14 626.064 1022.95C626.064 1010.76 618.096 1003.18 607.44 1003.18C596.784 1003.18 588.912 1010.76 588.912 1022.95C588.912 1035.14 596.784 1042.63 607.44 1042.63ZM650.734 1052.81V992.328C657.549 992.04 665.038 991.848 672.238 991.848C689.134 991.848 696.718 997.8 696.718 1006.92C696.718 1013.35 693.55 1018.15 687.79 1020.74C694.798 1022.66 699.022 1027.27 699.022 1035.05C699.022 1047.14 688.078 1053.29 671.566 1053.29C662.542 1053.29 655.534 1053.1 650.734 1052.81ZM672.622 1027.08H663.694V1042.54C666.574 1042.73 669.358 1042.92 672.046 1042.92C680.974 1042.92 685.486 1040.33 685.486 1034.57C685.486 1029.38 680.782 1027.08 672.622 1027.08ZM671.566 1002.22C668.59 1002.22 665.998 1002.31 663.694 1002.41V1017.19H672.238C678.574 1017.19 683.086 1014.6 683.086 1009.32C683.086 1004.62 678.766 1002.22 671.566 1002.22ZM330.3 1122.51L310.14 1154.58L289.596 1122.51L284.508 1154H271.644L282.492 1093.33H285.756L310.14 1132.78L334.716 1093.33H337.884L348.828 1154H335.868L330.3 1122.51ZM383.617 1126.54L398.305 1093.33H412.225L389.377 1139.31C383.713 1150.74 377.473 1154.96 369.217 1154.96C366.337 1154.96 363.841 1154.58 361.441 1153.81V1142.77C363.169 1143.34 364.993 1143.73 366.721 1143.73C370.369 1143.73 373.825 1142.38 376.609 1139.12L352.321 1093.33H366.625L383.617 1126.54ZM414.875 1104.66V1093.33H465.755V1104.66H446.555V1154H434.075V1104.66H414.875ZM470.293 1154H456.852L486.805 1093.33H490.357L521.077 1154H506.965L501.973 1143.34H475.189L470.293 1154ZM497.269 1133.17L488.533 1114.45L479.893 1133.17H497.269ZM541.396 1093.33H584.404V1154H571.636V1104.85H553.396V1110.03C553.396 1145.65 547.156 1154.77 533.908 1154.77C531.796 1154.77 528.82 1154.58 527.188 1154.1L528.052 1143.82C528.532 1143.92 529.012 1143.92 529.78 1143.92C537.268 1143.92 541.396 1139.22 541.396 1105.9V1093.33ZM652.36 1093.33V1154H639.976V1117.81L603.304 1154H598.984V1093.33H611.368V1129.42L648.328 1093.33H652.36ZM679.912 1104.66V1116.94C683.08 1116.56 686.824 1116.18 690.28 1116.18C702.856 1116.18 715.432 1119.82 715.432 1134.9C715.432 1147.18 706.888 1154 692.968 1154H666.952V1093.33H710.728V1104.66H679.912ZM679.912 1127.22V1142.48H692.392C699.304 1142.48 701.992 1138.93 701.992 1134.42C701.992 1127.89 696.04 1126.35 689.896 1126.35C686.344 1126.35 682.6 1126.83 679.912 1127.22ZM754.44 1155.73C735.336 1155.73 722.376 1142.67 722.184 1123.95C722.376 1105.14 735.336 1092.27 754.44 1092.27C773.736 1092.27 786.408 1105.14 786.6 1123.95C786.408 1142.67 773.736 1155.73 754.44 1155.73ZM754.44 1143.63C765.096 1143.63 773.064 1136.14 773.064 1123.95C773.064 1111.76 765.096 1104.18 754.44 1104.18C743.784 1104.18 735.912 1111.76 735.912 1123.95C735.912 1136.14 743.784 1143.63 754.44 1143.63ZM797.734 1153.81V1093.33C804.549 1093.04 812.038 1092.85 819.238 1092.85C836.134 1092.85 843.718 1098.8 843.718 1107.92C843.718 1114.35 840.55 1119.15 834.79 1121.74C841.798 1123.66 846.022 1128.27 846.022 1136.05C846.022 1148.14 835.078 1154.29 818.566 1154.29C809.542 1154.29 802.534 1154.1 797.734 1153.81ZM819.622 1128.08H810.694V1143.54C813.574 1143.73 816.358 1143.92 819.046 1143.92C827.974 1143.92 832.486 1141.33 832.486 1135.57C832.486 1130.38 827.782 1128.08 819.622 1128.08ZM818.566 1103.22C815.59 1103.22 812.998 1103.31 810.694 1103.41V1118.19H819.238C825.574 1118.19 830.086 1115.6 830.086 1110.32C830.086 1105.62 825.766 1103.22 818.566 1103.22ZM306.492 1255V1234.26C302.268 1235.8 296.892 1237.05 291.516 1237.05C280.668 1237.05 269.724 1232.15 269.724 1215.16V1194.33H282.684V1212.66C282.684 1222.94 287.196 1225.05 294.876 1225.05C298.908 1225.05 303.612 1224.18 306.492 1222.94V1194.33H319.452V1255H306.492ZM357.086 1227.54L371.774 1194.33H385.694L362.846 1240.31C357.182 1251.74 350.942 1255.96 342.686 1255.96C339.806 1255.96 337.31 1255.58 334.91 1254.81V1243.77C336.638 1244.34 338.462 1244.73 340.19 1244.73C343.838 1244.73 347.294 1243.38 350.078 1240.12L325.79 1194.33H340.094L357.086 1227.54ZM403.631 1205.66V1226.1C405.935 1226.58 410.063 1226.68 412.367 1226.68C419.855 1226.68 425.519 1223.7 425.519 1215.54C425.519 1210.07 423.119 1205.66 413.807 1205.66H403.631ZM403.631 1236.76V1255H390.671V1194.33H414.575C432.431 1194.33 439.055 1204.12 439.055 1215.83C439.055 1231.77 426.767 1237.62 414.191 1237.62C411.023 1237.62 406.607 1237.43 403.631 1236.76ZM497.002 1238.78V1252.02C490.762 1255.38 484.138 1256.73 477.034 1256.73C458.122 1256.73 445.258 1243.1 445.258 1225.14C445.258 1206.04 458.602 1193.27 478.57 1193.27C484.81 1193.27 490.474 1194.52 496.522 1197.11V1209.59C490.954 1206.62 485.482 1205.75 479.626 1205.75C467.434 1205.75 459.466 1212.86 459.466 1225.14C459.85 1237.62 468.586 1244.25 478.762 1244.25C485.482 1244.25 492.01 1242.14 497.002 1238.78ZM560.578 1194.33V1255H548.194V1218.81L511.522 1255H507.202V1194.33H519.586V1230.42L556.546 1194.33H560.578ZM615.203 1218.71V1194.33H628.163V1255H615.203V1230.42H588.131V1255H575.171V1194.33H588.131V1218.71H615.203ZM306.492 1356V1335.26C302.268 1336.8 296.892 1338.05 291.516 1338.05C280.668 1338.05 269.724 1333.15 269.724 1316.16V1295.33H282.684V1313.66C282.684 1323.94 287.196 1326.05 294.876 1326.05C298.908 1326.05 303.612 1325.18 306.492 1323.94V1295.33H319.452V1356H306.492ZM334.046 1356V1295.33H379.55V1306.66H346.814V1319.71H375.518V1331.04H346.814V1344.67H379.934V1356H334.046ZM403.444 1306.66V1327.1C405.748 1327.58 409.876 1327.68 412.18 1327.68C419.668 1327.68 425.332 1324.7 425.332 1316.54C425.332 1311.07 422.932 1306.66 413.62 1306.66H403.444ZM403.444 1337.76V1356H390.484V1295.33H414.388C432.244 1295.33 438.868 1305.12 438.868 1316.83C438.868 1332.77 426.58 1338.62 414.004 1338.62C410.836 1338.62 406.42 1338.43 403.444 1337.76ZM488.078 1319.71V1295.33H501.038V1356H488.078V1331.42H461.006V1356H448.046V1295.33H461.006V1319.71H488.078ZM520.824 1356H507.384L537.336 1295.33H540.888L571.608 1356H557.496L552.504 1345.34H525.72L520.824 1356ZM547.8 1335.17L539.064 1316.45L530.424 1335.17H547.8ZM579.181 1367.33V1344.48H584.845C589.549 1333.73 591.757 1323.07 591.757 1302.24V1295.33H635.533V1344.48H642.637V1367.33H630.445V1356H591.373V1367.33H579.181ZM622.669 1306.85H604.045V1313.38C604.045 1326.14 601.933 1335.74 598.285 1344.48H622.669V1306.85ZM677.169 1344.48C684.561 1344.48 688.881 1341.41 688.881 1335.26C688.881 1328.64 684.369 1326.14 676.785 1326.14C673.137 1326.14 669.297 1326.62 666.225 1327.01V1344.48H677.169ZM653.265 1356V1295.33H666.225V1316.16C670.065 1315.49 674.001 1315.2 677.649 1315.2C691.185 1315.2 702.321 1320.38 702.321 1335.74C702.321 1346.88 694.545 1356 679.185 1356H653.265ZM712.515 1356V1295.33H758.019V1306.66H725.283V1319.71H753.987V1331.04H725.283V1344.67H758.403V1356H712.515ZM768.015 1355.81V1295.33C774.831 1295.04 782.319 1294.85 789.519 1294.85C806.415 1294.85 813.999 1300.8 813.999 1309.92C813.999 1316.35 810.831 1321.15 805.071 1323.74C812.079 1325.66 816.303 1330.27 816.303 1338.05C816.303 1350.14 805.359 1356.29 788.847 1356.29C779.823 1356.29 772.815 1356.1 768.015 1355.81ZM789.903 1330.08H780.975V1345.54C783.855 1345.73 786.639 1345.92 789.327 1345.92C798.255 1345.92 802.767 1343.33 802.767 1337.57C802.767 1332.38 798.063 1330.08 789.903 1330.08ZM788.847 1305.22C785.871 1305.22 783.279 1305.31 780.975 1305.41V1320.19H789.519C795.855 1320.19 800.367 1317.6 800.367 1312.32C800.367 1307.62 796.047 1305.22 788.847 1305.22ZM322.908 1440.78V1454.02C316.668 1457.38 310.044 1458.73 302.94 1458.73C284.028 1458.73 271.164 1445.1 271.164 1427.14C271.164 1408.04 284.508 1395.27 304.476 1395.27C310.716 1395.27 316.38 1396.52 322.428 1399.11V1411.59C316.86 1408.62 311.388 1407.75 305.532 1407.75C293.34 1407.75 285.372 1414.86 285.372 1427.14C285.756 1439.62 294.492 1446.25 304.668 1446.25C311.388 1446.25 317.916 1444.14 322.908 1440.78ZM386.485 1396.33V1457H374.101V1420.81L337.429 1457H333.109V1396.33H345.493V1432.42L382.453 1396.33H386.485ZM401.077 1456.81V1396.33C407.893 1396.04 415.381 1395.85 422.581 1395.85C439.477 1395.85 447.061 1401.8 447.061 1410.92C447.061 1417.35 443.893 1422.15 438.133 1424.74C445.141 1426.66 449.365 1431.27 449.365 1439.05C449.365 1451.14 438.421 1457.29 421.909 1457.29C412.885 1457.29 405.877 1457.1 401.077 1456.81ZM422.965 1431.08H414.037V1446.54C416.917 1446.73 419.701 1446.92 422.389 1446.92C431.317 1446.92 435.829 1444.33 435.829 1438.57C435.829 1433.38 431.125 1431.08 422.965 1431.08ZM421.909 1406.22C418.933 1406.22 416.341 1406.31 414.037 1406.41V1421.19H422.581C428.917 1421.19 433.429 1418.6 433.429 1413.32C433.429 1408.62 429.109 1406.22 421.909 1406.22ZM498.915 1445.48V1396.33H511.875V1445.48H520.995V1468.33H508.515V1457H460.515V1396.33H473.475V1445.48H498.915ZM530.734 1457V1396.33H576.238V1407.66H543.502V1420.71H572.206V1432.04H543.502V1445.67H576.622V1457H530.734ZM586.234 1456.81V1396.33C593.049 1396.04 600.538 1395.85 607.738 1395.85C624.634 1395.85 632.218 1401.8 632.218 1410.92C632.218 1417.35 629.05 1422.15 623.29 1424.74C630.298 1426.66 634.522 1431.27 634.522 1439.05C634.522 1451.14 623.578 1457.29 607.066 1457.29C598.042 1457.29 591.034 1457.1 586.234 1456.81ZM608.122 1431.08H599.194V1446.54C602.074 1446.73 604.858 1446.92 607.546 1446.92C616.474 1446.92 620.986 1444.33 620.986 1438.57C620.986 1433.38 616.282 1431.08 608.122 1431.08ZM607.066 1406.22C604.09 1406.22 601.498 1406.31 599.194 1406.41V1421.19H607.738C614.074 1421.19 618.586 1418.6 618.586 1413.32C618.586 1408.62 614.266 1406.22 607.066 1406.22ZM274.14 1558V1497.33H287.1V1522.58H290.076L311.196 1497.33H326.364L301.308 1526.61L329.34 1558H312.444L290.268 1532.46H287.1V1558H274.14ZM362.149 1530.54L376.837 1497.33H390.757L367.909 1543.31C362.245 1554.74 356.005 1558.96 347.749 1558.96C344.869 1558.96 342.373 1558.58 339.973 1557.81V1546.77C341.701 1547.34 343.525 1547.73 345.253 1547.73C348.901 1547.73 352.357 1546.38 355.141 1543.12L330.852 1497.33H345.157L362.149 1530.54ZM395.734 1558V1497.33H447.766V1558H434.806V1509.04H408.694V1558H395.734ZM475.35 1508.66V1529.1C477.654 1529.58 481.782 1529.68 484.086 1529.68C491.574 1529.68 497.238 1526.7 497.238 1518.54C497.238 1513.07 494.838 1508.66 485.526 1508.66H475.35ZM475.35 1539.76V1558H462.39V1497.33H486.294C504.15 1497.33 510.774 1507.12 510.774 1518.83C510.774 1534.77 498.486 1540.62 485.91 1540.62C482.742 1540.62 478.326 1540.43 475.35 1539.76ZM519.952 1558V1497.33H565.456V1508.66H532.72V1521.71H561.424V1533.04H532.72V1546.67H565.84V1558H519.952ZM575.452 1558V1497.33H620.956V1508.66H588.22V1521.71H616.924V1533.04H588.22V1546.67H621.34V1558H575.452ZM630.952 1557.81V1497.33C637.768 1497.04 645.256 1496.85 652.456 1496.85C669.352 1496.85 676.936 1502.8 676.936 1511.92C676.936 1518.35 673.768 1523.15 668.008 1525.74C675.016 1527.66 679.24 1532.27 679.24 1540.05C679.24 1552.14 668.296 1558.29 651.784 1558.29C642.76 1558.29 635.752 1558.1 630.952 1557.81ZM652.84 1532.08H643.912V1547.54C646.792 1547.73 649.576 1547.92 652.264 1547.92C661.192 1547.92 665.704 1545.33 665.704 1539.57C665.704 1534.38 661 1532.08 652.84 1532.08ZM651.784 1507.22C648.808 1507.22 646.216 1507.31 643.912 1507.41V1522.19H652.456C658.792 1522.19 663.304 1519.6 663.304 1514.32C663.304 1509.62 658.984 1507.22 651.784 1507.22ZM287.1 1609.66V1621.94C290.268 1621.56 294.012 1621.18 297.468 1621.18C310.044 1621.18 322.62 1624.82 322.62 1639.9C322.62 1652.18 314.076 1659 300.156 1659H274.14V1598.33H317.916V1609.66H287.1ZM287.1 1632.22V1647.48H299.58C306.492 1647.48 309.18 1643.93 309.18 1639.42C309.18 1632.89 303.228 1631.35 297.084 1631.35C293.532 1631.35 289.788 1631.83 287.1 1632.22ZM332.827 1659V1598.33H378.331V1609.66H345.595V1622.71H374.299V1634.04H345.595V1647.67H378.715V1659H332.827ZM395.239 1598.33H438.247V1659H425.479V1609.85H407.239V1615.03C407.239 1650.65 400.999 1659.77 387.751 1659.77C385.639 1659.77 382.663 1659.58 381.031 1659.1L381.895 1648.82C382.375 1648.92 382.855 1648.92 383.623 1648.92C391.111 1648.92 395.239 1644.22 395.239 1610.9V1598.33ZM458.011 1659H444.571L474.523 1598.33H478.075L508.795 1659H494.683L489.691 1648.34H462.907L458.011 1659ZM484.987 1638.17L476.251 1619.45L467.611 1638.17H484.987ZM555.203 1622.71V1598.33H568.163V1659H555.203V1634.42H528.131V1659H515.171V1598.33H528.131V1622.71H555.203Z" fill="white"/>
<path d="M146.1 264.6C147.6 247.65 159.6 238.05 177.45 238.05C186.6 238.05 195.15 239.4 203.85 244.05V224.55C194.4 220.5 185.55 218.55 175.8 218.55C145.8 218.55 125.4 236.85 123.75 264.6H146.1ZM146.1 271.65C148.05 288.9 161.1 298.2 176.1 298.2C186.6 298.2 196.8 294.9 204.6 289.65V310.35C194.85 315.6 184.5 317.7 173.4 317.7C144.9 317.7 125.25 298.2 123.75 271.65H146.1ZM245.438 244.95H264.938V315H245.438V244.95ZM294.938 237.9H215.438V220.2H294.938V237.9ZM317.477 241.2L326.927 261L317.027 282.45H344.177L314.177 220.2H333.377L381.377 315H359.327L351.527 298.35H309.677L302.027 315H281.027L317.477 241.2ZM418.639 287.55V270.6C421.189 270.75 423.589 270.75 425.239 270.75C436.939 270.75 445.789 266.1 445.789 253.35C445.789 244.8 442.039 237.9 427.489 237.9H411.589V315H391.339V220.2H428.689C456.589 220.2 466.939 235.5 466.939 253.8C466.939 278.7 447.739 287.85 428.089 287.85C425.239 287.85 421.939 287.85 418.639 287.55ZM499.881 244.95H519.381V315H499.881V244.95ZM549.381 237.9H469.881V220.2H549.381V237.9ZM604.357 317.7C607.207 312 608.857 305.1 610.507 298.2C624.007 295.65 633.457 284.7 633.457 268.05C633.457 251.4 623.857 240.3 610.207 237.75C612.607 232.2 614.707 226.5 616.657 219.75C639.757 224.55 654.307 243 654.607 268.05C654.307 297.3 634.507 317.7 604.357 317.7ZM597.457 317.4C571.357 314.4 554.257 295.05 553.957 268.05C554.257 238.65 574.507 218.55 604.357 218.55C606.307 218.55 608.257 218.7 610.057 218.85C608.257 226.2 606.157 232.2 603.607 237.15C587.257 237.45 575.407 249.3 575.407 268.05C575.407 286.8 587.257 298.5 603.607 298.8C602.707 305.4 600.307 311.55 597.457 317.4ZM699.304 315V298.95H708.754C720.454 298.95 726.304 295.5 726.304 287.25C726.304 279.3 720.754 275.4 709.204 275.4H692.254V315H672.004V220.2H709.354C733.504 220.2 742.354 231.6 742.354 244.05C742.354 249 740.404 255.3 736.804 259.5C731.854 257.25 724.054 255.6 719.854 255C721.054 252.45 722.104 249.6 722.104 246.3C722.104 240.75 719.104 236.25 708.454 236.25H692.254V260.25H713.254C733.204 260.25 747.454 269.55 747.454 286.95C747.454 305.1 734.404 315 711.454 315H699.304ZM850.075 315V220.2H870.325V315H850.075ZM785.125 315H764.875V220.2H785.125V315ZM792.175 315H804.325C828.325 315 840.475 300.75 840.475 283.35C840.475 259.35 823.075 251.25 801.925 251.25C798.625 251.25 795.475 251.4 792.175 251.7V268.8C794.875 268.5 797.575 268.35 800.575 268.35C812.425 268.35 819.475 272.25 819.475 282.6C819.475 292.2 812.725 297 801.175 297H792.175V315ZM936.995 216.3C920.645 216.3 908.795 205.95 908.645 189.6H925.445C925.445 196.8 929.795 201 936.995 201C944.345 201 948.695 196.8 948.695 189.6H965.495C965.345 205.95 953.495 216.3 936.995 216.3ZM912.545 302.55L899.945 315H893.195V220.2H912.545V302.55ZM919.595 295.65V269.7L970.295 220.2H976.595V315H957.245V258.45L919.595 295.65ZM146.1 422.6C147.6 405.65 159.6 396.05 177.45 396.05C186.6 396.05 195.15 397.4 203.85 402.05V382.55C194.4 378.5 185.55 376.55 175.8 376.55C145.8 376.55 125.4 394.85 123.75 422.6H146.1ZM146.1 429.65C148.05 446.9 161.1 456.2 176.1 456.2C186.6 456.2 196.8 452.9 204.6 447.65V468.35C194.85 473.6 184.5 475.7 173.4 475.7C144.9 475.7 125.25 456.2 123.75 429.65H146.1ZM265.539 475.7C268.389 470 270.039 463.1 271.689 456.2C285.189 453.65 294.639 442.7 294.639 426.05C294.639 409.4 285.039 398.3 271.389 395.75C273.789 390.2 275.889 384.5 277.839 377.75C300.939 382.55 315.489 401 315.789 426.05C315.489 455.3 295.689 475.7 265.539 475.7ZM258.639 475.4C232.539 472.4 215.439 453.05 215.139 426.05C215.439 396.65 235.689 376.55 265.539 376.55C267.489 376.55 269.439 376.7 271.239 376.85C269.439 384.2 267.339 390.2 264.789 395.15C248.439 395.45 236.589 407.3 236.589 426.05C236.589 444.8 248.439 456.5 264.789 456.8C263.889 463.4 261.489 469.55 258.639 475.4ZM350.885 422.6C352.385 405.65 364.385 396.05 382.235 396.05C391.385 396.05 399.935 397.4 408.635 402.05V382.55C399.185 378.5 390.335 376.55 380.585 376.55C350.585 376.55 330.185 394.85 328.535 422.6H350.885ZM350.885 429.65C352.835 446.9 365.885 456.2 380.885 456.2C391.385 456.2 401.585 452.9 409.385 447.65V468.35C399.635 473.6 389.285 475.7 378.185 475.7C349.685 475.7 330.035 456.2 328.535 429.65H350.885ZM450.223 402.95H469.723V473H450.223V402.95ZM499.723 395.9H420.223V378.2H499.723V395.9ZM522.263 399.2L531.713 419L521.813 440.45H548.963L518.963 378.2H538.163L586.163 473H564.113L556.313 456.35H514.463L506.813 473H485.812L522.263 399.2ZM623.425 473V456.95H632.875C644.575 456.95 650.425 453.5 650.425 445.25C650.425 437.3 644.875 433.4 633.325 433.4H616.375V473H596.125V378.2H633.475C657.625 378.2 666.475 389.6 666.475 402.05C666.475 407 664.525 413.3 660.925 417.5C655.975 415.25 648.175 413.6 643.975 413C645.175 410.45 646.225 407.6 646.225 404.3C646.225 398.75 643.225 394.25 632.575 394.25H616.375V418.25H637.375C657.325 418.25 671.575 427.55 671.575 444.95C671.575 463.1 658.525 473 635.575 473H623.425Z" fill="white"/>
<path d="M1363.47 989.193L1356.85 1022.29C1356.11 1026 1356.62 1029.85 1358.31 1033.23C1361.19 1038.99 1367.08 1042.63 1373.52 1042.63H1626.61C1645.56 1042.63 1664.31 1046.48 1681.72 1053.94C1698.08 1060.95 1712.95 1071.02 1725.53 1083.6L1742.32 1100.39C1752.5 1110.57 1761.49 1121.87 1769.12 1134.08L1770.49 1136.28C1786.05 1161.16 1795.27 1189.48 1797.36 1218.75L1798.58 1235.81C1800.47 1262.26 1794.01 1288.63 1780.12 1311.21C1757.06 1348.67 1716.23 1371.49 1672.25 1371.49H1651.96C1639.63 1371.49 1627.34 1370.09 1615.32 1367.31L1585.9 1360.52C1554.34 1353.24 1522.05 1349.56 1489.65 1349.56H1357.11C1351.35 1349.56 1345.65 1350.66 1340.3 1352.8C1323.12 1359.67 1311.86 1376.31 1311.86 1394.82V1449.26C1311.86 1459.28 1319.03 1467.92 1328.85 1469.89C1339.73 1472.06 1350.51 1465.33 1353.2 1454.57C1354.78 1448.27 1359.21 1443.06 1365.18 1440.5L1391.89 1429.06C1401.77 1424.83 1412.4 1422.64 1423.15 1422.64H1601.23C1636.28 1422.64 1670.31 1434.41 1697.86 1456.06L1724.7 1477.15C1745.49 1493.49 1757.64 1518.47 1757.64 1544.92V1554.8C1757.64 1563.96 1755.15 1572.95 1750.44 1580.8C1741.3 1596.03 1724.85 1605.34 1707.1 1605.34H1364.42C1358.66 1605.34 1352.96 1606.44 1347.61 1608.58L1336.48 1613.03C1326.02 1617.21 1319.16 1627.34 1319.16 1638.6C1319.16 1655.62 1334.45 1668.56 1351.23 1665.77L1524.04 1636.97C1533.6 1635.37 1543.27 1634.57 1552.96 1634.57H1589.56L1699.18 1649.19L1804.48 1668.93C1811.75 1670.3 1819.23 1667.98 1824.47 1662.75C1828.48 1658.73 1830.83 1653.34 1831.02 1647.66L1851.08 1066.09C1852.11 1036.14 1847.1 1006.29 1836.34 978.319L1832.37 967.988C1821.69 940.235 1804.28 915.572 1781.71 896.221L1775.62 891.009C1768.53 884.93 1760.72 879.744 1752.37 875.567L1731.12 864.942C1715.45 857.107 1697.18 856.347 1680.91 862.854C1673.67 865.752 1665.94 867.24 1658.13 867.24H1648.02C1633.54 867.24 1619.19 864.477 1605.74 859.098L1589.56 852.625C1570.92 843.305 1549.24 842.167 1529.72 849.484L1501.86 859.933L1441.95 892.614C1428.37 900.02 1415.92 909.333 1404.99 920.269L1395.02 930.232C1378.92 946.34 1367.94 966.855 1363.47 989.193Z" fill="white"/>
<path d="M1377.63 1552.1H1713.79M1377.63 1464.4V1495.72M1377.63 1583.42V1495.72M1428.78 1451.87V1583.42M1509.17 1451.87V1583.42M1611.48 1451.87V1583.42M1699.18 1481.11V1495.72M1699.18 1583.42V1495.72M1377.63 1495.72H1699.18" stroke="white" stroke-width="7" stroke-linecap="round" stroke-linejoin="round"/>
<path d="M1600.45 836.084L1598.62 833.335C1593.81 826.116 1596.41 816.311 1604.17 812.431L1608.23 810.402C1615.17 806.93 1622.83 805.123 1630.59 805.123H1632.6C1637.97 805.123 1643.31 805.989 1648.41 807.689L1662.64 812.431L1678.9 817.853C1682.52 819.061 1685.52 821.658 1687.23 825.073L1688.53 827.677C1690.52 831.665 1689.74 836.481 1686.59 839.634C1685.26 840.961 1683.6 841.903 1681.78 842.358L1661.3 847.478C1657.33 848.469 1653.26 848.971 1649.17 848.971H1639.56C1635.47 848.971 1631.4 848.469 1627.43 847.478L1610.68 843.289C1606.49 842.242 1602.85 839.674 1600.45 836.084Z" fill="white"/>
<path d="M1673.32 792.756L1636.77 788.188C1631.01 787.467 1627.07 782.001 1628.21 776.304L1653.27 650.979C1654.39 645.38 1659.96 641.854 1665.5 643.239L1676.99 646.109C1681.44 647.222 1684.56 651.222 1684.56 655.811V782.833C1684.56 788.848 1679.29 793.502 1673.32 792.756Z" fill="white"/>
<path d="M1696.97 612.936L1679.77 624.4C1678.13 625.495 1676.2 626.079 1674.22 626.079H1659.47C1656.82 626.079 1654.27 625.026 1652.4 623.15L1641.41 612.163C1640.95 611.698 1640.53 611.187 1640.16 610.639L1629.32 594.368C1627.33 591.382 1627.09 587.559 1628.69 584.349L1633.4 574.924L1638.86 564.013C1640.05 561.641 1642.13 559.837 1644.64 558.998L1661.1 553.513C1662.12 553.173 1663.18 553 1664.26 553H1681.53C1683.51 553 1685.44 553.584 1687.08 554.679L1702.03 564.647C1704.81 566.502 1706.48 569.624 1706.48 572.968V594.487C1706.48 596.039 1706.12 597.57 1705.43 598.959L1700.36 609.088C1699.59 610.645 1698.41 611.971 1696.97 612.936Z" fill="white"/>
<path d="M1602.45 1063.7L1244.2 1057.92C1217.19 1057.49 1190.98 1067.09 1170.66 1084.88C1153.19 1100.16 1141.06 1120.62 1136.03 1143.27L1131.85 1162.07C1130.06 1170.11 1129.16 1178.33 1129.16 1186.57C1129.16 1211.69 1137.53 1236.09 1152.95 1255.92L1161.23 1266.57C1173.82 1282.76 1189.55 1296.23 1207.48 1306.19L1209.29 1307.2C1233.42 1320.6 1260.57 1327.64 1288.17 1327.64H1311.86H1506.8C1537.41 1327.64 1567.82 1332.57 1596.86 1342.25L1645.28 1353.01C1656.77 1355.57 1668.61 1356.21 1680.31 1354.91C1710.88 1351.51 1738.52 1335.12 1756.16 1309.92L1757.07 1308.62C1771.62 1287.83 1778.58 1262.67 1776.77 1237.36L1774.82 1210.16C1773.14 1186.53 1765.69 1163.67 1753.14 1143.58C1741.67 1125.23 1726.24 1109.68 1707.99 1098.06L1699.94 1092.95C1670.77 1074.38 1637.03 1064.26 1602.45 1063.7Z" stroke="white" stroke-width="10"/>
<path fill-rule="evenodd" clip-rule="evenodd" d="M1238.04 1101.72C1243.88 1098.8 1250.31 1097.29 1256.82 1097.29H1621.34C1633.54 1097.29 1645.56 1100.12 1656.47 1105.58C1664.02 1109.35 1670.91 1114.32 1676.88 1120.29L1689.39 1132.8C1698.09 1141.5 1702.98 1153.3 1702.98 1165.61V1201.82C1702.98 1228.88 1689.05 1254.02 1666.1 1268.36C1653.63 1276.16 1639.22 1280.29 1624.51 1280.29H1266.85C1249.24 1280.29 1232.02 1275.08 1217.36 1265.31L1211.27 1261.24C1202.34 1255.29 1195.12 1247.12 1190.32 1237.52C1186.04 1228.96 1183.81 1219.52 1183.81 1209.95V1198.06C1183.81 1165.37 1198.1 1134.31 1222.92 1113.03L1229.49 1107.4C1232.1 1105.16 1234.97 1103.25 1238.04 1101.72ZM1256.82 1090.29C1249.22 1090.29 1241.72 1092.06 1234.91 1095.46C1231.33 1097.25 1227.98 1099.47 1224.94 1102.08L1218.37 1107.71C1191.99 1130.32 1176.81 1163.32 1176.81 1198.06V1209.95C1176.81 1220.61 1179.29 1231.12 1184.06 1240.65C1189.4 1251.34 1197.44 1260.44 1207.38 1267.07L1213.48 1271.13C1229.28 1281.67 1247.85 1287.29 1266.85 1287.29H1624.51C1640.53 1287.29 1656.23 1282.79 1669.81 1274.3C1694.8 1258.68 1709.98 1231.29 1709.98 1201.82V1165.61C1709.98 1151.45 1704.36 1137.87 1694.34 1127.85L1681.83 1115.34C1675.33 1108.84 1667.82 1103.43 1659.6 1099.32C1647.72 1093.38 1634.62 1090.29 1621.34 1090.29H1256.82ZM1260.7 1230.31C1260.7 1213.3 1268.43 1197.22 1281.71 1186.6L1293.7 1177C1295.99 1175.17 1298.84 1174.17 1301.77 1174.17V1174.17C1307.7 1174.17 1312.86 1178.21 1314.3 1183.96L1319.16 1203.4L1322.99 1214.88C1325.07 1221.12 1330.91 1225.33 1337.48 1225.33V1225.33C1339.85 1225.33 1342.19 1224.78 1344.31 1223.72L1345.13 1223.31C1351.61 1220.07 1355.7 1213.44 1355.7 1206.2V1204.06C1355.7 1191.59 1365.81 1181.48 1378.29 1181.48H1390.04C1396.26 1181.48 1402.37 1183.17 1407.71 1186.37L1432.03 1200.97C1434.73 1202.59 1437.22 1204.53 1439.44 1206.75V1206.75C1446.65 1213.97 1450.71 1223.75 1450.71 1233.95V1237.73C1450.71 1248.24 1445.45 1258.06 1436.7 1263.89V1263.89C1431.54 1267.34 1425.47 1269.18 1419.26 1269.18H1292.14C1281.63 1269.18 1271.81 1263.92 1265.98 1255.17V1255.17C1262.54 1250.01 1260.7 1243.94 1260.7 1237.73V1230.31ZM1472.63 1218.91C1472.63 1208.98 1476.57 1199.46 1483.59 1192.44L1484.75 1191.29C1491.03 1185.01 1499.54 1181.48 1508.42 1181.48H1511.42C1523.3 1181.48 1533.99 1188.72 1538.4 1199.75L1541.81 1208.27C1544.17 1214.16 1549.87 1218.02 1556.21 1218.02V1218.02C1558.91 1218.02 1561.56 1217.32 1563.9 1215.98L1565.96 1214.8C1571.51 1211.63 1574.94 1205.72 1574.94 1199.32V1199.32C1574.94 1189.47 1582.93 1181.48 1592.78 1181.48H1626.62C1640.32 1181.48 1653.46 1186.92 1663.16 1196.62L1669.94 1203.4L1677.38 1210.84C1681.98 1215.44 1684.56 1221.67 1684.56 1228.17V1228.17C1684.56 1235.61 1681.18 1242.65 1675.36 1247.3L1663.44 1256.84C1653.46 1264.83 1641.06 1269.18 1628.28 1269.18H1491.76C1484.52 1269.18 1477.89 1265.08 1474.65 1258.6V1258.6C1473.32 1255.94 1472.63 1253.01 1472.63 1250.04V1218.91Z" fill="white"/>
<path d="M1250.68 1743.97L1167.28 1833.32C1162.32 1838.63 1162.46 1846.92 1167.6 1852.06C1170.96 1855.41 1175.82 1856.76 1180.42 1855.61L1231.47 1842.85L1282.62 1828.23L1355.7 1806.31L1450.71 1791.69L1479.79 1789.75C1533.4 1786.18 1587.2 1786.83 1640.71 1791.69L1725.69 1806.69C1751.79 1811.29 1777.35 1818.58 1801.96 1828.42L1816.63 1834.29C1830.86 1839.98 1845.62 1844.23 1860.7 1846.97L1911.32 1856.17C1915.98 1857.02 1920.76 1856.68 1925.25 1855.18C1943.46 1849.11 1950.37 1826.99 1938.85 1811.63L1920.55 1787.23C1919.13 1785.34 1917.57 1783.54 1915.89 1781.87L1889.65 1755.62C1855.66 1721.63 1814.54 1695.61 1769.28 1679.44C1746.97 1671.48 1723.86 1665.97 1700.35 1663.04L1618.79 1652.84C1565.45 1647.99 1511.7 1650.54 1459.07 1660.41L1421.47 1667.46L1393.91 1672.05C1354.33 1678.65 1316.72 1694.02 1283.84 1717.03L1272.74 1724.8C1264.73 1730.4 1257.34 1736.83 1250.68 1743.97Z" fill="white"/>
<path d="M1840.48 2553H1186.66C1178.97 2553 1172.6 2547.05 1172.08 2539.38L1152.03 2245.43C1151.5 2237.61 1157.22 2230.77 1165 2229.9L1216.85 2224.14C1220.98 2224.14 1224.41 2227.32 1224.72 2231.43L1244.76 2491.9C1245.45 2500.92 1254.1 2507.15 1262.88 2504.95L1304.55 2494.54L1377.63 2479.92L1494.55 2472.61L1604.17 2479.92L1713.82 2499.27C1721.85 2500.69 1729.48 2495.27 1730.79 2487.23L1778.14 2196.33C1779.02 2190.96 1782.79 2186.53 1787.95 2184.81L1842.86 2166.5C1844.5 2165.96 1846.02 2165.13 1847.37 2164.05L1875.72 2141.37C1879.56 2138.3 1884.69 2137.36 1889.37 2138.88L1914.72 2147.11C1921.7 2149.37 1925.92 2156.46 1924.58 2163.67L1854.85 2541.04C1853.57 2547.97 1847.53 2553 1840.48 2553Z" fill="white"/>
<path d="M1835.03 1858.75L1933.82 1874.02C1937.9 1874.65 1937.44 1880.67 1933.31 1880.67C1933.12 1880.67 1932.94 1880.69 1932.76 1880.72L1909.57 1884.58C1896.31 1886.79 1884.07 1893.09 1874.57 1902.6L1849.61 1927.55C1846.87 1930.29 1845.33 1934 1845.33 1937.88V1983.59C1845.33 1987.81 1843.35 1991.78 1839.97 1994.31C1830.72 2001.25 1817.62 1994 1818.58 1982.48L1823.41 1924.52V1920.44C1823.41 1914.15 1819.38 1908.56 1813.42 1906.57L1735.72 1880.67C1692.21 1861.34 1645.63 1849.82 1598.13 1846.65L1560.33 1844.13L1460.59 1848.12C1405.46 1850.33 1350.47 1858.85 1297.24 1873.36L1216.85 1902.6L1200.41 1906.71C1193.14 1908.52 1188.43 1915.54 1189.49 1922.95L1192.91 1946.92C1194.03 1954.78 1188.68 1962.1 1180.84 1963.41L1166.92 1965.73C1158.42 1967.14 1150.55 1960.94 1149.94 1952.35L1144.89 1881.71C1144.29 1873.25 1150.99 1866.06 1159.47 1866.06H1183.49C1195.94 1866.06 1208.33 1864.47 1220.38 1861.32L1370.32 1822.21L1436.09 1807.59L1457.41 1805.65C1496.72 1802.08 1536.26 1801.7 1575.64 1804.51L1618.79 1807.59L1683.34 1814.76C1684.15 1814.86 1684.95 1815.01 1685.74 1815.24L1735.72 1829.52L1835.03 1858.75Z" fill="white"/>
<path d="M1036.13 1975.92L1104.97 1916.25C1114.43 1908.05 1129.16 1914.77 1129.16 1927.3V1979.71C1129.16 1981.83 1128.46 1983.89 1127.17 1985.57L1095.17 2027.17C1074.91 2053.51 1083.7 2091.8 1113.43 2106.66C1114.16 2107.03 1114.97 2107.22 1115.79 2107.22H1171.21C1172.4 2107.22 1173.59 2107.07 1174.75 2106.78L1223.44 2094.61C1228.42 2093.36 1233.69 2094.82 1237.32 2098.45L1251.27 2112.4C1252.67 2113.8 1254.34 2114.9 1256.18 2115.64L1323.69 2142.64C1325.52 2143.38 1327.19 2144.48 1328.59 2145.88L1337.21 2154.49C1345.29 2162.58 1341.38 2176.4 1330.26 2179.05L1218.93 2205.55C1207.84 2208.19 1196.48 2209.53 1185.08 2209.53H1085.97C1075.84 2209.53 1065.77 2208.05 1056.07 2205.14L1051.97 2203.91C1018.41 2193.84 992.907 2166.41 985.305 2132.2C983.773 2125.31 983 2118.27 983 2111.21V2090.67C983 2063.28 990.698 2036.44 1005.22 2013.21L1007.91 2008.9C1015.62 1996.56 1025.13 1985.45 1036.13 1975.92Z" fill="white"/>
<path d="M1581.4 1958.9L1447.94 2003.39C1445.03 2004.36 1442.63 2006.45 1441.26 2009.19C1438.4 2014.9 1440.72 2021.84 1446.43 2024.69L1479.94 2041.45L1513.01 2061.29C1515.28 2062.65 1517.88 2063.37 1520.53 2063.37H1551.87C1552.63 2063.37 1553.39 2063.28 1554.13 2063.09C1572.44 2058.51 1591.71 2059.61 1609.39 2066.24L1639.47 2077.52C1640.3 2077.83 1641.09 2078.21 1641.85 2078.67L1673.1 2097.42C1675.86 2099.07 1678.79 2100.42 1681.84 2101.44L1689.15 2103.88C1695.57 2106.02 1702.57 2105.52 1708.62 2102.49L1710.5 2101.55C1720.78 2096.42 1725.71 2084.51 1722.08 2073.61C1721.43 2071.66 1720.52 2069.81 1719.38 2068.11L1716.2 2063.33C1709.83 2053.78 1701.08 2046.05 1690.82 2040.92L1683.42 2037.22C1679.31 2035.17 1675.06 2033.41 1670.71 2031.96L1658.28 2027.81C1656.32 2027.16 1654.3 2026.68 1652.25 2026.39L1633.11 2023.66C1630.56 2023.29 1630.82 2019.52 1633.4 2019.52H1644.55C1661.25 2019.52 1677.72 2023.41 1692.66 2030.88L1706.92 2038.01C1711.45 2040.27 1715.43 2043.49 1718.59 2047.45L1730.11 2061.84C1737 2070.46 1749.84 2071.17 1757.64 2063.37C1761.68 2059.33 1761.68 2052.79 1757.64 2048.75L1728.15 2019.26C1718.68 2009.79 1707.38 2002.34 1694.94 1997.37L1692.31 1996.31C1682.36 1992.33 1671.75 1990.29 1661.04 1990.29H1649.98C1646.56 1990.29 1644.85 1986.15 1647.27 1983.73C1647.76 1983.24 1648.38 1982.89 1649.05 1982.72L1650.06 1982.47C1667.61 1978.09 1686.15 1980.12 1702.32 1988.21L1706.48 1990.29L1737.14 2008.68C1741.05 2011.03 1744.65 2013.84 1747.88 2017.07L1763.6 2032.79C1768.9 2038.1 1776.75 2039.95 1783.87 2037.58C1790.29 2035.43 1795.17 2030.16 1796.82 2023.59L1797.38 2021.34C1799.84 2011.48 1795.85 2001.15 1787.39 1995.51L1779.56 1990.29L1758.52 1975.26C1738.76 1961.14 1715.79 1952.17 1691.69 1949.16L1686.26 1948.48C1675.42 1947.13 1664.46 1946.99 1653.59 1948.08L1613.08 1952.13C1602.3 1953.21 1591.68 1955.48 1581.4 1958.9Z" fill="white"/>
<path d="M1859.95 1952.5V1967.1C1859.95 1977.44 1871.11 1983.91 1880.08 1978.79L1900.37 1967.2C1907.4 1963.17 1915.37 1961.06 1923.47 1961.06C1934.37 1961.06 1944.92 1964.88 1953.29 1971.85L1973.33 1988.56C1980.38 1994.43 1985.38 2002.4 1987.61 2011.3C1990.12 2021.32 1988.95 2031.91 1984.33 2041.15L1979.44 2050.94C1973 2063.81 1962.9 2074.49 1950.41 2081.62L1921.39 2098.21C1919.43 2099.33 1917.71 2100.84 1916.36 2102.65L1905.26 2117.45C1901.65 2122.27 1905.08 2129.14 1911.11 2129.14H1930.04C1951 2129.14 1971.43 2122.59 1988.48 2110.41C2004.73 2098.8 2017.16 2082.61 2024.18 2063.91L2027.16 2055.94C2032.57 2041.52 2035.34 2026.25 2035.34 2010.85V1988.07C2035.34 1965.9 2027.56 1944.42 2013.37 1927.38L2011.59 1925.25C2003.18 1915.16 1992.51 1907.21 1980.43 1902.03C1959.5 1893.06 1935.79 1893.06 1914.85 1902.03L1912.35 1903.11C1901.87 1907.6 1892.35 1914.04 1884.29 1922.1L1864.23 1942.16C1861.49 1944.9 1859.95 1948.62 1859.95 1952.5Z" fill="white"/>
<path d="M1896.49 1982.98L1845.33 2012.21L1788.87 2054.56C1787.55 2055.55 1786.4 2056.77 1785.48 2058.14L1773.88 2075.55C1772.81 2077.16 1771.43 2078.54 1769.82 2079.61L1710.17 2119.38C1707.76 2120.98 1704.94 2121.83 1702.06 2121.83H1680.46C1678.35 2121.83 1676.26 2121.37 1674.34 2120.49L1585.94 2079.69C1583.53 2078.58 1580.85 2078.14 1578.2 2078.43L1521.77 2084.71C1518.35 2085.09 1514.91 2084.25 1512.05 2082.34L1494.55 2070.68L1414.17 2026.83L1315.07 1989.67C1303.23 1985.23 1290.87 1982.35 1278.29 1981.09L1240.52 1977.31C1229.65 1976.22 1218.69 1976.36 1207.85 1977.71L1196.83 1979.09C1176.47 1981.64 1157.22 1989.77 1141.2 2002.58L1135.43 2007.19C1131.27 2010.52 1127.59 2014.41 1124.49 2018.75L1118.85 2026.65C1104.14 2047.25 1108.09 2075.75 1127.85 2091.56C1128.7 2092.23 1129.75 2092.6 1130.83 2092.6H1171.56C1172.52 2092.6 1173.48 2092.51 1174.42 2092.32L1209.55 2085.29L1233.29 2079.36C1236.82 2078.47 1240.55 2078.94 1243.76 2080.67L1333.78 2129.14L1458.01 2187.6L1501.31 2207.28C1525.57 2218.31 1552.39 2222.5 1578.87 2219.38L1661.15 2209.7C1662.14 2209.59 1663.11 2209.37 1664.06 2209.05L1856.11 2145.04C1858.62 2144.2 1860.86 2142.69 1862.58 2140.68L1892.24 2106.09C1899.92 2097.13 1908.65 2089.13 1918.25 2082.27L1946.87 2061.84C1952.21 2058.02 1956.82 2053.26 1960.46 2047.79L1963.56 2043.15C1967.48 2037.27 1969.57 2030.37 1969.57 2023.31C1969.57 2011.76 1963.99 2000.92 1954.59 1994.21L1939.85 1983.68C1926.95 1974.46 1909.69 1974.18 1896.49 1982.98Z" fill="white"/>
<rect y="1757" width="2046" height="796" fill="url(#paint0_linear_1_408)"/>
<path d="M170.525 2006.6V2045.6H179.45V2054H151.475V2045.6H160.4V2015.67H150.575L152.825 2006.6H170.525ZM200.251 2005.77C212.926 2005.77 220.351 2014.1 220.351 2028.05C220.351 2042.15 213.301 2055.35 197.476 2055.35C193.051 2055.35 189.151 2054.38 186.001 2052.27V2043.42C189.076 2045.45 193.051 2046.5 196.726 2046.5C204.076 2046.5 208.951 2042.52 209.926 2033.75C207.226 2036.52 202.876 2038.17 198.526 2038.17C189.976 2038.17 182.101 2032.55 182.101 2022.5C182.101 2012.52 190.051 2005.77 200.251 2005.77ZM201.001 2014.1C195.751 2014.17 192.076 2017.1 192.076 2022.27C192.076 2027.52 196.501 2030.45 201.001 2030.45C204.076 2030.45 208.276 2028.57 210.151 2025.42C210.151 2018.45 206.851 2014.47 201.001 2014.1ZM237.769 2048.97C237.769 2053.32 234.694 2055.35 231.244 2055.35C227.719 2055.35 224.569 2053.32 224.569 2048.97C224.569 2044.55 227.719 2042.52 231.244 2042.52C234.694 2042.52 237.769 2044.55 237.769 2048.97ZM265.154 2006.6V2045.6H274.079V2054H246.104V2045.6H255.029V2015.67H245.204L247.454 2006.6H265.154ZM295.696 2006.6V2045.6H304.621V2054H276.646V2045.6H285.571V2015.67H275.746L277.996 2006.6H295.696ZM328.077 2048.97C328.077 2053.32 325.002 2055.35 321.552 2055.35C318.027 2055.35 314.877 2053.32 314.877 2048.97C314.877 2044.55 318.027 2042.52 321.552 2042.52C325.002 2042.52 328.077 2044.55 328.077 2048.97ZM368.513 2054H334.688V2050.25L349.163 2033.97C354.113 2028.42 356.588 2025.5 356.588 2021.45C356.588 2017.1 353.138 2015.3 348.713 2015.3C344.438 2015.3 339.713 2017.17 336.188 2019.8V2010.05C340.313 2007.2 345.788 2005.77 350.738 2005.77C359.138 2005.77 366.863 2010.95 366.863 2020.25C366.863 2026.62 364.013 2030.67 357.338 2037.95L350.963 2044.92H368.513V2054ZM396.408 2055.35C382.458 2055.35 374.583 2044.17 374.583 2030.52C374.583 2016.87 382.458 2005.77 396.408 2005.77C410.358 2005.77 418.233 2016.95 418.233 2030.6C418.233 2044.25 410.358 2055.35 396.408 2055.35ZM396.408 2045.97C404.283 2045.97 407.508 2039.15 407.508 2030.6C407.508 2022.05 404.283 2015.15 396.408 2015.15C388.533 2015.15 385.308 2021.97 385.308 2030.52C385.308 2039.07 388.533 2045.97 396.408 2045.97ZM457.356 2054H423.531V2050.25L438.006 2033.97C442.956 2028.42 445.431 2025.5 445.431 2021.45C445.431 2017.1 441.981 2015.3 437.556 2015.3C433.281 2015.3 428.556 2017.17 425.031 2019.8V2010.05C429.156 2007.2 434.631 2005.77 439.581 2005.77C447.981 2005.77 455.706 2010.95 455.706 2020.25C455.706 2026.62 452.856 2030.67 446.181 2037.95L439.806 2044.92H457.356V2054ZM464.512 2051.53V2041.77C467.437 2043.72 472.537 2046.2 478.012 2046.2C483.637 2046.2 486.862 2043.05 486.862 2038.62C486.862 2033.15 482.587 2031.5 478.087 2031.5C476.137 2031.5 474.112 2031.8 472.312 2032.25L471.037 2028.12L482.887 2015.45H463.612L465.787 2006.6H496.087V2012.82L484.537 2025.12C493.162 2025.42 497.512 2031.8 497.512 2039C497.512 2048.9 489.412 2055.35 479.437 2055.35C474.712 2055.35 468.262 2054.53 464.512 2051.53ZM510.602 2064.28H502.577L508.502 2043.35H518.927L510.602 2064.28ZM576.375 2054H542.55V2050.25L557.025 2033.97C561.975 2028.42 564.45 2025.5 564.45 2021.45C564.45 2017.1 561 2015.3 556.575 2015.3C552.3 2015.3 547.575 2017.17 544.05 2019.8V2010.05C548.175 2007.2 553.65 2005.77 558.6 2005.77C567 2005.77 574.725 2010.95 574.725 2020.25C574.725 2026.62 571.875 2030.67 565.2 2037.95L558.825 2044.92H576.375V2054ZM600.969 2006.6V2045.6H609.894V2054H581.919V2045.6H590.844V2015.67H581.019L583.269 2006.6H600.969ZM626.336 2048.97C626.336 2053.32 623.261 2055.35 619.811 2055.35C616.286 2055.35 613.136 2053.32 613.136 2048.97C613.136 2044.55 616.286 2042.52 619.811 2042.52C623.261 2042.52 626.336 2044.55 626.336 2048.97ZM626.336 2021.82C626.336 2026.17 623.261 2028.2 619.811 2028.2C616.286 2028.2 613.136 2026.17 613.136 2021.82C613.136 2017.4 616.286 2015.37 619.811 2015.37C623.261 2015.37 626.336 2017.4 626.336 2021.82ZM654.294 2055.35C640.344 2055.35 632.469 2044.17 632.469 2030.52C632.469 2016.87 640.344 2005.77 654.294 2005.77C668.244 2005.77 676.119 2016.95 676.119 2030.6C676.119 2044.25 668.244 2055.35 654.294 2055.35ZM654.294 2045.97C662.169 2045.97 665.394 2039.15 665.394 2030.6C665.394 2022.05 662.169 2015.15 654.294 2015.15C646.419 2015.15 643.194 2021.97 643.194 2030.52C643.194 2039.07 646.419 2045.97 654.294 2045.97ZM703.952 2055.35C690.002 2055.35 682.127 2044.17 682.127 2030.52C682.127 2016.87 690.002 2005.77 703.952 2005.77C717.902 2005.77 725.777 2016.95 725.777 2030.6C725.777 2044.25 717.902 2055.35 703.952 2055.35ZM703.952 2045.97C711.827 2045.97 715.052 2039.15 715.052 2030.6C715.052 2022.05 711.827 2015.15 703.952 2015.15C696.077 2015.15 692.852 2021.97 692.852 2030.52C692.852 2039.07 696.077 2045.97 703.952 2045.97ZM183.2 2096.4V2105.4C181.025 2104.05 176.975 2103.07 173.225 2103.07C166.25 2103.07 162.425 2106.97 162.425 2114.25C162.425 2121.37 166.475 2125.5 172.1 2125.5C175.925 2125.5 180.5 2124.75 183.65 2122.87V2131.87C180.2 2133.6 175.4 2134.28 172.025 2134.28C160.625 2134.28 151.85 2126.92 151.85 2114.55C151.85 2102.47 159.8 2094.37 172.4 2094.37C175.4 2094.37 180.2 2094.97 183.2 2096.4ZM222.917 2095.65V2104.05H211.517V2133H201.167V2104.05H189.767V2095.65H222.917ZM260.264 2133H252.839L251.864 2127.82C248.264 2132.4 244.214 2133.83 237.539 2133.83C229.589 2133.83 225.239 2127.82 225.239 2121.45C225.239 2111.92 232.739 2108.32 241.289 2108.32C244.289 2108.32 248.114 2108.85 250.364 2109.75V2108.4C250.364 2103.75 246.389 2102.7 242.789 2102.7C236.714 2102.7 232.139 2104.12 229.289 2105.55V2096.55C233.489 2095.2 238.514 2094.37 244.214 2094.37C253.139 2094.37 260.264 2097.97 260.264 2109.67V2133ZM250.364 2121.15V2116.87C248.564 2115.75 246.239 2115.15 243.539 2115.15C238.139 2115.15 235.589 2117.1 235.589 2121.22C235.589 2124.07 237.689 2126.25 241.364 2126.25C244.739 2126.25 248.414 2124.45 250.364 2121.15ZM282.859 2124.82H296.809V2103.75H285.934V2104.95C285.934 2111.32 285.334 2118.67 282.859 2124.82ZM303.559 2133H277.234V2141.85H268.459V2124.82H272.734C276.034 2117.92 276.559 2107.72 276.559 2098.5V2095.65H306.784V2124.82H312.334V2141.85H303.559V2133ZM355.908 2095.65V2133H346.233V2112L324.183 2133H320.358V2095.65H330.033V2116.65L352.083 2095.65H355.908ZM384.138 2134.28C370.488 2134.13 363.813 2124.9 363.813 2114.55C363.813 2103.07 371.388 2094.37 384.138 2094.37C397.938 2094.37 404.538 2103.82 404.538 2114.1C404.538 2125.5 396.963 2134.28 384.138 2134.28ZM384.138 2102.92C376.788 2102.92 374.463 2108.77 374.463 2113.95C374.463 2120.02 377.238 2125.72 384.138 2125.72C391.563 2125.72 393.963 2119.87 393.963 2114.62C393.963 2108.62 391.113 2102.92 384.138 2102.92ZM447.148 2095.65V2133H436.798V2118.37H422.773V2133H412.423V2095.65H422.773V2110.27H436.798V2095.65H447.148ZM483.727 2085.6H491.452L485.527 2106.52H475.402L483.727 2085.6ZM497.977 2085.6H505.702L499.777 2106.52H489.652L497.977 2085.6ZM556.803 2108.4L541.053 2133.45L525.003 2108.4L521.028 2133H510.978L519.453 2085.6H522.003L541.053 2116.42L560.253 2085.6H562.728L571.278 2133H561.153L556.803 2108.4ZM612.182 2123.55V2131.65C608.882 2133.53 603.557 2134.28 598.907 2134.28C584.057 2134.28 577.607 2125.35 577.607 2114.17C577.607 2100.75 587.207 2094.45 597.407 2094.45C610.532 2094.45 615.332 2103.37 615.332 2113.12C615.332 2114.7 615.107 2117.1 614.882 2118.6H587.882C588.707 2123.85 593.807 2125.87 600.182 2125.87C603.932 2125.87 608.132 2124.82 612.182 2123.55ZM587.507 2111.77H605.507C605.507 2105.77 602.207 2102.92 597.407 2102.92C591.707 2102.92 587.957 2106.22 587.507 2111.77ZM651.457 2095.65V2104.05H640.057V2133H629.707V2104.05H618.307V2095.65H651.457ZM688.804 2133H681.379L680.404 2127.82C676.804 2132.4 672.754 2133.83 666.079 2133.83C658.129 2133.83 653.779 2127.82 653.779 2121.45C653.779 2111.92 661.279 2108.32 669.829 2108.32C672.829 2108.32 676.654 2108.85 678.904 2109.75V2108.4C678.904 2103.75 674.929 2102.7 671.329 2102.7C665.254 2102.7 660.679 2104.12 657.829 2105.55V2096.55C662.029 2095.2 667.054 2094.37 672.754 2094.37C681.679 2094.37 688.804 2097.97 688.804 2109.67V2133ZM678.904 2121.15V2116.87C677.104 2115.75 674.779 2115.15 672.079 2115.15C666.679 2115.15 664.129 2117.1 664.129 2121.22C664.129 2124.07 666.229 2126.25 669.904 2126.25C673.279 2126.25 676.954 2124.45 678.904 2121.15ZM704.199 2095.65H733.974V2133H723.924V2104.05H713.424C713.424 2129.25 709.449 2133.38 700.074 2133.38C698.799 2133.38 696.474 2133.23 694.974 2132.92L695.724 2124.97C696.324 2125.05 697.149 2125.05 697.524 2125.05C701.949 2125.05 704.199 2122.5 704.199 2095.65ZM749.316 2095.65H779.091V2133H769.041V2104.05H758.541C758.541 2129.25 754.566 2133.38 745.191 2133.38C743.916 2133.38 741.591 2133.23 740.091 2132.92L740.841 2124.97C741.441 2125.05 742.266 2125.05 742.641 2125.05C747.066 2125.05 749.316 2122.5 749.316 2095.65ZM801.108 2147.25H790.608L800.358 2129.17L784.758 2095.65H796.158L804.933 2118.37L813.333 2095.65H824.208L801.108 2147.25ZM839.229 2129.62V2147.25H828.879V2095.65H837.804L838.254 2101.5C840.954 2096.77 845.304 2094.37 851.079 2094.37C863.004 2094.37 868.554 2102.92 868.554 2113.57C868.554 2124.52 861.954 2134.28 850.029 2134.28C845.979 2134.28 842.154 2132.92 839.229 2129.62ZM848.679 2125.5C855.279 2125.42 857.979 2120.1 857.979 2113.8C857.979 2107.57 855.129 2103 848.679 2103C845.079 2103 841.254 2104.5 839.154 2106.45V2122.35C841.929 2124.67 845.004 2125.5 848.679 2125.5ZM903.198 2104.35H886.323V2133H875.973V2095.65H903.198V2104.35ZM927.895 2106.52H920.17L926.095 2085.6H936.22L927.895 2106.52ZM913.645 2106.52H905.92L911.845 2085.6H921.97L913.645 2106.52Z" fill="white"/>
<g filter="url(#filter0_f_1_408)">
<rect x="1022" y="2553" width="2549" height="1026" transform="rotate(-90 1022 2553)" fill="url(#paint1_linear_1_408)" fill-opacity="0.39"/>
</g>
<mask id="mask0_1_408" style="mask-type:alpha" maskUnits="userSpaceOnUse" x="1207" y="190" width="250" height="250">
<circle cx="1332" cy="315" r="125" fill="#D9D9D9"/>
</mask>
<g mask="url(#mask0_1_408)">
<path fill-rule="evenodd" clip-rule="evenodd" d="M1455.57 334H1417.43C1410.9 363.484 1389.5 387.377 1361.5 397.402V395.807C1388.67 385.886 1409.43 362.652 1415.89 334H1378.54L1359.5 307.25V296.5H1416C1408.96 264.356 1383.93 238.943 1352 231.338V229.796C1384.76 237.457 1410.44 263.525 1417.54 296.5H1455.64C1446.7 236.237 1394.75 190 1332 190C1269.25 190 1217.3 236.237 1208.36 296.5H1246.46C1254.95 257.06 1290.02 227.5 1332 227.5C1333.85 227.5 1335.68 227.557 1337.5 227.67V229.173C1335.68 229.058 1333.85 229 1332 229C1290.85 229 1256.46 257.895 1247.99 296.5H1315.25V307.25L1290.38 334H1248.1C1254.53 362.476 1275.07 385.6 1302 395.623V397.222C1274.24 387.092 1253.06 363.309 1246.57 334H1208.43C1217.59 394.019 1269.42 440 1332 440C1394.58 440 1446.41 394.019 1455.57 334ZM1305.27 406H1316.02V403.575H1309.47L1312.25 400.525C1314.47 398.075 1315.45 396.775 1315.45 394.6C1315.45 391.45 1313.02 389.925 1310.35 389.925C1308.82 389.925 1307.3 390.25 1305.8 391.15V393.525C1307.12 392.725 1308.7 392.25 1309.92 392.25C1311.77 392.25 1312.92 393.1 1312.92 395.025C1312.92 396.5 1311.97 397.625 1310.2 399.625L1305.27 405.125V406ZM1329.59 398.2C1329.59 401.4 1328.29 404.1 1325.16 404.1C1322.04 404.1 1320.74 401.375 1320.74 398.175C1320.74 394.975 1322.04 392.275 1325.16 392.275C1328.29 392.275 1329.59 395 1329.59 398.2ZM1318.06 398.175C1318.06 402.725 1320.64 406.425 1325.16 406.425C1329.69 406.425 1332.26 402.75 1332.26 398.2C1332.26 393.65 1329.69 389.925 1325.16 389.925C1320.64 389.925 1318.06 393.625 1318.06 398.175ZM1340.35 403.8V390.2H1335.13L1334.55 392.625H1337.88V403.8H1334.75V406H1343.48V403.8H1340.35ZM1347.93 395.35C1347.93 393.55 1349.38 392.175 1351.3 392.175C1353.45 392.175 1354.85 393.775 1355.13 395.95C1354.68 397.3 1352.98 398.45 1351.33 398.45C1349.3 398.45 1347.93 397.25 1347.93 395.35ZM1357.73 397.4C1357.73 392.75 1355.3 389.925 1351.15 389.925C1347.8 389.925 1345.25 392.2 1345.25 395.45C1345.25 398.525 1347.55 400.525 1350.63 400.525C1352.43 400.525 1354.05 399.85 1355.05 398.85C1354.85 401.725 1353.13 404.125 1349.9 404.125C1348.7 404.125 1347.53 403.775 1346.45 403.075V405.425C1347.53 406.1 1348.73 406.425 1350.18 406.425C1355 406.425 1357.73 402.4 1357.73 397.4ZM1394.17 316.4V320.637C1395 320.712 1395.82 320.712 1396.54 320.712C1401.45 320.712 1406.25 318.425 1406.25 312.2C1406.25 307.625 1403.66 303.8 1396.69 303.8H1387.35V327.5H1392.41V308.225H1396.39C1400.02 308.225 1400.96 309.95 1400.96 312.088C1400.96 315.275 1398.75 316.438 1395.82 316.438C1395.41 316.438 1394.81 316.438 1394.17 316.4ZM1414.9 327.5V303.8H1409.83V327.5H1414.9ZM1415.91 315.238L1424.8 327.5H1431.4L1422.13 314.713L1430.23 303.8H1424.31L1415.91 315.238ZM1236.17 321.387V325.812C1229.91 325.137 1226.12 320.825 1226.12 315.387C1226.12 309.95 1229.95 305.825 1236.17 305.188V309.65C1233.17 310.25 1231.3 312.463 1231.3 315.5C1231.3 318.575 1233.17 320.788 1236.17 321.387ZM1243 302.975V328.438H1237.94V302.975H1243ZM1244.76 325.812V321.387C1247.76 320.788 1249.64 318.575 1249.64 315.5C1249.64 312.463 1247.76 310.25 1244.76 309.65V305.188C1250.99 305.825 1254.81 309.95 1254.81 315.387C1254.81 320.825 1251.02 325.137 1244.76 325.812ZM1263.86 303.8V327.5H1258.79V303.8H1263.86ZM1273.76 327.5L1264.87 315.238L1273.27 303.8H1279.19L1271.09 314.713L1280.36 327.5H1273.76ZM1321.03 256.714L1320.54 259.197C1320.48 259.475 1320.52 259.764 1320.65 260.017C1320.86 260.449 1321.31 260.722 1321.79 260.722H1340.77C1342.19 260.722 1343.6 261.011 1344.9 261.571C1346.13 262.096 1347.25 262.851 1348.19 263.795L1349.45 265.054C1350.21 265.818 1350.89 266.665 1351.46 267.581L1351.56 267.746C1352.73 269.612 1353.42 271.736 1353.58 273.931L1353.67 275.211C1353.81 277.194 1353.33 279.172 1352.28 280.866C1350.55 283.675 1347.49 285.386 1344.19 285.386H1342.67C1341.75 285.386 1340.82 285.281 1339.92 285.074L1337.72 284.564C1335.35 284.018 1332.93 283.742 1330.5 283.742H1320.56C1320.13 283.742 1319.7 283.825 1319.3 283.985C1318.01 284.5 1317.16 285.748 1317.16 287.136V291.22C1317.16 291.971 1317.7 292.619 1318.44 292.767C1319.25 292.93 1320.06 292.425 1320.26 291.618C1320.38 291.145 1320.72 290.755 1321.16 290.563L1323.17 289.704C1323.91 289.387 1324.7 289.223 1325.51 289.223H1338.87C1341.5 289.223 1344.05 290.106 1346.11 291.73L1348.13 293.311C1349.69 294.537 1350.6 296.411 1350.6 298.394V299.135C1350.6 299.822 1350.41 300.496 1350.06 301.085C1349.37 302.227 1348.14 302.925 1346.81 302.925H1321.11C1320.67 302.925 1320.25 303.008 1319.85 303.168L1319.01 303.502C1318.23 303.816 1317.71 304.575 1317.71 305.42C1317.71 306.696 1318.86 307.667 1320.12 307.457L1333.08 305.297C1333.79 305.178 1334.52 305.118 1335.25 305.118H1337.99L1346.21 306.214L1354.11 307.695C1354.66 307.797 1355.22 307.624 1355.61 307.231C1355.91 306.93 1356.09 306.525 1356.1 306.1L1357.61 262.482C1357.68 260.236 1357.31 257.997 1356.5 255.899L1356.2 255.124C1355.4 253.043 1354.1 251.193 1352.4 249.742L1351.95 249.351C1351.41 248.895 1350.83 248.506 1350.2 248.193L1348.61 247.396C1347.43 246.808 1346.06 246.751 1344.84 247.239C1344.3 247.456 1343.72 247.568 1343.13 247.568H1342.38C1341.29 247.568 1340.21 247.361 1339.21 246.957L1337.99 246.472C1336.59 245.773 1334.97 245.687 1333.5 246.236L1331.41 247.02L1326.92 249.471C1325.9 250.026 1324.97 250.725 1324.15 251.545L1323.4 252.292C1322.19 253.5 1321.37 255.039 1321.03 256.714ZM1326.43 291.416C1326.43 291.139 1326.21 290.916 1325.93 290.916C1325.66 290.916 1325.43 291.139 1325.43 291.416V294.204H1322.6V292.355C1322.6 292.079 1322.37 291.855 1322.1 291.855C1321.82 291.855 1321.6 292.079 1321.6 292.355V294.704V298.932V301.281C1321.6 301.557 1321.82 301.781 1322.1 301.781C1322.37 301.781 1322.6 301.557 1322.6 301.281V299.432H1325.43V301.281C1325.43 301.557 1325.66 301.781 1325.93 301.781C1326.21 301.781 1326.43 301.557 1326.43 301.281V299.432H1331.46V301.281C1331.46 301.557 1331.69 301.781 1331.96 301.781C1332.24 301.781 1332.46 301.557 1332.46 301.281V299.432H1339.14V301.281C1339.14 301.557 1339.36 301.781 1339.64 301.781C1339.91 301.781 1340.14 301.557 1340.14 301.281V299.432H1345.71V301.281C1345.71 301.557 1345.94 301.781 1346.21 301.781C1346.49 301.781 1346.71 301.557 1346.71 301.281V299.432H1347.31C1347.59 299.432 1347.81 299.208 1347.81 298.932C1347.81 298.656 1347.59 298.432 1347.31 298.432H1346.71V294.704V293.608C1346.71 293.332 1346.49 293.108 1346.21 293.108C1345.94 293.108 1345.71 293.332 1345.71 293.608V294.204H1340.14V291.416C1340.14 291.139 1339.91 290.916 1339.64 290.916C1339.36 290.916 1339.14 291.139 1339.14 291.416V294.204H1332.46V291.416C1332.46 291.139 1332.24 290.916 1331.96 290.916C1331.69 290.916 1331.46 291.139 1331.46 291.416V294.204H1326.43V291.416ZM1322.6 295.204H1325.43V298.432H1322.6V295.204ZM1331.46 298.432H1326.43V295.204H1331.46V298.432ZM1332.46 298.432V295.204H1339.14V298.432H1332.46ZM1340.14 298.432V295.204H1345.71V298.432H1340.14ZM1338.81 245.231L1338.67 245.025C1338.31 244.484 1338.51 243.748 1339.09 243.457L1339.31 243.345C1339.89 243.058 1340.52 242.909 1341.16 242.909C1341.6 242.909 1342.04 242.981 1342.46 243.121L1343.47 243.457L1344.69 243.864C1344.96 243.955 1345.19 244.149 1345.32 244.405L1345.41 244.601C1345.56 244.9 1345.51 245.261 1345.27 245.498C1345.17 245.597 1345.04 245.668 1344.91 245.702L1343.6 246.029C1343.15 246.141 1342.69 246.198 1342.23 246.198H1341.83C1341.46 246.198 1341.1 246.153 1340.75 246.065L1339.58 245.772C1339.26 245.693 1338.99 245.501 1338.81 245.231ZM1345.15 229.096L1345.67 228.745C1346.03 228.509 1346.31 228.185 1346.5 227.804C1346.67 227.465 1346.76 227.091 1346.76 226.712V226.358C1346.76 225.57 1346.37 224.833 1345.71 224.396C1345.32 224.138 1344.87 224 1344.4 224H1343.96C1343.64 224 1343.32 224.052 1343.01 224.154L1342.99 224.161C1342.25 224.409 1341.63 224.942 1341.28 225.644C1340.94 226.322 1340.99 227.13 1341.41 227.76L1341.67 228.145C1341.77 228.304 1341.9 228.453 1342.03 228.588L1342.25 228.809C1342.68 229.239 1343.27 229.481 1343.87 229.481C1344.33 229.481 1344.77 229.347 1345.15 229.096ZM1345.12 239.821V232.09C1345.12 231.523 1344.73 231.029 1344.18 230.891C1343.5 230.72 1342.81 231.156 1342.67 231.847L1341.15 239.428C1340.93 240.568 1341.71 241.662 1342.87 241.806C1344.06 241.955 1345.12 241.024 1345.12 239.821ZM1306.24 263.515C1307.86 262.099 1309.95 261.335 1312.1 261.369L1338.97 261.803C1341.65 261.846 1344.27 262.632 1346.54 264.074L1347.14 264.458C1348.57 265.369 1349.78 266.589 1350.68 268.029C1351.67 269.604 1352.25 271.397 1352.39 273.251L1352.53 275.291C1352.67 277.304 1352.12 279.305 1350.96 280.958L1350.9 281.055C1349.49 283.063 1347.29 284.369 1344.85 284.64C1343.92 284.744 1342.98 284.693 1342.06 284.489L1338.43 283.682L1338.41 283.677L1338.38 283.668L1338.17 283.599C1336.18 282.936 1334.1 282.598 1332.01 282.598H1317.16H1315.39C1313.23 282.598 1311.11 282.049 1309.23 281.002L1309.09 280.926C1307.69 280.147 1306.46 279.092 1305.47 277.825L1304.85 277.026C1303.63 275.451 1302.96 273.513 1302.96 271.518C1302.96 270.863 1303.03 270.211 1303.18 269.572L1303.49 268.162C1303.89 266.359 1304.85 264.731 1306.24 263.515ZM1312.08 262.369C1310.18 262.338 1308.33 263.015 1306.9 264.267C1305.67 265.343 1304.82 266.784 1304.46 268.379L1304.15 269.789C1304.03 270.356 1303.96 270.936 1303.96 271.518C1303.96 273.291 1304.55 275.013 1305.64 276.412L1306.26 277.211C1307.16 278.372 1308.29 279.338 1309.58 280.052L1309.71 280.128C1311.45 281.092 1313.4 281.598 1315.39 281.598H1317.16H1332.01C1334.21 281.598 1336.4 281.953 1338.49 282.65L1338.67 282.712L1342.28 283.513C1343.09 283.693 1343.92 283.738 1344.74 283.646C1346.89 283.407 1348.84 282.254 1350.08 280.482L1350.15 280.384C1351.17 278.92 1351.66 277.146 1351.53 275.363L1351.39 273.322C1351.27 271.632 1350.73 269.996 1349.84 268.559C1349.02 267.246 1347.91 266.133 1346.6 265.302L1346 264.918C1343.89 263.575 1341.45 262.843 1338.95 262.803L1312.08 262.369ZM1310.32 265.803C1308.4 267.448 1307.3 269.851 1307.3 272.38V273.271C1307.3 274.03 1307.47 274.778 1307.81 275.456C1308.19 276.217 1308.77 276.865 1309.47 277.337L1309.93 277.641C1311.07 278.403 1312.42 278.809 1313.79 278.809H1340.61C1341.77 278.809 1342.89 278.486 1343.87 277.875C1345.67 276.751 1346.76 274.781 1346.76 272.661V269.946C1346.76 268.953 1346.37 268.001 1345.66 267.299L1344.73 266.361C1344.26 265.894 1343.72 265.504 1343.13 265.209C1342.27 264.781 1341.33 264.559 1340.38 264.559H1313.04C1312.51 264.559 1311.98 264.682 1311.51 264.919C1311.26 265.044 1311.03 265.199 1310.82 265.38L1310.32 265.803ZM1314.9 271.52C1313.91 272.317 1313.33 273.523 1313.33 274.798V275.355C1313.33 275.82 1313.46 276.276 1313.72 276.663C1314.16 277.319 1314.9 277.713 1315.69 277.713H1325.22C1325.68 277.713 1326.14 277.575 1326.53 277.317C1327.18 276.88 1327.58 276.143 1327.58 275.355V275.072C1327.58 274.306 1327.27 273.573 1326.73 273.031C1326.57 272.865 1326.38 272.719 1326.18 272.598L1324.35 271.503C1323.95 271.263 1323.49 271.136 1323.03 271.136H1322C1321.15 271.136 1320.45 271.83 1320.45 272.686C1320.45 273.097 1320.29 273.492 1320 273.782L1319.64 274.142C1319.46 274.323 1319.21 274.425 1318.96 274.425C1318.54 274.425 1318.17 274.159 1318.04 273.764L1317.71 272.78L1317.35 271.322C1317.24 270.89 1316.85 270.588 1316.41 270.588C1316.19 270.588 1315.97 270.663 1315.8 270.8L1314.9 271.52ZM1330.04 271.958C1329.52 272.485 1329.22 273.199 1329.22 273.943V276.278C1329.22 276.501 1329.27 276.721 1329.37 276.92C1329.62 277.406 1330.11 277.713 1330.66 277.713H1340.9C1341.85 277.713 1342.78 277.387 1343.53 276.788L1344.43 276.073C1344.86 275.724 1345.12 275.196 1345.12 274.638C1345.12 274.15 1344.92 273.683 1344.58 273.338L1344.02 272.78L1343.51 272.271C1342.78 271.544 1341.8 271.136 1340.77 271.136H1338.06C1337.42 271.136 1336.9 271.657 1336.9 272.299C1336.9 272.607 1336.77 272.903 1336.55 273.121L1336.09 273.582C1335.9 273.771 1335.65 273.877 1335.38 273.877C1334.97 273.877 1334.6 273.626 1334.45 273.245L1334.15 272.506C1333.82 271.679 1333.02 271.136 1332.13 271.136H1331.91C1331.24 271.136 1330.6 271.401 1330.13 271.872L1330.04 271.958ZM1312.58 313.323L1306.32 320.024C1305.95 320.423 1305.96 321.044 1306.34 321.43C1306.6 321.681 1306.96 321.782 1307.31 321.696L1311.13 320.739L1314.97 319.642L1320.45 317.998L1327.58 316.902L1331.87 316.616C1334.48 316.441 1337.11 316.473 1339.72 316.71L1341.83 316.902L1348.2 318.027C1350.16 318.372 1352.08 318.918 1353.92 319.656L1355.02 320.097C1356.09 320.523 1357.2 320.842 1358.33 321.048L1362.12 321.738C1362.47 321.801 1362.83 321.776 1363.17 321.664C1364.53 321.209 1365.05 319.549 1364.19 318.398L1362.82 316.567C1362.71 316.425 1362.59 316.291 1362.47 316.165L1360.5 314.196C1357.95 311.647 1354.87 309.696 1351.47 308.483C1349.8 307.886 1348.06 307.473 1346.3 307.253L1340.18 306.488C1336.18 306.124 1332.15 306.315 1328.2 307.056L1325.39 307.584L1323.32 307.929C1320.35 308.424 1317.53 309.576 1315.06 311.302L1314.23 311.885C1313.63 312.305 1313.08 312.787 1312.58 313.323ZM1363.81 323.076L1356.4 321.931L1348.95 319.739L1345.21 318.668C1345.15 318.651 1345.09 318.639 1345.02 318.632L1340.18 318.094L1336.95 317.863C1333.99 317.652 1331.03 317.681 1328.08 317.949L1326.48 318.094L1321.55 319.191L1310.3 322.124C1309.4 322.36 1308.47 322.479 1307.54 322.479H1305.73C1305.1 322.479 1304.6 323.019 1304.64 323.653L1305.02 328.951C1305.07 329.596 1305.66 330.061 1306.29 329.955L1307.34 329.78C1307.93 329.683 1308.33 329.134 1308.24 328.544L1307.99 326.746C1307.91 326.19 1308.26 325.664 1308.81 325.528L1310.04 325.22L1316.07 323.027C1320.06 321.938 1324.18 321.3 1328.32 321.134L1335.8 320.835L1338.63 321.024C1342.2 321.261 1345.69 322.125 1348.95 323.575L1354.78 325.518C1355.23 325.667 1355.53 326.086 1355.53 326.558V326.864L1355.17 331.211C1355.1 332.075 1356.08 332.619 1356.77 332.098C1357.03 331.908 1357.17 331.611 1357.17 331.294V327.866C1357.17 327.575 1357.29 327.297 1357.5 327.091L1359.37 325.22C1360.08 324.507 1361 324.034 1361.99 323.869L1363.73 323.579C1363.74 323.577 1363.76 323.575 1363.77 323.575C1364.08 323.575 1364.12 323.124 1363.81 323.076ZM1307.77 374H1356.81C1357.34 374 1357.79 373.623 1357.89 373.103L1363.12 344.8C1363.22 344.259 1362.9 343.728 1362.38 343.558L1360.48 342.941C1360.13 342.827 1359.74 342.897 1359.45 343.128L1357.33 344.829C1357.23 344.91 1357.11 344.972 1356.99 345.013L1352.87 346.386C1352.48 346.515 1352.2 346.847 1352.14 347.25L1348.58 369.067C1348.49 369.67 1347.91 370.076 1347.31 369.97L1339.09 368.519L1330.87 367.971L1322.1 368.519L1316.62 369.615L1313.49 370.397C1312.83 370.561 1312.18 370.094 1312.13 369.417L1310.63 349.882C1310.6 349.574 1310.35 349.336 1310.04 349.336L1306.15 349.768C1305.57 349.833 1305.14 350.346 1305.18 350.932L1306.68 372.978C1306.72 373.554 1307.2 374 1307.77 374ZM1296.48 330.719L1301.65 326.244C1302.36 325.629 1303.46 326.133 1303.46 327.072V331.004C1303.46 331.163 1303.41 331.317 1303.31 331.443L1300.91 334.562C1299.39 336.538 1300.05 339.41 1302.28 340.524C1302.34 340.552 1302.4 340.566 1302.46 340.566H1306.61C1306.7 340.566 1306.79 340.555 1306.88 340.534L1310.53 339.621C1310.91 339.527 1311.3 339.637 1311.57 339.909L1312.62 340.955C1312.72 341.06 1312.85 341.143 1312.99 341.198L1318.05 343.223C1318.19 343.278 1318.31 343.361 1318.42 343.466L1319.07 344.112C1319.67 344.718 1319.38 345.755 1318.54 345.954L1310.19 347.942C1309.36 348.14 1308.51 348.24 1307.66 348.24H1300.22C1299.46 348.24 1298.71 348.129 1297.98 347.91L1297.67 347.818C1295.16 347.063 1293.24 345.006 1292.67 342.44C1292.56 341.923 1292.5 341.395 1292.5 340.866V339.325C1292.5 337.271 1293.08 335.258 1294.17 333.516L1294.37 333.193C1294.95 332.267 1295.66 331.433 1296.48 330.719ZM1327.37 332.779L1337.38 329.443C1338.15 329.186 1338.95 329.016 1339.76 328.935L1342.79 328.631C1343.61 328.549 1344.43 328.56 1345.24 328.661L1345.65 328.712C1347.46 328.938 1349.18 329.611 1350.66 330.669L1352.24 331.797L1352.83 332.188C1353.46 332.611 1353.76 333.386 1353.58 334.125L1353.54 334.294C1353.41 334.787 1353.05 335.183 1352.56 335.343C1352.03 335.521 1351.44 335.382 1351.04 334.984L1349.87 333.805C1349.62 333.563 1349.35 333.352 1349.06 333.176L1346.76 331.797L1346.45 331.641C1345.24 331.034 1343.84 330.881 1342.53 331.211L1342.45 331.229C1342.4 331.242 1342.36 331.268 1342.32 331.305C1342.14 331.487 1342.27 331.797 1342.52 331.797H1343.35C1344.16 331.797 1344.95 331.95 1345.7 332.248L1345.89 332.327C1346.83 332.701 1347.68 333.259 1348.39 333.97L1350.6 336.182C1350.9 336.484 1350.9 336.975 1350.6 337.278C1350.01 337.863 1349.05 337.809 1348.53 337.163L1347.67 336.084C1347.43 335.787 1347.13 335.545 1346.79 335.376L1345.72 334.841C1344.6 334.281 1343.37 333.989 1342.12 333.989H1341.28C1341.09 333.989 1341.07 334.272 1341.26 334.299L1342.69 334.504C1342.85 334.526 1343 334.562 1343.15 334.611L1344.08 334.922C1344.4 335.031 1344.72 335.163 1345.03 335.317L1345.59 335.594C1346.36 335.979 1347.01 336.558 1347.49 337.275L1347.73 337.633C1347.81 337.761 1347.88 337.9 1347.93 338.046C1348.2 338.863 1347.83 339.756 1347.06 340.142L1346.92 340.212C1346.47 340.439 1345.94 340.476 1345.46 340.316L1344.91 340.133C1344.68 340.057 1344.46 339.956 1344.26 339.831L1341.91 338.425C1341.86 338.391 1341.8 338.362 1341.73 338.339L1339.48 337.493C1338.15 336.996 1336.71 336.914 1335.33 337.257C1335.3 337.266 1335.26 337.272 1335.22 337.276C1335.2 337.277 1335.18 337.278 1335.16 337.278H1332.81C1332.62 337.278 1332.42 337.224 1332.25 337.122L1329.77 335.633L1327.26 334.377C1326.83 334.163 1326.65 333.642 1326.87 333.214C1326.97 333.008 1327.15 332.852 1327.37 332.779ZM1358.27 328.962V330.058C1358.27 330.833 1359.11 331.318 1359.78 330.934L1361.3 330.065C1361.83 329.763 1362.43 329.604 1363.04 329.604C1363.85 329.604 1364.64 329.891 1365.27 330.414L1366.77 331.667C1367.3 332.107 1367.68 332.705 1367.85 333.373C1368.03 334.124 1367.95 334.918 1367.6 335.611L1367.23 336.346C1366.75 337.311 1365.99 338.111 1365.06 338.647L1362.88 339.891C1362.73 339.975 1362.6 340.088 1362.5 340.224L1361.67 341.334C1361.4 341.695 1361.66 342.211 1362.11 342.211H1363.53C1365.1 342.211 1366.63 341.72 1367.91 340.806C1369.13 339.935 1370.06 338.721 1370.59 337.318L1370.81 336.721C1371.22 335.639 1371.42 334.494 1371.42 333.339V331.63C1371.42 329.967 1370.84 328.357 1369.78 327.079L1369.64 326.919C1369.01 326.162 1368.21 325.565 1367.31 325.177C1365.74 324.504 1363.96 324.504 1362.39 325.177L1362.2 325.258C1361.41 325.595 1360.7 326.078 1360.1 326.683L1358.59 328.187C1358.39 328.393 1358.27 328.672 1358.27 328.962ZM1357.17 333.441L1361.01 331.249C1362 330.589 1363.3 330.61 1364.26 331.301L1365.37 332.091C1366.07 332.594 1366.49 333.407 1366.49 334.273C1366.49 334.803 1366.34 335.32 1366.04 335.761L1365.81 336.11C1365.54 336.52 1365.19 336.876 1364.79 337.163L1362.64 338.696C1361.92 339.21 1361.27 339.81 1360.69 340.482L1358.47 343.076C1358.34 343.227 1358.17 343.34 1357.98 343.403L1343.58 348.204C1343.51 348.228 1343.43 348.244 1343.36 348.253L1337.19 348.979C1335.2 349.212 1333.19 348.899 1331.37 348.071L1328.13 346.595L1318.81 342.211L1312.06 338.575C1311.82 338.446 1311.54 338.411 1311.27 338.477L1309.49 338.922L1306.86 339.449C1306.79 339.463 1306.71 339.47 1306.64 339.47H1303.59C1303.51 339.47 1303.43 339.442 1303.36 339.392C1301.88 338.206 1301.58 336.068 1302.69 334.524L1303.11 333.931C1303.34 333.606 1303.62 333.314 1303.93 333.065L1304.36 332.719C1305.57 331.757 1307.01 331.148 1308.54 330.957L1309.36 330.854C1310.18 330.752 1311 330.742 1311.81 330.823L1314.65 331.107C1315.59 331.201 1316.52 331.417 1317.4 331.75L1324.84 334.537L1330.87 337.826L1332.18 338.701C1332.39 338.844 1332.65 338.906 1332.91 338.878L1337.14 338.408C1337.34 338.386 1337.54 338.418 1337.72 338.502L1344.35 341.562C1344.49 341.628 1344.65 341.662 1344.81 341.662H1346.43C1346.65 341.662 1346.86 341.598 1347.04 341.478L1351.51 338.496C1351.63 338.415 1351.73 338.312 1351.82 338.191L1352.69 336.886C1352.75 336.782 1352.84 336.692 1352.94 336.617L1357.17 333.441Z" fill="white"/>
<circle cx="1332" cy="315" r="123.75" stroke="white" stroke-width="2.5"/>
</g>
<path d="M251.676 559.608C249.628 559.608 246.812 559.736 244.828 559.992V571.704H252.124C257.372 571.704 261.02 569.784 261.02 565.496C261.02 561.528 257.756 559.608 251.676 559.608ZM252.444 577.08H244.828V589.56C246.876 589.688 250.14 589.688 251.996 589.688C259.1 589.688 262.748 587.768 262.748 583.096C262.748 578.808 258.972 577.08 252.444 577.08ZM238.364 594.936V554.552C243.1 554.36 247.26 554.232 252.252 554.232C263.132 554.232 267.996 557.944 267.996 563.768C267.996 567.928 266.396 571.768 261.084 573.624C267.228 575.096 269.596 578.488 269.596 583.416C269.596 591.224 262.812 595.192 252.124 595.192C246.556 595.192 241.628 595.064 238.364 594.936ZM303.741 595H299.325L298.557 590.008C295.165 594.296 291.005 595.704 286.141 595.704C280.573 595.704 274.557 592.312 274.557 585.336C274.557 577.4 280.765 574.584 287.741 574.584C290.237 574.584 294.077 575.352 297.213 576.568V573.688C297.213 568.504 292.093 567.672 288.061 567.672C284.541 567.672 281.021 568.184 277.949 569.72V563.96C281.277 562.808 285.181 562.04 288.765 562.04C296.701 562.04 303.741 564.28 303.741 574.84V595ZM297.213 584.632V582.008C294.781 580.472 291.645 579.576 288.509 579.576C284.285 579.576 281.405 580.92 281.405 584.632C281.405 588.216 283.261 590.584 288.125 590.584C291.581 590.584 295.165 588.344 297.213 584.632ZM340.96 563.128V595H335.776V589.496C332.128 595.256 326.624 596.088 322.4 596.088C316.064 596.088 311.84 592.12 311.84 584.568V563.128H318.496V582.84C318.496 588.92 321.248 590.52 325.408 590.52C329.184 590.392 332.512 588.28 334.304 584.824V563.128H340.96ZM398.052 575.288V595H391.46V575.288C391.46 569.912 389.604 567.608 385.252 567.608C381.476 567.736 378.916 569.656 377.06 573.304V595H370.468V575.288C370.468 569.912 368.612 567.608 364.26 567.608C360.484 567.736 357.924 569.656 356.068 573.304V595H349.476V563.128H354.66V568.76C357.284 564.152 361.316 562.04 365.796 562.04C370.276 562.04 374.052 563.64 375.78 568.76C378.468 564.024 382.5 562.04 387.108 562.04C391.844 562.04 398.052 563.64 398.052 575.288ZM433.741 595H429.325L428.557 590.008C425.165 594.296 421.005 595.704 416.141 595.704C410.573 595.704 404.557 592.312 404.557 585.336C404.557 577.4 410.765 574.584 417.741 574.584C420.237 574.584 424.077 575.352 427.213 576.568V573.688C427.213 568.504 422.093 567.672 418.061 567.672C414.541 567.672 411.021 568.184 407.949 569.72V563.96C411.277 562.808 415.181 562.04 418.765 562.04C426.701 562.04 433.741 564.28 433.741 574.84V595ZM427.213 584.632V582.008C424.781 580.472 421.645 579.576 418.509 579.576C414.285 579.576 411.405 580.92 411.405 584.632C411.405 588.216 413.261 590.584 418.125 590.584C421.581 590.584 425.165 588.344 427.213 584.632ZM442.288 595V563.128H447.472V568.76C450.288 564.088 454.704 562.04 459.504 562.04C465.904 562.04 471.728 565.496 471.728 573.496V595H465.072V575.288C465.072 569.72 461.872 567.608 458.16 567.608C453.808 567.608 450.864 569.848 448.944 573.88V595H442.288ZM499.239 595V554.552H505.703V588.92H526.311V595H499.239ZM557.554 588.6V594.04C554.738 595.448 550.002 596.088 546.29 596.088C533.81 596.088 528.37 588.472 528.37 578.936C528.37 568.12 536.37 562.04 544.882 562.04C555.762 562.04 560.114 569.08 560.114 577.4C560.114 578.424 559.986 580.728 559.858 582.008H535.282C536.242 588.6 542.066 590.584 547.442 590.584C550.45 590.584 554.354 590.008 557.554 588.6ZM535.154 576.952H553.586C553.586 570.808 549.81 567.544 544.882 567.544C539.058 567.544 535.474 571.064 535.154 576.952ZM594.741 595H590.325L589.557 590.008C586.165 594.296 582.005 595.704 577.141 595.704C571.573 595.704 565.557 592.312 565.557 585.336C565.557 577.4 571.765 574.584 578.741 574.584C581.237 574.584 585.077 575.352 588.213 576.568V573.688C588.213 568.504 583.093 567.672 579.061 567.672C575.541 567.672 572.021 568.184 568.949 569.72V563.96C572.277 562.808 576.181 562.04 579.765 562.04C587.701 562.04 594.741 564.28 594.741 574.84V595ZM588.213 584.632V582.008C585.781 580.472 582.645 579.576 579.509 579.576C575.285 579.576 572.405 580.92 572.405 584.632C572.405 588.216 574.261 590.584 579.125 590.584C582.581 590.584 586.165 588.344 588.213 584.632ZM617.624 567.544C610.584 567.544 608.28 572.536 608.28 579.192C608.28 584.952 610.904 590.2 617.752 590.2C621.464 590.2 625.432 587.96 627.992 582.968V572.024C624.792 568.696 620.888 567.544 617.624 567.544ZM628.76 566.776L629.208 563.128H634.52V588.728C634.52 602.872 626.136 607.416 616.856 607.416C612.248 607.416 608.536 606.52 605.592 604.984V599.416C608.856 600.888 612.056 601.72 615.896 601.72C619.672 601.72 627.992 601.144 627.992 590.84V589.816C624.472 594.744 620.44 595.704 615.704 595.704C606.488 595.704 601.432 588.216 601.432 579C601.432 567.544 609.112 562.04 616.28 562.04C619.928 562.04 624.984 562.808 628.76 566.776ZM672.085 563.128V595H666.901V589.496C663.253 595.256 657.749 596.088 653.525 596.088C647.189 596.088 642.965 592.12 642.965 584.568V563.128H649.621V582.84C649.621 588.92 652.373 590.52 656.533 590.52C660.309 590.392 663.637 588.28 665.429 584.824V563.128H672.085ZM707.929 588.6V594.04C705.113 595.448 700.377 596.088 696.665 596.088C684.185 596.088 678.745 588.472 678.745 578.936C678.745 568.12 686.745 562.04 695.257 562.04C706.137 562.04 710.489 569.08 710.489 577.4C710.489 578.424 710.361 580.728 710.233 582.008H685.657C686.617 588.6 692.441 590.584 697.817 590.584C700.825 590.584 704.729 590.008 707.929 588.6ZM685.529 576.952H703.961C703.961 570.808 700.185 567.544 695.257 567.544C689.433 567.544 685.849 571.064 685.529 576.952ZM396.581 679.888V671.568C399.077 673.232 403.429 675.344 408.101 675.344C412.901 675.344 415.653 672.656 415.653 668.88C415.653 664.208 412.005 662.8 408.165 662.8C406.501 662.8 404.773 663.056 403.237 663.44L402.149 659.92L412.261 649.104H395.813L397.669 641.552H423.525V646.864L413.669 657.36C421.029 657.616 424.741 663.056 424.741 669.2C424.741 677.648 417.829 683.152 409.317 683.152C405.285 683.152 399.781 682.448 396.581 679.888ZM476.169 650.128V657.296H466.441V682H457.609V657.296H447.881V650.128H476.169ZM492.934 694.16H483.974L492.294 678.736L478.982 650.128H488.71L496.198 669.52L503.366 650.128H512.646L492.934 694.16ZM525.464 679.12V694.16H516.632V650.128H524.248L524.632 655.12C526.936 651.088 530.648 649.04 535.576 649.04C545.752 649.04 550.488 656.336 550.488 665.424C550.488 674.768 544.856 683.088 534.68 683.088C531.224 683.088 527.96 681.936 525.464 679.12ZM533.528 675.6C539.16 675.536 541.464 670.992 541.464 665.616C541.464 660.304 539.032 656.4 533.528 656.4C530.456 656.4 527.192 657.68 525.4 659.344V672.912C527.768 674.896 530.392 675.6 533.528 675.6Z" fill="white"/>
<path d="M0 774H1071.32V135H2048" stroke="white" stroke-width="20"/>
<path d="M1733.5 203L1760.33 280.045H1847.15L1776.91 327.661L1803.74 404.705L1733.5 357.089L1663.26 404.705L1690.09 327.661L1619.85 280.045H1706.67L1733.5 203Z" fill="#D9D9D9"/>
<path d="M173.288 883.328V935.552H185.288V944H151.784V935.552H163.784V892.64H151.016L153.224 883.328H173.288ZM173.288 984.328V1036.55H185.288V1045H151.784V1036.55H163.784V993.64H151.016L153.224 984.328H173.288ZM194.07 1042.6V1033.19C198.198 1035.4 203.862 1038.09 210.006 1038.09C218.838 1038.09 223.926 1032.52 223.926 1025.8C223.926 1017.35 217.206 1014.86 210.198 1014.86C207.894 1014.86 205.494 1015.14 203.478 1015.53L202.326 1011.98L219.702 993.352H193.11L195.414 984.328H232.278V990.76L215.574 1008.14C228.246 1008.71 234.198 1017.45 234.198 1026.28C234.198 1038.76 224.31 1046.63 212.022 1046.63C206.358 1046.63 198.87 1045.96 194.07 1042.6ZM195.272 1126.99C195.272 1139.66 184.52 1147.63 170.024 1147.63C163.88 1147.63 158.216 1146.77 153.128 1143.98V1134.77C157.448 1136.78 163.112 1139.09 168.776 1139.09C178.28 1139.09 185 1134.77 185 1126.13C185 1119.5 180.584 1115.09 171.848 1115.09C166.952 1115.09 161.672 1115.86 157.352 1117.58L155.336 1115.47L158.696 1085.33H192.488L190.088 1094.35H165.608L164.072 1108.08C166.952 1107.12 170.408 1106.54 173.864 1106.54C184.136 1106.54 195.272 1111.92 195.272 1126.99ZM167.048 1248.92L158.024 1245.37L176.744 1195.54H147.848L150.056 1186.33H190.664L167.048 1248.92ZM213.413 1186.33V1238.55H225.413V1247H191.909V1238.55H203.909V1195.64H191.141L193.349 1186.33H213.413ZM173.288 1287.33V1339.55H185.288V1348H151.784V1339.55H163.784V1296.64H151.016L153.224 1287.33H173.288ZM209.663 1287.33V1339.55H221.663V1348H188.159V1339.55H200.159V1296.64H187.391L189.599 1287.33H209.663ZM163.016 1417.22C158.984 1414.34 156.2 1410.22 156.2 1403.88C156.2 1393.8 164.264 1387.27 177.224 1387.27C188.168 1387.18 196.52 1394.28 196.52 1403.5C196.52 1409.16 193.544 1414.73 188.072 1417.61C195.08 1420.68 200.168 1424.81 200.168 1433.16C200.168 1445.35 188.552 1450.63 176.456 1450.63C161.864 1450.73 152.648 1443.24 152.648 1433.26C152.648 1427.21 156.104 1420.78 163.016 1417.22ZM162.248 1432.01C162.248 1439.21 168.872 1442.09 176.936 1442.09C184.616 1442.18 190.568 1439.11 190.568 1433.35C190.568 1426.15 179.624 1424.81 170.12 1420.97C164.648 1423.08 162.248 1427.69 162.248 1432.01ZM187.112 1404.36C187.112 1398.79 182.888 1395.62 176.264 1395.62C170.504 1395.62 165.608 1397.35 165.608 1403.88C165.608 1410.41 174.92 1413.1 180.296 1414.73C184.808 1412.14 187.112 1407.91 187.112 1404.36ZM179.432 1496.91C172.04 1496.91 166.472 1502.19 166.472 1509.1C166.472 1516.4 171.752 1521.01 179.528 1521.01C185.864 1521.01 192.392 1516.59 194.12 1511.41C193.064 1503.06 187.688 1496.91 179.432 1496.91ZM178.856 1488.27C194.792 1488.27 204.104 1499.12 204.104 1516.98C204.104 1536.18 193.64 1551.63 175.112 1551.63C169.544 1551.63 164.936 1550.38 160.808 1547.79V1538.77C164.936 1541.46 169.448 1542.8 174.056 1542.8C186.44 1542.8 193.064 1533.58 193.832 1522.54C189.992 1526.38 183.752 1528.98 176.84 1528.98C165.032 1528.98 156.2 1521.3 156.2 1509.49C156.2 1497.01 165.992 1488.27 178.856 1488.27ZM167.048 1652.92L158.024 1649.37L176.744 1599.54H147.848L150.056 1590.33H190.664L167.048 1652.92Z" fill="white"/>
<path d="M169.896 1761.85C178.92 1761.85 185.192 1765.69 185.192 1772.34C185.192 1775.99 183.336 1780.09 177.64 1782.39C183.208 1783.67 186.024 1787.38 186.024 1792.25C186.024 1799.1 179.624 1804.15 169.384 1804.15C163.56 1804.15 159.336 1803.13 155.432 1801.08V1795C159.784 1797.18 163.944 1798.26 169.448 1798.26C174.696 1798.26 179.048 1795.9 179.048 1791.67C179.048 1787.51 175.912 1785.53 169.512 1785.53H162.152V1780.15H168.424C175.144 1780.15 178.28 1777.91 178.28 1773.88C178.28 1769.34 174.248 1767.67 168.872 1767.67C164.584 1767.67 159.528 1768.89 156.52 1769.98V1764.28C159.848 1762.68 164.584 1761.85 169.896 1761.85ZM219.741 1803H215.325L214.557 1798.01C211.165 1802.3 207.005 1803.7 202.141 1803.7C196.573 1803.7 190.557 1800.31 190.557 1793.34C190.557 1785.4 196.765 1782.58 203.741 1782.58C206.237 1782.58 210.077 1783.35 213.213 1784.57V1781.69C213.213 1776.5 208.093 1775.67 204.061 1775.67C200.541 1775.67 197.021 1776.18 193.949 1777.72V1771.96C197.277 1770.81 201.181 1770.04 204.765 1770.04C212.701 1770.04 219.741 1772.28 219.741 1782.84V1803ZM213.213 1792.63V1790.01C210.781 1788.47 207.645 1787.58 204.509 1787.58C200.285 1787.58 197.405 1788.92 197.405 1792.63C197.405 1796.22 199.261 1798.58 204.125 1798.58C207.581 1798.58 211.165 1796.34 213.213 1792.63ZM257.152 1771.13V1803H250.496V1776.57H234.944V1803H228.288V1771.13H257.152ZM293.054 1803H288.638L287.87 1798.01C284.478 1802.3 280.318 1803.7 275.454 1803.7C269.885 1803.7 263.87 1800.31 263.87 1793.34C263.87 1785.4 270.078 1782.58 277.054 1782.58C279.55 1782.58 283.39 1783.35 286.526 1784.57V1781.69C286.526 1776.5 281.406 1775.67 277.374 1775.67C273.854 1775.67 270.334 1776.18 267.262 1777.72V1771.96C270.59 1770.81 274.494 1770.04 278.078 1770.04C286.014 1770.04 293.054 1772.28 293.054 1782.84V1803ZM286.526 1792.63V1790.01C284.094 1788.47 280.958 1787.58 277.822 1787.58C273.598 1787.58 270.718 1788.92 270.718 1792.63C270.718 1796.22 272.574 1798.58 277.438 1798.58C280.894 1798.58 284.478 1796.34 286.526 1792.63ZM325.409 1771.45V1776.95C323.297 1776.25 320.353 1775.67 317.729 1775.67C310.497 1775.67 306.593 1779.51 306.593 1787C306.593 1794.49 311.137 1798.39 317.537 1798.39C320.481 1798.39 323.489 1797.82 325.793 1796.79V1802.36C322.785 1803.64 319.201 1804.09 316.641 1804.09C307.041 1804.09 299.745 1797.82 299.745 1787.26C299.745 1776.82 306.401 1770.04 316.961 1770.04C319.201 1770.04 322.785 1770.42 325.409 1771.45ZM361.471 1771.13V1803H354.815V1789.75H339.007V1803H332.351V1771.13H339.007V1784.38H354.815V1771.13H361.471ZM400.63 1803V1771.13H407.286V1803H400.63ZM370.038 1803V1771.13H376.694V1782.58C378.934 1782.07 381.046 1781.82 383.542 1781.82C391.734 1781.82 396.854 1785.72 396.854 1792.44C396.854 1798.78 392.502 1803 385.27 1803H370.038ZM376.694 1787.58V1797.94H384.118C388.534 1797.94 390.07 1795.58 390.07 1792.31C390.07 1787.83 386.678 1786.81 382.902 1786.81C380.598 1786.81 378.55 1787.13 376.694 1787.58ZM443.179 1796.6V1802.04C440.363 1803.45 435.627 1804.09 431.915 1804.09C419.435 1804.09 413.995 1796.47 413.995 1786.94C413.995 1776.12 421.995 1770.04 430.507 1770.04C441.387 1770.04 445.739 1777.08 445.739 1785.4C445.739 1786.42 445.611 1788.73 445.483 1790.01H420.907C421.867 1796.6 427.691 1798.58 433.067 1798.58C436.075 1798.58 439.979 1798.01 443.179 1796.6ZM420.779 1784.95H439.211C439.211 1778.81 435.435 1775.54 430.507 1775.54C424.683 1775.54 421.099 1779.06 420.779 1784.95ZM462.318 1799.42C462.318 1802.62 460.206 1804.15 457.838 1804.15C455.406 1804.15 453.23 1802.62 453.23 1799.42C453.23 1796.09 455.406 1794.55 457.838 1794.55C460.206 1794.55 462.318 1796.09 462.318 1799.42ZM462.318 1774.9C462.318 1778.1 460.206 1779.64 457.838 1779.64C455.406 1779.64 453.23 1778.1 453.23 1774.9C453.23 1771.58 455.406 1770.04 457.838 1770.04C460.206 1770.04 462.318 1771.58 462.318 1774.9ZM182.632 1856.05C180.008 1856.62 177.256 1856.88 174.504 1856.88C173.8 1856.88 173.032 1856.88 172.328 1856.82L164.456 1870H156.584L165.48 1855.54C159.976 1853.62 155.88 1849.58 155.88 1842.61C155.88 1833.84 161.512 1829.55 171.688 1829.55H189.096V1870H182.632V1856.05ZM162.792 1843.18C162.856 1849.84 169 1851.31 174.952 1851.31C177.448 1851.31 179.752 1851.25 182.632 1850.61V1835.38H171.752C166.12 1835.38 162.792 1838.06 162.792 1843.18ZM223.096 1838.45V1843.95C220.984 1843.25 218.04 1842.67 215.416 1842.67C208.184 1842.67 204.28 1846.51 204.28 1854C204.28 1861.49 208.824 1865.39 215.224 1865.39C218.168 1865.39 221.176 1864.82 223.48 1863.79V1869.36C220.472 1870.64 216.888 1871.09 214.328 1871.09C204.728 1871.09 197.432 1864.82 197.432 1854.26C197.432 1843.82 204.088 1837.04 214.648 1837.04C216.888 1837.04 220.472 1837.42 223.096 1838.45ZM257.366 1863.6V1869.04C254.55 1870.45 249.814 1871.09 246.102 1871.09C233.622 1871.09 228.182 1863.47 228.182 1853.94C228.182 1843.12 236.182 1837.04 244.694 1837.04C255.574 1837.04 259.926 1844.08 259.926 1852.4C259.926 1853.42 259.798 1855.73 259.67 1857.01H235.094C236.054 1863.6 241.878 1865.58 247.254 1865.58C250.262 1865.58 254.166 1865.01 257.366 1863.6ZM234.966 1851.95H253.398C253.398 1845.81 249.622 1842.54 244.694 1842.54C238.87 1842.54 235.286 1846.06 234.966 1851.95ZM296.346 1838.13V1870H289.69V1856.75H273.882V1870H267.226V1838.13H273.882V1851.38H289.69V1838.13H296.346ZM309.841 1838.13V1847.66C309.841 1853.55 312.017 1854.77 316.433 1854.77C318.865 1854.77 321.745 1853.94 323.985 1852.72V1838.13H330.641V1870H323.985V1857.84C320.721 1859.7 317.073 1860.27 313.937 1860.27C308.369 1860.27 303.185 1857.2 303.185 1850.1V1838.13H309.841ZM348.762 1866.54L335.514 1838.13H342.938L351.898 1859.76L360.73 1838.13H367.386L347.61 1882.16H340.762L348.762 1866.54ZM371.351 1870V1838.13H378.007V1851.25H383.127L392.727 1838.13H400.663L388.823 1853.42L401.815 1870H393.495L383.447 1856.82H378.007V1870H371.351ZM407.762 1878.77H403.282L408.018 1862H415.186L407.762 1878.77ZM472.577 1829.55H475.073V1870H468.609V1842.03L441.985 1870H439.489V1829.55H445.953V1857.46L472.577 1829.55ZM489.154 1838.13H513.346V1870H507.01V1843.57H494.786C494.786 1866.35 491.586 1870.32 484.098 1870.32C483.394 1870.32 481.986 1870.26 480.898 1870.13L481.41 1864.69C481.922 1864.82 482.37 1864.88 482.818 1864.88C487.874 1864.88 488.898 1859.38 489.154 1838.13ZM521.913 1870V1838.13H528.569V1849.58C530.809 1849.07 533.369 1848.82 535.865 1848.82C544.057 1848.82 549.177 1852.72 549.177 1859.44C549.177 1865.78 544.825 1870 537.593 1870H521.913ZM528.569 1854.58V1864.94H536.441C540.857 1864.94 542.393 1862.58 542.393 1859.31C542.393 1854.83 539.001 1853.81 535.225 1853.81C532.921 1853.81 530.425 1854.13 528.569 1854.58ZM554.851 1870V1838.13H561.507V1858.48L582.115 1838.13H584.483V1870H577.827V1849.65L557.219 1870H554.851ZM622.158 1838.13V1870H615.502V1856.75H599.694V1870H593.038V1838.13H599.694V1851.38H615.502V1838.13H622.158ZM661.318 1870V1838.13H667.974V1870H661.318ZM630.726 1870V1838.13H637.382V1849.58C639.622 1849.07 641.734 1848.82 644.23 1848.82C652.422 1848.82 657.542 1852.72 657.542 1859.44C657.542 1865.78 653.19 1870 645.958 1870H630.726ZM637.382 1854.58V1864.94H644.806C649.222 1864.94 650.758 1862.58 650.758 1859.31C650.758 1854.83 647.366 1853.81 643.59 1853.81C641.286 1853.81 639.238 1854.13 637.382 1854.58ZM692.282 1853.87L704.122 1870H696.89L688.698 1858.54L680.89 1870H673.21L684.922 1854.06L672.89 1838.13H680.506L688.634 1849.9L696.698 1838.13H703.93L692.282 1853.87ZM710.574 1878.77H706.094L710.83 1862H717.998L710.574 1878.77ZM775.774 1870H742.302V1829.55H748.766V1863.98H769.502V1829.55H775.966V1863.98H781.79V1877.55H775.774V1870ZM797.199 1866.54L783.951 1838.13H791.375L800.335 1859.76L809.167 1838.13H815.823L796.047 1882.16H789.199L797.199 1866.54ZM819.788 1870V1838.13H826.444V1851.25H831.564L841.164 1838.13H849.1L837.26 1853.42L850.252 1870H841.932L831.884 1856.82H826.444V1870H819.788ZM880.616 1870H876.2L875.432 1865.01C872.04 1869.3 867.88 1870.7 863.016 1870.7C857.448 1870.7 851.432 1867.31 851.432 1860.34C851.432 1852.4 857.64 1849.58 864.616 1849.58C867.112 1849.58 870.952 1850.35 874.088 1851.57V1848.69C874.088 1843.5 868.968 1842.67 864.936 1842.67C861.416 1842.67 857.896 1843.18 854.824 1844.72V1838.96C858.152 1837.81 862.056 1837.04 865.64 1837.04C873.576 1837.04 880.616 1839.28 880.616 1849.84V1870ZM874.088 1859.63V1857.01C871.656 1855.47 868.52 1854.58 865.384 1854.58C861.16 1854.58 858.28 1855.92 858.28 1859.63C858.28 1863.22 860.136 1865.58 865 1865.58C868.456 1865.58 872.04 1863.34 874.088 1859.63ZM918.283 1838.13V1870H911.627V1856.75H895.819V1870H889.163V1838.13H895.819V1851.38H911.627V1838.13H918.283ZM941.955 1871.09C930.499 1870.96 924.995 1863.15 924.995 1854.26C924.995 1844.46 931.331 1837.04 941.955 1837.04C953.411 1837.17 958.915 1844.98 958.915 1853.87C958.915 1863.66 952.579 1871.09 941.955 1871.09ZM941.955 1865.58C949.635 1865.58 952.067 1859.57 952.067 1854.38C952.067 1848.43 949.123 1842.54 941.955 1842.54C934.275 1842.54 931.843 1848.56 931.843 1853.74C931.843 1859.7 934.787 1865.58 941.955 1865.58ZM979.615 1870.45C977.119 1870.45 970.527 1870.45 965.663 1870.13V1838.06C970.207 1837.74 975.583 1837.68 980.383 1837.68C987.103 1837.68 993.055 1838.96 993.055 1845.42C993.055 1849.07 991.263 1851.57 987.871 1853.36C992.415 1854.77 994.399 1857.46 994.399 1861.36C994.399 1866.42 990.687 1870.45 979.615 1870.45ZM972.255 1865.01H981.023C985.503 1865.01 987.615 1863.28 987.615 1860.46C987.615 1857.78 985.631 1856.11 980.895 1856.11H972.255V1865.01ZM972.255 1851.38H980.191C984.479 1851.38 986.463 1849.46 986.463 1846.83C986.463 1844.34 984.991 1842.67 979.743 1842.67H972.255V1851.38Z" fill="white"/>
<defs>
<filter id="filter0_f_1_408" x="1018" y="0" width="1034" height="2557" filterUnits="userSpaceOnUse" color-interpolation-filters="sRGB">
<feFlood flood-opacity="0" result="BackgroundImageFix"/>
<feBlend mode="normal" in="SourceGraphic" in2="BackgroundImageFix" result="shape"/>
<feGaussianBlur stdDeviation="2" result="effect1_foregroundBlur_1_408"/>
</filter>
<linearGradient id="paint0_linear_1_408" x1="1023" y1="2553" x2="1029.08" y2="1757.04" gradientUnits="userSpaceOnUse">
<stop stop-color="#4B62FF"/>
<stop offset="1" stop-color="#4359F0" stop-opacity="0"/>
</linearGradient>
<linearGradient id="paint1_linear_1_408" x1="2296.5" y1="3579" x2="2296.5" y2="2553" gradientUnits="userSpaceOnUse">
<stop stop-color="#001292"/>
<stop offset="1" stop-color="#0E1D82" stop-opacity="0"/>
</linearGradient>
</defs>
</svg>
